<svg width="32" height="32" viewBox="0 0 32 32" fill="none" xmlns="http://www.w3.org/2000/svg">
<path d="M27.3333 17.3333C24.7573 17.3333 22.6667 19.4226 22.6667 21.9999C22.6667 24.5773 24.7573 26.6666 27.3333 26.6666C29.9093 26.6666 32 24.5773 32 21.9999C32 19.4226 29.9093 17.3333 27.3333 17.3333ZM29.3333 22.6666H28V23.9999H26.6667V22.6666H25.3333V21.3333H26.6667V19.9999H28V21.3333H29.3333V22.6666ZM11.9987 14.7999C11.9987 17.0559 10.9773 18.6666 10.3907 19.9999H8.528C8.83067 18.6666 11.1333 15.4466 9.88933 13.3573C9.156 12.1266 6.86 12.1253 6.13067 13.3373C5.45467 14.4586 5.81067 16.5599 7.08 18.9573C7.77067 20.2613 7.57867 21.2693 7.296 21.8866C6.75467 23.0719 5.55867 23.6426 4.208 24.0359C1.528 24.8199 1.77467 24.1093 1.77467 26.6666H0.00266667L0 25.8426C0 24.1599 0.132 23.1906 2.12 22.7319C4.412 22.2026 6.54533 21.7386 5.51333 19.7866C2.36533 13.8439 4.67733 10.6666 8.00133 10.6666C10.2507 10.6666 11.9987 12.1199 11.9987 14.7999V14.7999ZM19.5867 16.6599C20.396 18.1879 20.1827 19.3479 19.8613 20.0506C18.9813 21.9773 16.5653 22.5346 14.008 23.1239C12.3387 23.5106 12.4453 23.9079 12.4453 26.6666H10.6707L10.6667 25.5666C10.6667 23.3252 10.8427 22.0306 13.492 21.4186C16.5493 20.7119 19.3947 20.0933 18.0173 17.4906C13.8213 9.56925 16.904 5.33325 21.3347 5.33325C25.5533 5.33325 28.4507 9.17192 25.3893 15.9999H23.412C24.9573 12.8999 25.316 10.2319 24.356 8.62259C23.1533 6.59992 19.5333 6.61059 18.34 8.59325C17.316 10.2906 17.772 13.2306 19.5867 16.6599V16.6599Z" fill="#003A69"/>
</svg>
