<svg width="32" height="32" viewBox="0 0 32 32" fill="none" xmlns="http://www.w3.org/2000/svg">
<path fill-rule="evenodd" clip-rule="evenodd" d="M25.3373 1.33325C24.0747 1.33325 22.8107 1.69059 21.712 2.40392C25.9387 4.02792 29.304 7.38925 30.9307 11.6159C31.6427 10.5186 31.9987 9.25592 31.9987 7.99325C31.9987 4.31192 29.0173 1.33325 25.3373 1.33325V1.33325ZM15.9987 27.9999C10.1173 27.9999 5.33067 23.2133 5.33067 17.3333C5.33067 11.4493 10.1173 6.66525 15.9987 6.66525C21.8813 6.66525 26.668 11.4493 26.668 17.3333C26.668 23.2133 21.8813 27.9999 15.9987 27.9999ZM29.3347 17.3333C29.3347 9.97059 23.368 3.99859 15.9987 3.99859C8.63467 3.99859 2.664 9.97059 2.664 17.3333C2.664 23.0879 6.78 30.6666 15.9987 30.6666C25.2387 30.6666 29.3347 23.0759 29.3347 17.3333ZM1.06933 11.6199C0.356 10.5213 0 9.25725 0 7.99592C0 4.31992 2.97733 1.33592 6.65467 1.33592C7.91867 1.33592 9.18267 1.69325 10.2827 2.40659C6.05333 4.02925 2.69333 7.39192 1.06933 11.6199ZM17.3307 17.3333V10.6666H14.6653V19.9973H22.664V17.3333H17.3307V17.3333Z" fill="#003A69"/>
</svg>
