<svg width="32" height="32" viewBox="0 0 32 32" fill="none" xmlns="http://www.w3.org/2000/svg">
<path d="M16.3387 29.272C15.748 29.312 15.1854 29.3333 14.676 29.3333C10.1267 29.3333 3.9987 27.9973 3.9987 25.848V23.128C6.92803 24.9853 11.3494 25.5533 14.7974 25.4987C14.6027 24.6453 14.5827 23.6453 14.684 22.8347H14.676C10.1267 22.8347 3.9987 21.5 3.9987 19.3507V16.1987C6.82003 17.9867 10.892 18.572 14.676 18.572L15.4347 18.5573L15.972 15.864C15.516 15.8893 15.076 15.9053 14.6747 15.9053C10.108 15.904 3.9987 14.5627 3.9987 12.4187V9.25733C6.82136 11.0467 10.892 11.6307 14.676 11.6307C18.448 11.6307 22.5107 11.0467 25.332 9.25733V12.42C25.332 13.5813 24.8107 14.2093 23.9987 14.668C25.5694 14.668 26.8107 15.044 27.9987 15.6107V5.81467C27.9987 1.33333 20.0454 0 14.676 0C9.0427 0 1.33203 1.33467 1.33203 5.81467V26.184C1.33203 30.6667 9.6107 32 14.676 32C15.9227 32 17.3667 31.9173 18.8347 31.7267C17.46 30.8053 16.984 30.2147 16.3387 29.272V29.272ZM14.676 2.66667C19.5267 2.66667 25.332 3.87867 25.332 5.81467C25.332 7.92267 18.5267 8.96267 14.676 8.96267C10.1267 8.964 3.9987 7.756 3.9987 5.81467C3.9987 3.70267 10.4147 2.66667 14.676 2.66667V2.66667ZM23.9987 22.6667H17.332L18.6654 16L20.5267 18.3267C21.5387 17.704 22.7227 17.3333 23.9987 17.3333C27.2334 17.3333 29.9254 19.6387 30.5334 22.6933L27.92 23.224C27.5587 21.3893 25.9387 20 23.9987 20C23.3547 20 22.7547 20.1667 22.2187 20.4413L23.9987 22.6667V22.6667ZM30.6654 25.3333H23.9987L25.7787 27.5587C25.2427 27.8333 24.6427 28 23.9987 28C22.0587 28 20.4387 26.6107 20.0774 24.776L17.464 25.3067C18.072 28.3613 20.764 30.6667 23.9987 30.6667C25.2747 30.6667 26.4587 30.296 27.4707 29.6733L29.332 32L30.6654 25.3333Z" fill="#003A69"/>
</svg>
