<svg width="16" height="16" viewBox="0 0 16 16" fill="none" xmlns="http://www.w3.org/2000/svg">
<g clip-path="url(#clip0_886_8258)">
<path fill-rule="evenodd" clip-rule="evenodd" d="M16.0007 16H1.33398V0H10.6673V5.33333H16.0007V16ZM5.33398 12.6667H3.33398V15.3333H5.33398V12.6667ZM8.66732 12.6667H6.66732V15.3333H8.66732V12.6667ZM14.0007 12.6667H12.0007V15.3333H14.0007V12.6667ZM4.00065 9.33333H2.66732V10.6667H4.00065V9.33333ZM9.33399 9.33333H8.00065V10.6667H9.33399V9.33333ZM6.66732 9.33333H5.33398V10.6667H6.66732V9.33333ZM12.6673 9.33333H11.334V10.6667H12.6673V9.33333ZM14.6673 9.33333H13.334V10.6667H14.6673V9.33333ZM4.00065 6.66667H2.66732V8H4.00065V6.66667ZM9.33399 6.66667H8.00065V8H9.33399V6.66667ZM6.66732 6.66667H5.33398V8H6.66732V6.66667ZM12.6673 6.66667H11.334V8H12.6673V6.66667ZM14.6673 6.66667H13.334V8H14.6673V6.66667ZM4.00065 4H2.66732V5.33333H4.00065V4ZM9.33399 4H8.00065V5.33333H9.33399V4ZM6.66732 4H5.33398V5.33333H6.66732V4ZM4.00065 1.33333H2.66732V2.66667H4.00065V1.33333ZM9.33399 1.33333H8.00065V2.66667H9.33399V1.33333ZM6.66732 1.33333H5.33398V2.66667H6.66732V1.33333Z" fill="#003A69"/>
</g>
<defs>
<clipPath id="clip0_886_8258">
<rect width="16" height="16" fill="white"/>
</clipPath>
</defs>
</svg>
