<svg width="32" height="32" viewBox="0 0 32 32" fill="none" xmlns="http://www.w3.org/2000/svg">
<path d="M15.9277 27.1333C18.485 27.1333 21.6783 25.9667 23.869 25.0093C24.2037 24.8627 24.5943 24.9507 24.837 25.228C25.081 25.5053 25.1223 25.9093 24.9423 26.2307L24.9383 26.2373C24.8463 26.4013 24.705 26.528 24.537 26.6027C22.2077 27.6213 18.7877 28.8613 15.9263 28.8613H15.8277C12.821 28.832 9.37301 27.5027 7.18101 26.4933C7.02234 26.42 6.88767 26.2973 6.79967 26.1427L6.79301 26.132C6.60767 25.8067 6.64901 25.3973 6.89567 25.1173C7.14234 24.8373 7.53834 24.7547 7.87567 24.908C9.95967 25.8667 13.1517 27.1053 15.845 27.1333H15.9277ZM15.917 23.912C11.3997 23.912 10.137 20.752 6.24901 21.364C6.00101 21.4027 5.78501 21.5507 5.65567 21.7667C5.52501 21.984 5.49701 22.2493 5.57567 22.4893L5.57834 22.4973C5.71301 22.8947 6.10501 23.136 6.50901 23.0693C9.70634 22.5533 10.7997 25.6387 15.917 25.6387C20.049 25.6387 23.461 22.8093 25.3503 22.8093C25.7263 22.8093 26.0983 22.592 26.2143 22.2133L26.2183 22.2C26.2983 21.9493 26.2583 21.6773 26.1103 21.4613C25.9637 21.2467 25.7237 21.104 25.4677 21.104C22.4023 21.1053 20.6757 23.912 15.917 23.912ZM15.9303 15.572C16.3997 15.572 16.7797 15.1853 16.7797 14.708V11.1653C16.7797 10.688 16.3997 10.3013 15.9303 10.3013C15.4623 10.3013 15.0823 10.688 15.0823 11.1653V14.708C15.0823 15.1853 15.4637 15.572 15.9303 15.572ZM11.6997 14.908V10.8293C11.6997 8.46 13.5917 6.53333 15.917 6.53333C18.2423 6.53333 20.1343 8.46 20.1343 10.8293V14.908C20.1343 17.2773 18.2423 19.204 15.917 19.204C13.5917 19.204 11.6997 17.2773 11.6997 14.908ZM13.3957 14.908C13.3957 16.3267 14.525 17.476 15.9183 17.476C17.3103 17.476 18.4397 16.3267 18.4397 14.908V10.8293C18.4397 9.41067 17.3103 8.26133 15.9183 8.26133C14.525 8.26133 13.3957 9.41067 13.3957 10.8293V14.908ZM12.5037 29.8133C12.0863 29.708 11.657 29.9373 11.505 30.348C11.3557 30.7587 11.5277 31.2187 11.9103 31.42L11.9903 31.4613C13.241 31.784 14.5557 32 15.8357 32C17.1597 32 18.5357 31.776 19.8543 31.4413L19.9317 31.4027C20.3157 31.204 20.493 30.7427 20.3437 30.332C20.1943 29.92 19.7637 29.688 19.345 29.7933C18.1823 30.0827 16.9823 30.2747 15.837 30.2747C14.709 30.2733 13.557 30.08 12.5037 29.8133ZM15.917 22.472C14.329 22.472 13.097 21.8387 12.1063 21.332C11.3757 20.9573 10.745 20.6333 10.157 20.6333C9.68767 20.6333 9.30767 20.2467 9.30767 19.7693C9.30767 19.292 9.68767 18.9053 10.157 18.9053C11.149 18.9053 12.0223 19.3547 12.869 19.7893C13.7863 20.26 14.7317 20.7453 15.917 20.7453C17.457 20.7453 18.333 20.2347 19.177 19.7413C19.8797 19.3307 20.6077 18.9067 21.5663 18.9067C22.0357 18.9067 22.4157 19.2933 22.4157 19.7707C22.4157 20.248 22.0357 20.6347 21.5663 20.6347C21.0583 20.6347 20.6237 20.8893 20.021 21.2413C19.0823 21.788 17.9117 22.472 15.917 22.472ZM22.4543 17.4787C21.985 17.4787 21.6063 17.092 21.6063 16.6147V10.5493C21.6063 7.44 18.969 4.90933 15.917 4.90933C12.9157 4.90933 10.2277 7.576 10.2277 10.7307V16.6147C10.2277 17.092 9.84767 17.4787 9.37967 17.4787C8.91034 17.4787 8.53034 17.092 8.53034 16.6147V10.7307C8.53034 8.76 9.27967 6.88267 10.6397 5.444C12.0183 3.98533 13.9917 3.18133 15.9157 3.18133C19.9037 3.18133 23.2997 6.48667 23.2997 10.5493V16.6147C23.3023 17.092 22.9223 17.4787 22.4543 17.4787ZM26.6663 18.6667V11.4027C26.6663 4.796 22.045 0 15.8917 0C12.6863 0 9.85301 1.14133 7.98634 3.30133C6.25034 5.31067 5.33301 8.044 5.33301 11.2053V18.6667C5.33301 19.144 5.71301 19.5307 6.18101 19.5307C6.65034 19.5307 7.03034 19.144 7.03034 18.6667V11.2053C7.03034 5.448 10.601 1.728 15.8917 1.728C21.0637 1.728 24.9703 5.79733 24.9703 11.4027V18.6667C24.9703 19.144 25.3503 19.5307 25.8197 19.5307C26.2863 19.5307 26.6663 19.144 26.6663 18.6667Z" fill="#003A69"/>
</svg>
