<svg width="31" height="30" viewBox="0 0 31 30" fill="none" xmlns="http://www.w3.org/2000/svg">
<path d="M15.4324 2.70375C19.4374 2.70375 19.9124 2.71875 21.4949 2.79125C25.5599 2.97625 27.4586 4.905 27.6436 8.94C27.7161 10.5212 27.7299 10.9963 27.7299 15.0013C27.7299 19.0075 27.7149 19.4813 27.6436 21.0625C27.4574 25.0938 25.5636 27.0262 21.4949 27.2112C19.9124 27.2837 19.4399 27.2988 15.4324 27.2988C11.4274 27.2988 10.9524 27.2837 9.37112 27.2112C5.29612 27.025 3.40737 25.0875 3.22237 21.0613C3.14987 19.48 3.13487 19.0062 3.13487 15C3.13487 10.995 3.15112 10.5213 3.22237 8.93875C3.40862 4.905 5.30237 2.975 9.37112 2.79C10.9536 2.71875 11.4274 2.70375 15.4324 2.70375V2.70375ZM15.4324 0C11.3586 0 10.8486 0.0175 9.24862 0.09C3.80112 0.34 0.773623 3.3625 0.523623 8.815C0.449873 10.4163 0.432373 10.9262 0.432373 15C0.432373 19.0738 0.449873 19.585 0.522373 21.185C0.772373 26.6325 3.79487 29.66 9.24737 29.91C10.8486 29.9825 11.3586 30 15.4324 30C19.5061 30 20.0174 29.9825 21.6174 29.91C27.0599 29.66 30.0949 26.6375 30.3411 21.185C30.4149 19.585 30.4324 19.0738 30.4324 15C30.4324 10.9262 30.4149 10.4162 30.3424 8.81625C30.0974 3.37375 27.0711 0.34125 21.6186 0.09125C20.0174 0.0175 19.5061 0 15.4324 0V0ZM15.4324 7.2975C11.1786 7.2975 7.72987 10.7462 7.72987 15C7.72987 19.2538 11.1786 22.7038 15.4324 22.7038C19.6861 22.7038 23.1349 19.255 23.1349 15C23.1349 10.7462 19.6861 7.2975 15.4324 7.2975ZM15.4324 20C12.6711 20 10.4324 17.7625 10.4324 15C10.4324 12.2387 12.6711 10 15.4324 10C18.1936 10 20.4324 12.2387 20.4324 15C20.4324 17.7625 18.1936 20 15.4324 20ZM23.4399 5.19375C22.4449 5.19375 21.6386 6 21.6386 6.99375C21.6386 7.9875 22.4449 8.79375 23.4399 8.79375C24.4336 8.79375 25.2386 7.9875 25.2386 6.99375C25.2386 6 24.4336 5.19375 23.4399 5.19375Z" fill="white"/>
</svg>
