<svg width="32" height="32" viewBox="0 0 32 32" fill="none" xmlns="http://www.w3.org/2000/svg">
<path d="M18.2294 25.116L15.7667 26.6693C15.668 25.708 15.2894 24.8147 14.6654 24.072C14.04 23.3293 6.51203 14.2373 4.6347 11.8347C4.00936 11.0333 3.86803 10.1733 4.24136 9.412C4.5987 8.68 5.36403 8.188 6.14803 8.188C7.37336 8.188 8.02536 9.06133 8.21336 9.808C8.4267 10.6627 8.1667 11.4493 7.3827 12.0547L9.1547 14.22L17.272 9.59067L19.6174 12.3053C20.3694 11.7627 21.208 11.332 22.1134 11.052C21.1414 9.932 20.244 8.89867 19.64 8.21067C21.456 6.79333 21.9587 4.268 20.7894 2.27467C19.9654 0.870668 18.444 1.06789e-06 16.8187 1.06789e-06C15.2347 1.06789e-06 15.7614 -0.0213324 4.06536 5.96667C2.42003 6.75467 1.33203 8.34933 1.33203 10.236C1.33203 11.396 1.7427 12.5773 2.51736 13.552C4.42003 15.944 12.5987 25.7987 12.672 25.8947C13.1667 26.552 13.2414 27.3867 12.872 28.1253C12.5027 28.8653 11.7894 29.3067 10.9667 29.3067C9.74136 29.3067 9.08937 28.4333 8.90136 27.6853C8.69337 26.8467 8.91737 26.0747 9.7067 25.48L8.00403 23.42C6.90803 24.3067 6.30136 25.4147 6.16803 26.676C5.8587 29.616 8.20136 32 10.9854 32C11.78 32 12.7334 31.764 13.44 31.32L20.4494 26.8987C19.6134 26.4307 18.8654 25.8253 18.2294 25.116ZM16.0254 2.86933C16.276 2.75333 16.556 2.69067 16.8374 2.69067C17.5467 2.69067 18.1667 3.06533 18.4947 3.69333C18.9107 4.488 18.796 5.652 17.764 6.24267L10.968 10.0933C10.9 8.64134 10.196 7.31867 9.02803 6.45067L16.0254 2.86933ZM24.6654 13.3333C21.3507 13.3333 18.6654 16.02 18.6654 19.3333C18.6654 22.6467 21.3507 25.3333 24.6654 25.3333C27.9774 25.3333 30.6654 22.6467 30.6654 19.3333C30.6654 16.02 27.9774 13.3333 24.6654 13.3333ZM24.04 21.9787L21.7894 19.796L22.716 18.8667L24.0387 20.12L26.8587 17.228L27.788 18.156L24.04 21.9787Z" fill="#003A69"/>
</svg>
