<svg width="33" height="30" viewBox="0 0 33 30" fill="none" xmlns="http://www.w3.org/2000/svg">
<g clip-path="url(#clip0_713_17408)">
<rect x="1.93909" y="0.810242" width="28.3784" height="28.3784" rx="5" stroke="white" stroke-width="2"/>
<path d="M25.8139 23.2765H22.2666V16.6501C22.2666 12.6677 17.5369 12.9692 17.5369 16.6501V23.2765H13.9896V10.2697H17.5369V12.3567C19.1888 9.29893 25.8139 9.07308 25.8139 15.2844V23.2765Z" fill="white"/>
<path d="M11.6247 23.2765H8.07744V10.2697H11.6247V23.2765Z" fill="white"/>
<path d="M9.85109 8.77038C8.70886 8.77038 7.78184 7.83626 7.78184 6.68457C7.78184 5.53288 8.70886 4.59876 9.85109 4.59876C10.9933 4.59876 11.9203 5.53288 11.9203 6.68457C11.9203 7.83626 10.9945 8.77038 9.85109 8.77038Z" fill="white"/>
</g>
<defs>
<clipPath id="clip0_713_17408">
<path d="M0 4C0 1.79086 1.79086 0 4 0H28.4324C30.6416 0 32.4324 1.79086 32.4324 4V26C32.4324 28.2091 30.6416 30 28.4324 30H4C1.79086 30 0 28.2091 0 26V4Z" fill="white"/>
</clipPath>
</defs>
</svg>
