<svg width="32" height="32" viewBox="0 0 32 32" fill="none" xmlns="http://www.w3.org/2000/svg">
<path d="M17.3333 25.3333H14.6667V27.9999H9.33333V30.6666H22.6667V27.9999H17.3333V25.3333ZM29.3333 27.9999H24V30.6666H29.3333V27.9999ZM8 27.9999H2.66667V30.6666H8V27.9999ZM29.3333 14.6666V19.9999H2.66667V14.6666H29.3333ZM32 11.9999H0V22.6666H32V11.9999ZM4 18.6666L5.15067 15.9999H6.85067L5.7 18.6666H4V18.6666ZM6.75467 18.6666L7.90533 15.9999H9.60533L8.45467 18.6666H6.75467V18.6666ZM9.51067 18.6666L10.6613 15.9999H12.3613L11.2093 18.6666H9.51067ZM12.2653 18.6666L13.416 15.9999H15.1147L13.964 18.6666H12.2653V18.6666ZM16.72 18.6666H15.02L16.172 15.9999H17.872L16.72 18.6666ZM26.6667 18.6666C25.9307 18.6666 25.3333 18.0693 25.3333 17.3333C25.3333 16.5973 25.9307 15.9999 26.6667 15.9999C27.4027 15.9999 28 16.5973 28 17.3333C28 18.0693 27.4027 18.6666 26.6667 18.6666ZM5.87067 10.6666H2.66667L8 1.33325H24L29.3333 10.6666H26.1293L22.5733 3.99992H9.42667L5.87067 10.6666Z" fill="#003A69"/>
</svg>
