<svg width="40" height="40" viewBox="0 0 40 40" fill="none" xmlns="http://www.w3.org/2000/svg">
<path d="M6.87581 8.43372H8.33415L6.87581 11.3021H5.41748L6.87581 8.43372Z" fill="#003A69"/>
<path d="M9.79134 8.43372H11.2497L9.79134 11.3021H8.33301L9.79134 8.43372Z" fill="#003A69"/>
<path d="M14.1667 8.43372H12.7083L11.25 11.3021H12.7083L14.1667 8.43372Z" fill="#003A69"/>
<path d="M15.6248 8.43372H17.0832L15.6248 11.3021H14.1665L15.6248 8.43372Z" fill="#003A69"/>
<path d="M20.0002 8.43372H18.5418L17.0835 11.3021H18.5418L20.0002 8.43372Z" fill="#003A69"/>
<path d="M34.5837 9.86792C34.5837 10.66 33.9307 11.3021 33.1253 11.3021C32.3199 11.3021 31.667 10.66 31.667 9.86792C31.667 9.07583 32.3199 8.43372 33.1253 8.43372C33.9307 8.43372 34.5837 9.07583 34.5837 9.86792Z" fill="#003A69"/>
<path fill-rule="evenodd" clip-rule="evenodd" d="M1 5H39V14.5H1V5ZM2.5 13V6.5H37.5V13H2.5Z" fill="#003A69"/>
<path d="M6.87581 18.7598H8.33415L6.87581 21.6282H5.41748L6.87581 18.7598Z" fill="#003A69"/>
<path d="M11.2497 18.7598H9.79134L8.33301 21.6282H9.79134L11.2497 18.7598Z" fill="#003A69"/>
<path d="M12.7083 18.7598H14.1667L12.7083 21.6282H11.25L12.7083 18.7598Z" fill="#003A69"/>
<path d="M17.0832 18.7598H15.6248L14.1665 21.6282H15.6248L17.0832 18.7598Z" fill="#003A69"/>
<path d="M18.5418 18.7598H20.0002L18.5418 21.6282H17.0835L18.5418 18.7598Z" fill="#003A69"/>
<path d="M33.1253 21.6282C33.9307 21.6282 34.5837 20.9861 34.5837 20.194C34.5837 19.4019 33.9307 18.7598 33.1253 18.7598C32.3199 18.7598 31.667 19.4019 31.667 20.194C31.667 20.9861 32.3199 21.6282 33.1253 21.6282Z" fill="#003A69"/>
<path fill-rule="evenodd" clip-rule="evenodd" d="M1 16H39V24.5H1V16ZM2.5 23V17.5H37.5V23H2.5Z" fill="#003A69"/>
<path d="M8.33415 29.0861H6.87581L5.41748 31.9545H6.87581L8.33415 29.0861Z" fill="#003A69"/>
<path d="M9.79134 29.0861H11.2497L9.79134 31.9545H8.33301L9.79134 29.0861Z" fill="#003A69"/>
<path d="M14.1667 29.0861H12.7083L11.25 31.9545H12.7083L14.1667 29.0861Z" fill="#003A69"/>
<path d="M15.6248 29.0861H17.0832L15.6248 31.9545H14.1665L15.6248 29.0861Z" fill="#003A69"/>
<path d="M20.0002 29.0861H18.5418L17.0835 31.9545H18.5418L20.0002 29.0861Z" fill="#003A69"/>
<path d="M34.5837 30.5203C34.5837 31.3123 33.9307 31.9545 33.1253 31.9545C32.3199 31.9545 31.667 31.3123 31.667 30.5203C31.667 29.7282 32.3199 29.0861 33.1253 29.0861C33.9307 29.0861 34.5837 29.7282 34.5837 30.5203Z" fill="#003A69"/>
<path fill-rule="evenodd" clip-rule="evenodd" d="M1 35H39V26H1V35ZM37.5 27.5V33.5H2.5V27.5H37.5Z" fill="#003A69"/>
</svg>
