<svg width="32" height="32" viewBox="0 0 32 32" fill="none" xmlns="http://www.w3.org/2000/svg">
<g clip-path="url(#clip0_906_6694)">
<path d="M14.6667 8V18.6667H24V16H17.3333V8H14.6667ZM29.1387 18.244L31.8027 18.456C31.6267 19.5947 31.3347 20.6907 30.9333 21.736L28.5333 20.5293C28.8 19.7947 29.004 19.032 29.1387 18.244ZM25.7413 28.6787L23.8573 26.7547C23.2093 27.2293 22.516 27.6453 21.784 27.9987L22.676 30.5307C23.7707 30.028 24.7973 29.4053 25.7413 28.6787ZM27.376 22.9333C26.9293 23.6613 26.4173 24.3427 25.844 24.9707L27.716 26.8813C28.4933 26.0453 29.1813 25.1267 29.768 24.1373L27.376 22.9333ZM0 16C0 24.836 7.16667 32 16.0053 32C17.4467 32 18.8373 31.792 20.1653 31.4347L19.2787 28.9093C18.2293 29.176 17.136 29.3333 16.0053 29.3333C8.65067 29.3333 2.668 23.352 2.668 16C2.668 8.648 8.65067 2.66667 16.0053 2.66667C18.9853 2.66667 21.7293 3.65867 23.9507 5.31867L21.2173 8.05067L30.5707 9.856L28.764 0.505333L25.852 3.416C23.1373 1.28533 19.7253 0 16.0053 0C7.16667 0 0 7.164 0 16H0ZM31.6973 12.8547H28.9293C29.1467 13.736 29.2773 14.6467 29.3133 15.584L32 15.7987C31.9867 14.792 31.8867 13.8067 31.6973 12.8547Z" fill="#003A69"/>
</g>
<defs>
<clipPath id="clip0_906_6694">
<rect width="32" height="32" fill="white"/>
</clipPath>
</defs>
</svg>
