<svg width="32" height="32" viewBox="0 0 32 32" fill="none" xmlns="http://www.w3.org/2000/svg">
<path d="M16 11.9999C16.736 11.9999 17.3333 12.5986 17.3333 13.3333C17.3333 14.0679 16.736 14.6666 16 14.6666C15.264 14.6666 14.6667 14.0679 14.6667 13.3333C14.6667 12.5986 15.264 11.9999 16 11.9999ZM16 9.33325C13.7907 9.33325 12 11.1239 12 13.3333C12 15.5426 13.7907 17.3333 16 17.3333C18.2093 17.3333 20 15.5426 20 13.3333C20 11.1239 18.2093 9.33325 16 9.33325ZM4 14.6666C1.79067 14.6666 0 16.4573 0 18.6666C0 20.8759 1.79067 22.6666 4 22.6666C6.20933 22.6666 8 20.8759 8 18.6666C8 16.4573 6.20933 14.6666 4 14.6666ZM28 14.6666C25.7907 14.6666 24 16.4573 24 18.6666C24 20.8759 25.7907 22.6666 28 22.6666C30.2093 22.6666 32 20.8759 32 18.6666C32 16.4573 30.2093 14.6666 28 14.6666ZM16 6.66659C16.4573 6.66659 16.9027 6.71325 17.3333 6.80125V2.66659C17.3333 1.93059 16.7373 1.33325 16 1.33325C15.2627 1.33325 14.6667 1.93059 14.6667 2.66659V6.80125C15.0973 6.71325 15.5427 6.66659 16 6.66659ZM28 11.9999C28.4573 11.9999 28.9027 12.0466 29.3333 12.1346V2.66659C29.3333 1.93059 28.7373 1.33325 28 1.33325C27.2627 1.33325 26.6667 1.93059 26.6667 2.66659V12.1346C27.0973 12.0466 27.5427 11.9999 28 11.9999ZM28 25.3333C27.5427 25.3333 27.0973 25.2866 26.6667 25.1986V29.3333C26.6667 30.0693 27.2627 30.6666 28 30.6666C28.7373 30.6666 29.3333 30.0693 29.3333 29.3333V25.1986C28.9027 25.2866 28.4573 25.3333 28 25.3333ZM4 11.9999C4.45733 11.9999 4.90267 12.0466 5.33333 12.1346V2.66659C5.33333 1.93059 4.73733 1.33325 4 1.33325C3.26267 1.33325 2.66667 1.93059 2.66667 2.66659V12.1346C3.09733 12.0466 3.54267 11.9999 4 11.9999ZM16 19.9999C15.5427 19.9999 15.0973 19.9533 14.6667 19.8653V29.3333C14.6667 30.0693 15.2627 30.6666 16 30.6666C16.7373 30.6666 17.3333 30.0693 17.3333 29.3333V19.8653C16.9027 19.9533 16.4573 19.9999 16 19.9999V19.9999ZM4 25.3333C3.54267 25.3333 3.09733 25.2866 2.66667 25.1986V29.3333C2.66667 30.0693 3.26267 30.6666 4 30.6666C4.73733 30.6666 5.33333 30.0693 5.33333 29.3333V25.1986C4.90267 25.2866 4.45733 25.3333 4 25.3333Z" fill="#003A69"/>
</svg>
