<svg width="32" height="32" viewBox="0 0 32 32" fill="none" xmlns="http://www.w3.org/2000/svg">
<g clip-path="url(#clip0_906_6687)">
<path d="M11.4693 4.93333C9.93067 7.516 10.6227 11.9027 13.368 16.9667C14.608 19.2493 14.2973 20.9933 13.8187 22.0533C12.5093 24.9573 8.91867 25.7853 5.11867 26.6613C2.5 27.2667 2.66667 27.8213 2.66667 32H0.00666667L0 30.3453C0 26.9853 0.265333 25.0453 4.23733 24.128C8.724 23.092 13.1547 22.164 11.024 18.2373C4.71333 6.59867 9.224 0 16 0C20.428 0 23.96 2.82267 23.96 8.22267C23.96 12.9627 21.3613 17.3333 20.7827 18.6667H17.9627C18.4853 16.6187 21.2947 12.8453 21.2947 8.21067C21.2947 1.34 13.472 1.564 11.4693 4.93333ZM32 26C32 29.3133 29.3107 32 26 32C22.6893 32 20 29.3133 20 26C20 22.6867 22.6893 20 26 20C29.3107 20 32 22.6867 32 26ZM29.3333 25.3333H26.6667V22.6667H25.3333V25.3333H22.6667V26.6667H25.3333V29.3333H26.6667V26.6667H29.3333V25.3333Z" fill="#003A69"/>
</g>
<defs>
<clipPath id="clip0_906_6687">
<rect width="32" height="32" fill="white"/>
</clipPath>
</defs>
</svg>
