<svg width="32" height="32" viewBox="0 0 32 32" fill="none" xmlns="http://www.w3.org/2000/svg">
<path fill-rule="evenodd" clip-rule="evenodd" d="M16 0C24.8307 0 32 7.16933 32 16C32 24.8307 24.8307 32 16 32C7.16933 32 0 24.8307 0 16C0 7.16933 7.16933 0 16 0ZM16 2.66667C23.3587 2.66667 29.3333 8.64133 29.3333 16C29.3333 23.3587 23.3587 29.3333 16 29.3333C8.64133 29.3333 2.66667 23.3587 2.66667 16C2.66667 8.64133 8.64133 2.66667 16 2.66667ZM18.6667 18.6667V14.6667L25.3333 20L18.6667 25.3333V21.3333H6.66667V18.6667H18.6667ZM13.3333 10.6667V6.66667L6.66667 12L13.3333 17.3333V13.3333H25.3333V10.6667H13.3333Z" fill="#003A69"/>
</svg>
