<svg width="32" height="32" viewBox="0 0 32 32" fill="none" xmlns="http://www.w3.org/2000/svg">
<path d="M27.168 14.776C27.088 17.348 24.196 18.944 15.956 18.944C7.6987 18.944 4.81203 17.34 4.74403 14.7587C6.7547 14.7587 10.5827 12.148 15.956 12.148C21.192 12.1467 25.4814 14.776 27.168 14.776ZM15.9574 20.2293C13.208 20.2293 10.9707 20.0547 9.1867 19.7C9.26936 20.44 9.81203 24.1293 12.3987 24.1293C14.6934 24.1293 14.6294 22.3747 16.0267 22.3747C17.4227 22.3747 17.5854 24.1293 19.8294 24.1293C22.616 24.1293 23.1094 20.0453 23.1547 19.6107C21.3054 20.0253 18.9294 20.2293 15.9574 20.2293V20.2293ZM24.4974 19.2413C24.444 22.136 23.5414 25.6 21.4574 27.824C20.06 29.316 18.288 30.0733 16.192 30.0733C14.092 30.0733 12.328 29.3627 10.9507 27.964C8.75603 25.7333 7.88136 22.1707 7.75603 19.3493C7.0587 19.1387 6.40936 18.8867 5.77736 18.512C5.75603 21.808 6.71603 26.4347 9.5387 29.304C11.3 31.092 13.5387 32 16.192 32C18.8214 32 21.1414 31.0067 22.9027 29.1293C25.744 26.0987 26.5827 21.5573 26.4507 18.3147C25.8387 18.7253 25.192 19.0093 24.4974 19.2413V19.2413ZM16.1814 4.596L15.764 5.42667L14.8294 5.56L15.5054 6.20667L15.3467 7.12L16.1814 6.688L17.0174 7.12L16.8574 6.20667L17.5334 5.56L16.6 5.42667L16.1814 4.596ZM25.796 4.32133C25.796 4.32133 22.4134 3.40667 15.9987 0C9.5827 3.40667 6.20136 4.32133 6.20136 4.32133C6.20136 4.32133 4.4747 7.52133 1.33203 11.0093L4.35336 13.5533C6.39736 13.3333 10.54 10.7773 15.9987 10.7773C21.4574 10.7773 25.6 13.3333 27.644 13.5547L30.6654 11.0093C27.5227 7.52133 25.796 4.32133 25.796 4.32133V4.32133ZM17.336 8.60667C16.6347 8.78133 16.5294 8.85733 16.1694 9.14267C15.8107 8.85733 15.704 8.78133 15.0027 8.60667C14.028 8.36267 13.468 7.732 13.468 6.87467C13.468 6.396 13.664 5.95333 13.892 5.34667C14.148 4.66267 14.0027 4.44667 13.7334 4.17067L13.5054 3.936L14.8214 2.844C14.952 2.97467 15.1347 3.21467 15.4694 3.21467C15.8 3.21467 16.024 2.98133 16.1734 2.85333C16.3094 2.97333 16.5307 3.21467 16.8707 3.21467C17.2014 3.21467 17.3787 2.98667 17.524 2.84L18.8347 3.93733L18.6054 4.172C18.336 4.448 18.1907 4.664 18.4467 5.348C18.6734 5.95467 18.8707 6.396 18.8707 6.876C18.8707 7.73067 18.3107 8.36267 17.336 8.60667V8.60667Z" fill="#003A69"/>
</svg>
