<svg width="40" height="40" viewBox="0 0 40 40" fill="none" xmlns="http://www.w3.org/2000/svg">
<path d="M36.9263 2.89312C36.3412 2.85345 35.7689 2.83362 35.2065 2.83362C23.0232 2.83362 16.0857 12.1227 13.5627 19.597L20.2592 26.2936C27.9489 23.5396 37 16.8586 37 4.80562C37 4.18228 36.9759 3.54478 36.9263 2.89312ZM20.9506 22.9786L16.8663 18.8944C18.5961 14.8441 23.5119 6.22228 34.1482 5.69103C33.7927 13.8723 28.4235 19.7614 20.9506 22.9786ZM28.7012 25.1575C27.9263 25.6859 27.157 26.1633 26.3948 26.5897C26.1299 27.8519 25.457 29.1992 24.4809 30.3467C24.4781 29.5307 24.2514 28.709 23.8533 27.8845C23.1521 28.2033 22.4848 28.4767 21.8502 28.7175C22.7852 31.1386 21.8332 32.9264 20.5539 34.6024C22.3899 34.4635 24.3166 33.5654 25.8352 32.0453C27.4715 30.409 28.6218 28.046 28.7012 25.1575ZM11.9562 15.993C11.1359 15.5964 10.3157 15.3725 9.5025 15.3683C10.6401 14.4035 11.9732 13.7349 13.2227 13.4629C13.6675 12.6809 14.1676 11.9088 14.6946 11.1495C11.806 11.2274 9.44158 12.3777 7.80392 14.0154C6.28667 15.5326 5.38708 17.4621 5.24825 19.2967C6.92558 18.016 8.71342 17.064 11.1345 18.0019C11.3796 17.3346 11.653 16.6645 11.9562 15.993ZM22.9183 16.9323C22.3644 16.3784 22.3644 15.483 22.9183 14.9291C23.4722 14.3752 24.3676 14.3752 24.9215 14.9291C25.4754 15.4845 25.4754 16.3798 24.9215 16.9337C24.3676 17.4876 23.4708 17.4862 22.9183 16.9323ZM29.9294 9.91837C28.8244 8.81337 27.0295 8.81337 25.9231 9.91837C24.8167 11.0248 24.8167 12.8211 25.9231 13.9261C27.0295 15.0325 28.8244 15.0325 29.9308 13.9261C31.0358 12.8211 31.0358 11.0262 29.9294 9.91837ZM27.2264 12.6256C26.8397 12.2389 26.8397 11.6085 27.2264 11.2231C27.6103 10.8364 28.2422 10.8364 28.6289 11.2231C29.0142 11.6085 29.0128 12.2389 28.6289 12.6256C28.2407 13.011 27.6117 13.011 27.2264 12.6256ZM17.6682 27.7131C15.5545 33.1106 9.44725 36.5078 3 36.8336C3.31025 30.7575 6.76408 24.5426 12.4067 22.4502L13.5471 23.592C7.4115 27.495 6.95533 31.1655 6.93833 32.9066C8.73467 32.8854 12.6815 32.4193 16.5405 26.5826L17.6682 27.7131Z" fill="#003A69"/>
</svg>
