<svg width="32" height="32" viewBox="0 0 32 32" fill="none" xmlns="http://www.w3.org/2000/svg">
<g clip-path="url(#clip0_906_6603)">
<path d="M24 11.9999V7.99992C22.6667 7.99992 19.5893 7.74925 17.992 10.9546L12.368 22.2359C11.0147 24.9506 8.24267 26.6666 5.208 26.6666H0V23.9999H5.208C7.23067 23.9999 9.07867 22.8559 9.98133 21.0453L15.6053 9.76392C17.4133 6.13592 20.504 5.33325 24 5.33325V1.33325L32 6.66659L24 11.9999ZM11.3827 13.7653L12.872 10.7759C11.2253 7.47058 9.00667 5.33325 5.208 5.33325H0V7.99992H5.208C9.03733 7.99992 10.0667 11.1239 11.3827 13.7653ZM32 25.3333L24 19.9999V23.9999C18.96 23.9999 18.6413 22.3493 16.592 18.2373L15.1013 21.2253C16.4627 23.9573 17.9013 26.6666 24 26.6666V30.6666L32 25.3333Z" fill="#003A69"/>
</g>
<defs>
<clipPath id="clip0_906_6603">
<rect width="32" height="32" fill="white"/>
</clipPath>
</defs>
</svg>
