<svg width="24" height="25" viewBox="0 0 24 25" fill="none" xmlns="http://www.w3.org/2000/svg">
<path d="M22.1556 2.2359C21.8046 2.2121 21.4612 2.2002 21.1237 2.2002C13.8137 2.2002 9.65126 7.77365 8.13741 12.2582L12.1554 16.2762C16.7692 14.6238 22.1998 10.6152 22.1998 3.3834C22.1998 3.0094 22.1854 2.6269 22.1556 2.2359V2.2359ZM12.5702 14.2872L10.1196 11.8366C11.1575 9.40649 14.107 4.2334 20.4888 3.91465C20.2754 8.8234 17.0539 12.3568 12.5702 14.2872V14.2872ZM17.2205 15.5945C16.7556 15.9115 16.294 16.198 15.8367 16.4538C15.6778 17.2112 15.274 18.0195 14.6884 18.708C14.6867 18.2184 14.5507 17.7254 14.3118 17.2307C13.8911 17.422 13.4907 17.586 13.1099 17.7305C13.6709 19.1832 13.0997 20.2559 12.3322 21.2614C13.4338 21.1781 14.5898 20.6392 15.501 19.7272C16.4827 18.7454 17.1729 17.3276 17.2205 15.5945V15.5945ZM7.17351 10.0958C6.68136 9.85784 6.18921 9.72354 5.70131 9.72099C6.38386 9.14214 7.18371 8.74094 7.93341 8.57774C8.20031 8.10854 8.50036 7.64529 8.81656 7.1897C7.08341 7.23645 5.66476 7.92665 4.68215 8.90925C3.7718 9.8196 3.23205 10.9773 3.14875 12.078C4.15515 11.3096 5.22786 10.7384 6.68051 11.3011C6.82756 10.9008 6.99161 10.4987 7.17351 10.0958ZM13.7508 10.6594C13.4185 10.327 13.4185 9.78985 13.7508 9.4575C14.0832 9.12515 14.6204 9.12515 14.9527 9.4575C15.2851 9.7907 15.2851 10.3279 14.9527 10.6602C14.6204 10.9926 14.0823 10.9917 13.7508 10.6594V10.6594ZM17.9575 6.45105C17.2945 5.78805 16.2175 5.78805 15.5537 6.45105C14.8898 7.1149 14.8898 8.1927 15.5537 8.85569C16.2175 9.51954 17.2945 9.51954 17.9583 8.85569C18.6213 8.1927 18.6213 7.11575 17.9575 6.45105V6.45105ZM16.3357 8.0754C16.1036 7.84335 16.1036 7.4651 16.3357 7.2339C16.566 7.00185 16.9451 7.00185 17.1772 7.2339C17.4084 7.4651 17.4075 7.84335 17.1772 8.0754C16.9443 8.3066 16.5669 8.3066 16.3357 8.0754ZM10.6007 17.1279C9.33251 20.3664 5.66816 22.4047 1.7998 22.6002C1.98595 18.9545 4.05825 15.2256 7.44381 13.9701L8.12806 14.6552C4.44671 16.997 4.173 19.1993 4.1628 20.244C5.24061 20.2312 7.6087 19.9516 9.92411 16.4496L10.6007 17.1279Z" fill="white"/>
</svg>
