<svg width="24" height="25" viewBox="0 0 24 25" fill="none" xmlns="http://www.w3.org/2000/svg">
<g clip-path="url(#clip0_567_7563)">
<path d="M12 5.442C13.827 6.547 15.474 7.042 17 7.275V15.035C17 16.641 16.585 16.97 12 19.795V5.442ZM21 3.5V15.035C21 19.638 17.797 20.839 12 24.5C6.203 20.839 3 19.638 3 15.035V3.5C6.516 3.5 8.629 3.366 12 0.5C15.371 3.366 17.484 3.5 21 3.5ZM19 5.46C16.554 5.336 14.5 4.849 12 3.044C9.5 4.849 7.446 5.336 5 5.46V15.035C5 18.077 6.69 18.865 12 22.142C17.313 18.861 19 18.077 19 15.035V5.46Z" fill="#003A69"/>
</g>
<defs>
<clipPath id="clip0_567_7563">
<rect width="24" height="24" fill="white" transform="translate(0 0.5)"/>
</clipPath>
</defs>
</svg>
