<svg width="40" height="40" viewBox="0 0 40 40" fill="none" xmlns="http://www.w3.org/2000/svg">
<path d="M11.5986 28.4455C11.4505 27.4085 11.5986 25.2455 13.3764 24.89C15.5986 24.4455 19.1542 24.0011 18.2653 21.3344C17.3764 18.6678 14.7097 11.5566 20.4875 11.5566C25.1097 11.5566 23.5986 18.0752 22.2653 21.3344C22.1171 22.2233 22.9764 24.1789 27.5986 24.89C29.0604 25.1149 28.9319 28.0011 28.9319 28.4455" stroke="#003A69" stroke-width="2.5"/>
<path d="M2.69982 28.0691C2.58616 27.2736 2.69982 25.6142 4.0637 25.3414C5.76855 25.0004 8.49631 24.6595 7.81437 22.6136C7.13243 20.5678 5.08661 15.1123 9.51921 15.1123C13.0653 15.1123 11.906 20.1132 10.8831 22.6136" stroke="#003A69" stroke-width="2.5"/>
<path d="M37.66 28.0691C37.7737 27.2736 37.66 25.6142 36.2962 25.3414C34.5913 25.0004 31.8636 24.6595 32.5455 22.6136C33.2274 20.5678 35.2733 15.1123 30.8406 15.1123C27.2946 15.1123 28.4539 20.1132 29.4768 22.6136" stroke="#003A69" stroke-width="2.5"/>
</svg>
