<svg height="40px" viewBox="0 0 152 50" fill="none" xmlns="http://www.w3.org/2000/svg">
<g clip-path="url(#clip0_641_10823)">
<path fill-rule="evenodd" clip-rule="evenodd" d="M36.9847 44.6521L16.1147 23.8022L29.4521 10.4776L33.2466 14.2798L50.3108 31.3389L46.5162 35.1298L29.4408 18.082L23.7264 23.8022L40.7905 40.85L36.9847 44.6521Z" fill="#A1A1A1"/>
<path fill-rule="evenodd" clip-rule="evenodd" d="M21.7723 44.6523L0.902344 23.8024L21.7723 2.9411L25.5781 6.74329L8.51401 23.8024L25.5781 40.8501L21.7723 44.6523Z" fill="#A1A1A1"/>
<path fill-rule="evenodd" clip-rule="evenodd" d="M37.2555 3.21191L57.8545 23.8024L36.9845 44.6524L33.1899 40.8502L50.2541 23.8024L33.4497 7.0141L37.2555 3.21191Z" fill="#A1A1A1"/>
<path fill-rule="evenodd" clip-rule="evenodd" d="M83.6962 27.4707V31.5772L79.6022 27.4707H83.6962ZM83.6962 32.4459V43.8515H79.6473V31.5546H71.4029V43.8515H67.3652V27.4707H78.7338L83.6962 32.4459Z" fill="#A1A1A1"/>
<path fill-rule="evenodd" clip-rule="evenodd" d="M110.854 27.4707V43.7726H94.4106V33.9802H106.67V31.3177H94.4106V27.4707H110.854ZM106.67 40.1286V37.3082H98.5949V40.1286H106.67ZM131.223 43.8064H118.964V50H114.926V27.4707H131.223V43.8064ZM127.185 31.5546H118.964V39.7338H127.185V31.5546ZM151.704 43.8064H139.445V50H135.407V27.4707H151.704V43.8064ZM147.667 31.5546H139.445V39.7338H147.667V31.5546Z" fill="#A1A1A1"/>
<path fill-rule="evenodd" clip-rule="evenodd" d="M74.6623 9.44268V17.509H86.9218V21.7057H70.4668V5.29106H86.9218V9.44268H74.6623ZM107.471 5.40387V21.7396H91.0271V5.40387H107.471ZM103.287 9.47652H95.2227V17.6669H103.287V9.47652ZM128.11 0V21.7396H111.666V5.40387H123.926V0H128.11ZM123.926 17.6669V9.47652H115.693V17.6669H123.926ZM132.148 5.40387H148.592V15.1963H136.332V17.8587H148.592V21.7057H132.148V5.40387ZM136.332 11.8682H144.396V9.04782H136.332V11.8682Z" fill="#A1A1A1"/>
</g>
<defs>
<clipPath id="clip0_641_10823">
<rect width="150.802" height="50" fill="white" transform="translate(0.902344)"/>
</clipPath>
</defs>
</svg>
