<svg height="40px"  viewBox="0 0 198 50" fill="none" xmlns="http://www.w3.org/2000/svg">
<g clip-path="url(#clip0_689_16606)">
<path d="M19.3002 44.7693C20.7108 44.7693 22.1022 44.8573 23.4788 44.7502C26.0358 44.5508 27.9204 43.1986 29.1899 41.017C33.482 33.6441 37.7497 26.2562 42.0269 18.8747C43.5319 16.2774 45.0389 13.6801 46.5788 11.0245C47.6882 12.6068 48.5313 14.2592 49.2111 15.9974C54.8894 30.5186 45.8248 46.778 30.4552 49.5588C23.4258 50.8304 16.9787 49.3371 11.1424 45.2105C10.6821 44.8849 10.5941 44.6558 10.9006 44.133C14.1756 38.5534 17.423 32.9568 20.6684 27.3602C21.5104 25.9094 22.5455 24.7078 24.2774 24.3175C24.9891 24.1574 25.7102 24.1118 26.4378 24.1149C28.1973 24.1234 29.9557 24.1149 31.7151 24.1319C32.0874 24.1362 32.344 24.0587 32.6124 23.7544C33.3017 22.9685 34.5203 22.9473 35.2733 23.643C36.004 24.3196 36.0708 25.5064 35.4186 26.2626C34.7462 27.0421 33.5552 27.1397 32.7608 26.445C32.5158 26.2308 32.2974 26.1024 31.958 26.1056C30.0235 26.1215 28.088 26.1321 26.1536 26.1056C24.4758 26.0823 23.3038 26.7695 22.4575 28.2511C19.4211 33.5635 16.3211 38.8397 13.2455 44.1298C12.8754 44.7661 12.8786 44.7693 13.6061 44.7704C14.4853 44.7714 15.3666 44.7438 16.2448 44.782C16.704 44.8022 16.949 44.6399 17.1749 44.2475C19.244 40.6554 21.3461 37.0824 23.411 33.4892C24.4142 31.7446 25.7739 30.5631 27.8674 30.4327C28.1251 30.4168 28.2418 30.246 28.3956 30.0912C29.174 29.3074 30.3619 29.282 31.1106 30.0233C31.8297 30.736 31.8572 31.8963 31.1732 32.6429C30.4594 33.4213 29.261 33.4669 28.4677 32.6938C28.2057 32.4382 27.9692 32.4043 27.6489 32.4573C26.477 32.6535 25.7675 33.4182 25.2065 34.3843C23.3028 37.6657 21.3917 40.9439 19.488 44.2263C19.4042 44.3716 19.2652 44.502 19.3013 44.7672L19.3002 44.7693Z" fill="#A1A1A1"/>
<path d="M38.8875 5.2879H36.8375C34.2211 5.2879 31.6036 5.30911 28.9872 5.2826C26.1364 5.2529 24.0387 6.57223 22.6419 8.94364C19.0349 15.0662 15.5001 21.2302 11.9377 27.3783C9.81552 31.0404 7.69546 34.7046 5.56904 38.3646C5.45026 38.5682 5.37708 38.8111 5.13952 38.9659C3.19552 36.1162 1.93133 32.9929 1.28651 29.6171C-0.982022 17.7325 5.78116 5.7153 17.2108 1.62049C25.5521 -1.36816 33.4129 -0.188822 40.6873 4.88171C41.1253 5.18715 41.1667 5.39608 40.893 5.85954C39.0169 9.03061 37.1238 12.1932 35.3431 15.4183C34.0567 17.7484 32.1837 18.8609 29.5419 18.7337C29.2343 18.7188 28.9257 18.7411 28.6181 18.7262C28.0444 18.6976 27.565 18.7623 27.0846 19.212C26.3634 19.8854 25.1883 19.6945 24.5509 18.9405C23.904 18.1769 23.9517 17.0728 24.6612 16.3739C25.3686 15.6761 26.5066 15.6114 27.2203 16.3135C27.5735 16.6603 27.9171 16.7716 28.3774 16.7483C28.9257 16.7207 29.4761 16.7334 30.0266 16.7356C31.5495 16.7409 32.6546 16.0854 33.4108 14.7481C34.7503 12.3809 36.1386 10.0424 37.5046 7.69112C37.9521 6.9201 38.3944 6.14589 38.8875 5.28896V5.2879Z" fill="#A1A1A1"/>
<path d="M76.2031 16.4895C75.6421 18.5958 75.1288 20.5175 74.6176 22.4393C74.4659 23.0109 74.3079 23.5815 74.1743 24.1574C74.0693 24.6113 73.8328 24.8107 73.3418 24.7926C72.4413 24.7587 71.5388 24.7842 70.6373 24.7831C69.8642 24.782 69.8313 24.7428 70.0275 24.0036C71.1358 19.8324 72.2462 15.6623 73.3555 11.4911C73.5072 10.9195 73.6779 10.3521 73.8073 9.77514C73.8996 9.36258 74.1181 9.18759 74.5423 9.19501C75.4873 9.21092 76.4333 9.21516 77.3782 9.19289C77.7961 9.18335 78.0018 9.37319 78.1768 9.72741C79.5344 12.4796 80.9078 15.2243 82.277 17.9701C82.6132 18.6446 82.6375 18.6478 83.1805 18.1493C86.2731 15.3134 89.37 12.4817 92.4519 9.63302C92.7839 9.32652 93.1201 9.18335 93.5676 9.19289C94.4691 9.2141 95.3706 9.20456 96.2721 9.19713C96.6677 9.19395 96.832 9.30213 96.7133 9.74544C95.4194 14.5699 94.1372 19.3976 92.8624 24.2274C92.7531 24.642 92.5315 24.7969 92.1136 24.7895C91.1464 24.7725 90.1781 24.7619 89.2119 24.7926C88.6583 24.8107 88.5883 24.6039 88.7198 24.1202C89.3912 21.6491 90.0402 19.1717 90.7455 16.5097C90.4029 16.8141 90.1855 17.0018 89.9734 17.1959C87.9658 19.037 85.9518 20.8728 83.9569 22.7267C83.4945 23.1562 83.0077 23.3874 82.3629 23.3513C81.6396 23.311 80.911 23.3195 80.1866 23.3492C79.6446 23.3715 79.3371 23.136 79.1165 22.662C78.1832 20.6575 77.2308 18.6616 76.2031 16.4885V16.4895Z" fill="#A1A1A1"/>
<path d="M145.766 24.7842C144.316 24.7842 142.864 24.7884 141.413 24.7831C138.924 24.7736 137.417 22.9536 137.996 20.5472C138.57 18.162 139.202 15.7896 139.893 13.4362C140.645 10.876 143.062 9.14517 145.735 9.14199C148.571 9.13881 151.408 9.13351 154.243 9.14411C156.055 9.15154 157.267 10.0148 157.658 11.5558C157.948 12.6959 157.604 13.7713 157.271 14.8393C157.189 15.1034 156.938 15.1554 156.676 15.1543C155.665 15.149 154.654 15.1447 153.642 15.1554C153.184 15.1607 153.096 14.9952 153.195 14.5466C153.415 13.5391 152.901 12.9377 151.859 12.9335C149.88 12.925 147.901 12.9239 145.923 12.9335C144.85 12.9388 144.026 13.5603 143.74 14.5933C143.301 16.1767 142.874 17.7633 142.465 19.3541C142.187 20.4348 142.684 21.0764 143.792 21.0818C145.748 21.0913 147.705 21.0892 149.662 21.0818C150.736 21.0786 151.602 20.4836 151.887 19.4686C152.027 18.9691 152.261 18.7909 152.762 18.8037C153.729 18.8291 154.696 18.8111 155.664 18.8111C155.946 18.8111 156.208 18.8196 156.131 19.2332C155.537 22.4743 153.416 24.344 150.839 24.7163C149.524 24.9061 148.162 24.7704 146.822 24.781C146.47 24.7842 146.119 24.781 145.766 24.781V24.7842Z" fill="#A1A1A1"/>
<path d="M169.912 9.14198C172.438 9.14198 174.965 9.14092 177.492 9.14198C178.255 9.14198 178.289 9.19289 178.096 9.93528C177.892 10.719 177.679 11.5007 177.487 12.2876C177.377 12.7362 177.142 12.9356 176.653 12.9282C175.027 12.9048 173.401 12.9367 171.775 12.9091C171.239 12.8995 171.002 13.0894 170.867 13.6112C169.978 17.0442 169.04 20.4645 168.161 23.8996C167.988 24.5752 167.701 24.8478 166.99 24.7969C166.16 24.7364 165.32 24.7545 164.487 24.7926C163.904 24.8191 163.762 24.6558 163.92 24.0746C164.845 20.6734 165.738 17.2637 166.643 13.8583C166.809 13.2325 166.569 12.9197 165.921 12.9197C164.383 12.9197 162.844 12.9027 161.308 12.9282C160.771 12.9367 160.647 12.7383 160.782 12.259C161.002 11.4794 161.24 10.7031 161.406 9.91088C161.527 9.33288 161.802 9.12183 162.399 9.12819C164.903 9.1547 167.408 9.13986 169.913 9.13986L169.912 9.14198Z" fill="#A1A1A1"/>
<path d="M64.8967 24.7842C64.4353 24.7842 63.9719 24.7609 63.5126 24.7906C62.9898 24.8245 62.854 24.6463 62.9951 24.1362C63.4967 22.3205 63.9687 20.4974 64.4523 18.6775C65.235 15.7355 66.0315 12.7967 66.7908 9.84942C66.9213 9.34353 67.1599 9.17066 67.6594 9.18339C68.6256 9.20884 69.5939 9.19824 70.5611 9.18763C70.9694 9.18339 71.1168 9.31702 71.0044 9.74018C69.7148 14.5647 68.4326 19.3902 67.1556 24.2168C67.0496 24.6156 66.8438 24.8107 66.4133 24.7906C65.9084 24.7672 65.4025 24.7853 64.8967 24.7853V24.7842Z" fill="#A1A1A1"/>
<path d="M123.406 35.4937C123.406 34.4628 123.406 33.4309 123.406 32.4001C123.406 32.1561 123.371 31.9027 123.753 31.9154C124.893 31.9546 126.039 31.8252 127.172 32.031C127.237 32.0426 127.306 32.0469 127.366 32.0723C128.025 32.3523 128.538 32.4467 129.353 32.101C130.53 31.6004 131.958 31.7542 133.191 32.3523C134.206 32.8444 134.582 33.7936 134.625 34.851C134.676 36.1216 134.628 37.3953 134.657 38.668C134.666 39.1007 134.442 39.1038 134.124 39.1091C133.776 39.1155 133.603 39.0285 133.609 38.633C133.629 37.5363 133.626 36.4387 133.612 35.342C133.591 33.6992 132.862 32.9759 131.233 32.9515C130.091 32.9346 129.521 33.4953 129.521 34.6336C129.521 35.8182 129.543 37.0039 129.507 38.1875C129.496 38.5333 129.828 39.1251 129.009 39.1123C128.243 39.1007 128.555 38.5513 128.541 38.2162C128.491 37.1217 128.543 36.0208 128.463 34.9295C128.37 33.6494 127.649 33.0215 126.356 32.9568C125.073 32.8925 124.431 33.4907 124.431 34.7513C124.431 36.024 124.42 37.2967 124.437 38.5683C124.443 38.9543 124.339 39.1144 123.921 39.1155C123.516 39.1155 123.388 38.9904 123.398 38.5873C123.422 37.5565 123.406 36.5256 123.406 35.4937V35.4937Z" fill="#A1A1A1"/>
<path d="M152.685 39.1579C150.269 38.8588 149.912 38.4473 149.913 36.0706C149.913 35.3473 149.898 34.6219 149.937 33.8996C149.994 32.8348 150.558 32.1678 151.607 32.0129C152.847 31.8294 154.105 31.8326 155.345 32.0097C156.366 32.1561 156.933 32.8126 157.041 33.8222C157.062 34.0248 157.151 34.3175 156.791 34.2878C156.527 34.2655 156.177 34.4925 156.017 34.0481C155.677 33.0915 155.483 32.9579 154.503 32.9526C153.756 32.9483 153.009 32.9398 152.263 32.9568C151.379 32.977 150.962 33.3524 150.919 34.2358C150.879 35.0896 150.879 35.9476 150.919 36.8003C150.961 37.6455 151.368 38.0326 152.216 38.0645C153.05 38.0952 153.886 38.0878 154.72 38.0676C155.407 38.0507 155.908 37.7611 156.014 37.0166C156.093 36.4651 156.517 36.726 156.793 36.7006C157.151 36.6677 157.063 36.9678 157.044 37.1693C156.949 38.1801 156.334 38.9946 155.376 38.9818C154.187 38.9659 153.523 39.5556 152.996 40.4634C152.78 40.8357 152.595 40.7901 152.288 40.5483C151.989 40.3139 151.859 40.1506 152.177 39.8388C152.36 39.6595 152.489 39.4262 152.685 39.1589V39.1579Z" fill="#A1A1A1"/>
<path d="M92.8394 34.7576C92.8394 33.8509 92.8595 33.1042 92.8309 32.3597C92.815 31.9366 93.0335 31.9111 93.359 31.91C93.6836 31.91 93.8904 31.9302 93.883 32.3555C93.8586 33.7586 93.8692 35.1628 93.8755 36.567C93.8808 37.6583 94.2913 38.0613 95.3996 38.0729C96.1027 38.0804 96.8059 38.0814 97.508 38.0729C98.5706 38.0592 98.9927 37.6477 99.0012 36.5967C99.0118 35.237 99.0076 33.8774 99.0012 32.5167C98.9991 32.1678 98.9705 31.8835 99.4944 31.9005C99.943 31.9143 100.048 32.0713 100.042 32.4827C100.023 33.8647 100.052 35.2466 100.029 36.6285C100 38.337 99.2738 39.0699 97.5589 39.0953C96.5725 39.1102 95.5809 39.1812 94.5988 39.0243C93.6433 38.8715 93.1162 38.3604 92.9285 37.4196C92.7418 36.4842 92.8892 35.5372 92.8373 34.7587L92.8394 34.7576Z" fill="#A1A1A1"/>
<path d="M107.607 39.1038C105.835 39.0625 105.096 38.3211 105.085 36.6285C105.079 35.5754 105.068 34.5222 105.092 33.4702C105.1 33.0831 105.014 32.8847 104.588 32.9494C104.233 33.0035 104.02 32.9314 104.031 32.4764C104.041 32.0639 104.129 31.8454 104.58 31.9175C104.988 31.9833 105.135 31.803 105.089 31.4042C105.063 31.1878 105.101 30.9641 105.08 30.7466C105.045 30.3754 105.131 30.193 105.571 30.1973C106.01 30.2015 106.128 30.3479 106.128 30.771C106.128 31.8974 106.146 31.9122 107.246 31.9101C107.642 31.9101 107.835 31.9769 107.844 32.4414C107.853 32.9261 107.633 32.959 107.25 32.9579C106.117 32.9547 106.117 32.9664 106.117 34.0874C106.117 34.921 106.111 35.7546 106.119 36.5882C106.13 37.67 106.492 38.0528 107.589 38.0634C108.008 38.0677 108.149 38.1674 108.156 38.6086C108.163 39.1123 107.911 39.1452 107.606 39.1038H107.607Z" fill="#A1A1A1"/>
<path d="M164.659 29.8399C165.337 29.8399 166.015 29.8579 166.692 29.8325C167.111 29.8166 167.136 30.0403 167.142 30.3638C167.147 30.7053 167.081 30.8792 166.678 30.8729C165.279 30.8517 163.879 30.8527 162.479 30.8729C162.083 30.8782 162.072 30.6724 162.077 30.3829C162.083 30.0881 162.042 29.8166 162.494 29.8335C163.215 29.86 163.938 29.8409 164.659 29.8409V29.8399Z" fill="#A1A1A1"/>
<path d="M133.539 9.14414C130.704 9.13354 127.868 9.13566 125.033 9.14414C122.439 9.15157 119.945 10.9407 119.243 13.4309C118.233 17.0135 117.322 20.6247 116.359 24.22C116.25 24.6283 116.357 24.7916 116.785 24.7874C117.818 24.7757 118.851 24.7757 119.884 24.7874C120.292 24.7916 120.462 24.5859 120.556 24.2157C120.791 23.2814 121.083 22.3608 121.294 21.4212C121.415 20.8813 121.697 20.717 122.219 20.7254C123.537 20.7477 124.856 20.7329 126.175 20.7329C127.515 20.7329 128.856 20.7466 130.196 20.7254C130.724 20.717 130.922 20.8495 130.749 21.4137C130.473 22.3131 130.278 23.2368 130.012 24.1404C129.859 24.659 130.026 24.8043 130.536 24.7906C131.502 24.764 132.47 24.7683 133.436 24.7906C133.862 24.8001 134.082 24.6304 134.188 24.2274C135.129 20.648 136.118 17.0814 137.01 13.4903C137.64 10.9545 136.159 9.15369 133.538 9.14414H133.539ZM132.539 14.5148C132.422 15.202 132.199 15.8713 132.024 16.549C131.934 16.8947 131.675 16.9668 131.367 16.9668C128.601 16.9668 125.834 16.9636 123.068 16.97C122.633 16.97 122.531 16.7685 122.637 16.3878C122.806 15.7769 122.944 15.1554 123.147 14.5551C123.482 13.5624 124.348 12.9494 125.391 12.9367C126.357 12.925 127.323 12.9346 128.289 12.9346C129.256 12.9346 130.222 12.9219 131.188 12.9378C132.179 12.9537 132.704 13.5433 132.539 14.5159V14.5148Z" fill="#A1A1A1"/>
<path d="M194.221 9.14204C191.429 9.13779 188.639 9.13779 185.848 9.14204C183.162 9.14628 180.744 10.91 179.993 13.5073C179.318 15.8416 178.695 18.1918 178.12 20.5526C177.546 22.9134 179.041 24.7641 181.469 24.781C182.941 24.7916 184.414 24.7831 185.886 24.7831C187.27 24.7831 188.655 24.7831 190.039 24.7831C192.819 24.781 195.262 22.9441 195.99 20.279C196.589 18.0825 197.171 15.8808 197.736 13.6738C198.417 11.0054 196.968 9.14522 194.221 9.14098V9.14204ZM193.319 14.6654C192.913 16.2552 192.487 17.8407 192.045 19.422C191.76 20.438 190.909 21.0723 189.856 21.0839C188.867 21.0956 187.879 21.086 186.89 21.086C185.902 21.086 184.913 21.0945 183.925 21.0839C182.829 21.0723 182.315 20.4136 182.59 19.3541C182.996 17.7866 183.415 16.2223 183.844 14.6601C184.144 13.5688 184.979 12.9388 186.116 12.9346C188.071 12.9282 190.026 12.9261 191.981 12.9346C193.073 12.9399 193.592 13.5996 193.32 14.6644L193.319 14.6654Z" fill="#A1A1A1"/>
<path d="M112.961 9.11018C110.918 9.10169 108.875 9.10806 106.831 9.10806C104.678 9.10806 102.525 9.11336 100.371 9.10381C99.9599 9.10169 99.6576 9.16108 99.5325 9.63409C98.2492 14.5031 96.9564 19.369 95.6562 24.2327C95.5416 24.6622 95.6816 24.7905 96.092 24.7863C97.1028 24.7757 98.1135 24.7746 99.1242 24.7863C99.5166 24.7916 99.7319 24.6346 99.8252 24.2507C100.001 23.5274 100.232 22.8168 100.385 22.0903C100.503 21.5314 100.796 21.3575 101.353 21.3628C104.078 21.3851 106.803 21.3745 109.526 21.3723C112.151 21.3702 114.568 19.6267 115.332 17.1269C115.714 15.8712 116.04 14.5964 116.329 13.3153C116.865 10.9333 115.399 9.11972 112.96 9.10912L112.961 9.11018ZM111.868 14.6728C111.782 15.0345 111.69 15.3972 111.576 15.7514C111.241 16.8056 110.381 17.4822 109.274 17.4918C106.943 17.513 104.613 17.4918 102.281 17.5034C101.806 17.5056 101.646 17.3497 101.782 16.8703C102.098 15.7535 102.404 14.6325 102.678 13.5041C102.788 13.0501 103.026 12.907 103.469 12.9144C104.656 12.9335 105.844 12.9208 107.032 12.9208C108.197 12.9208 109.363 12.9112 110.528 12.9239C111.598 12.9356 112.12 13.6239 111.87 14.6728H111.868Z" fill="#A1A1A1"/>
<path d="M88.7306 33.5858C88.6055 32.7087 88.054 32.2017 87.1864 32.0087C86.5533 31.8676 85.9169 31.9461 85.2827 31.9281C84.7779 31.9281 84.2699 31.8973 83.7683 31.9345C82.5168 32.0267 81.8699 32.6047 81.7055 33.7448C81.6758 33.9506 81.4828 34.2794 81.907 34.2857C82.2029 34.29 82.625 34.5095 82.7141 33.9241C82.8095 33.2909 83.2571 32.9802 83.8722 32.9643C84.7938 32.9399 85.7176 32.9441 86.6392 32.9674C87.1058 32.9791 87.4791 33.1944 87.6732 33.6536C87.8185 33.9994 87.8016 34.1945 87.3487 34.2889C85.8247 34.606 84.3123 34.9751 82.7936 35.3155C82.4585 35.3908 82.1732 35.5255 81.9653 35.8044C81.1126 36.953 81.8168 38.7942 83.2253 39.001C84.5106 39.1897 85.8109 39.176 87.0995 39.0137C88.0381 38.8949 88.6012 38.3434 88.7359 37.3868C88.913 36.1247 88.9109 34.8499 88.7317 33.5868L88.7306 33.5858ZM85.6126 38.074H85.217V38.0677C84.7779 38.0677 84.3367 38.0899 83.8987 38.0613C83.4183 38.0306 82.9993 37.8672 82.7915 37.373C82.5051 36.6943 82.6472 36.41 83.3599 36.2478C84.6422 35.955 85.9286 35.6729 87.2055 35.3569C87.6732 35.2402 87.8069 35.3452 87.809 35.8384C87.8153 37.8545 87.617 38.074 85.6136 38.074H85.6126Z" fill="#A1A1A1"/>
<path d="M145.848 35.7695C145.848 35.0133 145.877 34.4851 145.842 33.9601C145.767 32.8285 145.195 32.1423 144.081 32.0002C142.818 31.839 141.537 31.8146 140.276 32.032C139.381 32.1869 138.814 32.8646 138.738 33.765C138.72 33.9739 138.585 34.2995 138.999 34.291C139.294 34.2847 139.693 34.4618 139.764 33.9336C139.853 33.2782 140.295 32.9844 140.904 32.9653C141.825 32.9356 142.749 32.9452 143.672 32.9653C144.084 32.9738 144.444 33.1425 144.652 33.5285C144.861 33.9167 144.913 34.1829 144.322 34.3016C142.817 34.6039 141.327 34.9783 139.829 35.3155C139.471 35.3961 139.169 35.5414 138.964 35.8585C138.159 37.1058 138.883 38.809 140.341 39.0095C141.606 39.1845 142.884 39.1685 144.151 39.0116C144.997 38.9066 145.528 38.4028 145.751 37.5692C145.933 36.8968 145.811 36.2149 145.846 35.7695H145.848ZM142.578 38.074H142.25V38.0666C141.812 38.0666 141.371 38.091 140.935 38.0603C140.458 38.0263 140.034 37.863 139.83 37.3709C139.553 36.6985 139.699 36.4122 140.408 36.2488C141.686 35.954 142.966 35.6655 144.242 35.3611C144.632 35.2678 144.825 35.2848 144.832 35.7907C144.864 37.8662 144.677 38.0751 142.577 38.0751L142.578 38.074Z" fill="#A1A1A1"/>
<path d="M168.269 35.7238C168.269 35.0344 168.294 34.5508 168.265 34.0704C168.188 32.7967 167.591 32.0882 166.342 31.9716C165.144 31.8602 163.927 31.8157 162.729 32.0225C161.808 32.1815 161.246 32.8105 161.162 33.7215C161.144 33.923 160.97 34.2571 161.372 34.2868C161.688 34.3101 162.096 34.4596 162.179 33.905C162.279 33.2548 162.736 32.9791 163.346 32.9632C164.246 32.9398 165.148 32.9494 166.048 32.9611C166.466 32.9664 166.819 33.135 167.05 33.4988C167.346 33.9675 167.263 34.1637 166.709 34.2921C165.235 34.6346 163.761 34.9772 162.284 35.3081C161.951 35.3823 161.657 35.4969 161.44 35.7705C160.559 36.8862 161.242 38.7793 162.644 38.9956C163.95 39.1971 165.274 39.1802 166.585 39.0073C167.458 38.8917 167.984 38.3561 168.183 37.4843C168.333 36.83 168.238 36.1724 168.269 35.7238V35.7238ZM164.995 38.0751C164.886 38.0751 164.777 38.0751 164.666 38.0751V38.0719C164.251 38.0719 163.834 38.0878 163.418 38.0676C163.043 38.0486 162.676 37.9648 162.414 37.6583C161.866 37.0166 162.056 36.4291 162.867 36.2414C164.145 35.9465 165.424 35.6602 166.697 35.3473C167.121 35.2434 167.247 35.3272 167.249 35.7896C167.255 37.9011 167.098 38.0751 164.995 38.0751Z" fill="#A1A1A1"/>
<path d="M119.328 33.9273C119.286 32.8455 118.686 32.1699 117.61 32.0024C116.455 31.8221 115.282 31.8539 114.126 31.9684C112.843 32.0957 112.242 32.8328 112.205 34.1277C112.192 34.588 112.203 35.0493 112.203 35.5107H112.215C112.215 36.059 112.183 36.6105 112.221 37.1556C112.296 38.2246 112.934 38.8992 113.998 39.0254C115.158 39.1632 116.324 39.1601 117.483 39.0317C118.627 38.9055 119.282 38.2215 119.327 37.0856C119.368 36.0335 119.367 34.9783 119.327 33.9262L119.328 33.9273ZM118.304 36.8533C118.269 37.5915 117.912 38.0104 117.173 38.0507C116.253 38.1006 115.327 38.0995 114.407 38.055C113.627 38.0168 113.26 37.6085 113.239 36.8268C113.216 35.9285 113.214 35.0281 113.244 34.1309C113.27 33.3896 113.657 32.9961 114.401 32.9685C115.301 32.9346 116.202 32.9367 117.102 32.9653C117.881 32.9897 118.264 33.3864 118.301 34.1595C118.323 34.6187 118.305 35.0801 118.305 35.5404C118.305 35.9784 118.322 36.4185 118.302 36.8555L118.304 36.8533Z" fill="#A1A1A1"/>
<path d="M179.476 35.7599C179.476 35.0451 179.502 34.5604 179.471 34.08C179.389 32.8147 178.825 32.119 177.618 31.9843C176.399 31.8486 175.16 31.8199 173.939 32.0225C173.037 32.172 172.485 32.7501 172.375 33.6515C172.226 34.8743 172.227 36.1057 172.37 37.3295C172.48 38.2809 173.076 38.8928 174.029 39.0158C175.275 39.176 176.53 39.1749 177.776 39.0116C178.664 38.8949 179.17 38.3678 179.384 37.496C179.544 36.8438 179.451 36.1841 179.475 35.761L179.476 35.7599ZM178.442 36.7462C178.416 37.5894 178.031 38.0263 177.204 38.0613C176.325 38.0984 175.444 38.0963 174.566 38.0613C173.795 38.0306 173.37 37.6265 173.334 36.8724C173.291 35.9742 173.292 35.0716 173.331 34.1744C173.366 33.3779 173.796 32.9834 174.603 32.9611C175.46 32.9367 176.318 32.9378 177.175 32.9611C177.999 32.9834 178.412 33.415 178.44 34.2454C178.455 34.6835 178.443 35.1236 178.443 35.5627C178.443 35.9582 178.454 36.3528 178.441 36.7473L178.442 36.7462Z" fill="#A1A1A1"/>
</g>
<defs>
<clipPath id="clip0_689_16606">
<rect width="197.052" height="50" fill="white" transform="translate(0.850586)"/>
</clipPath>
</defs>
</svg>
