<svg width="199" height="50" viewBox="0 0 199 50" fill="none" xmlns="http://www.w3.org/2000/svg">
<path fill-rule="evenodd" clip-rule="evenodd" d="M77.8714 30.2582C80.7861 30.2582 82.1392 29.129 82.1392 26.7138V21.2928C82.1392 18.8777 80.7861 17.7484 77.8714 17.7484H72.025C71.5912 17.7484 71.4004 17.9395 71.4004 18.374V29.6328C71.4004 30.0673 71.5912 30.2582 72.025 30.2582H77.8714ZM75.3385 21.0671H77.403C77.9581 21.0671 78.2184 21.3276 78.2184 21.901V26.1231C78.2184 26.7138 77.9581 26.9745 77.403 26.9745H75.3385V21.0671ZM88.4624 21.397C88.5491 21.1888 88.6531 21.1016 88.792 21.1016H89.2257C89.3644 21.1016 89.4685 21.1888 89.5552 21.397L90.3708 24.0382H87.6469L88.4624 21.397ZM87.4735 29.6328V27.2003H90.5442V29.6328C90.5442 30.0673 90.7525 30.2582 91.2208 30.2582H93.8403C94.2742 30.2582 94.465 30.0673 94.465 29.6328V25.0458C94.4068 24.0862 94.1777 23.1448 93.7885 22.266L92.2791 18.3218C92.2251 18.1391 92.1084 17.9815 91.9497 17.8766C91.791 17.7717 91.6004 17.7263 91.4115 17.7484H86.7447C86.5533 17.7237 86.3594 17.7678 86.1975 17.8727C86.0355 17.9777 85.9159 18.1368 85.8601 18.3218L84.3506 22.266C83.9614 23.1448 83.7322 24.0862 83.674 25.0458V29.6328C83.674 30.0673 83.8649 30.2582 84.2986 30.2582H86.8489C87.2826 30.2582 87.4735 30.0673 87.4735 29.6328ZM101.395 30.2582C101.829 30.2582 102.02 30.0673 102.02 29.6328V21.1016H104.57C105.004 21.1016 105.195 20.9106 105.195 20.4762V18.374C105.195 17.9395 105.004 17.7484 104.57 17.7484H95.4101C94.9764 17.7484 94.7855 17.9395 94.7855 18.374V20.4762C94.7855 20.9106 94.9764 21.1016 95.4101 21.1016H97.9603V29.6328C97.9603 30.0673 98.1511 30.2582 98.5849 30.2582H101.395ZM110.303 21.397C110.39 21.1888 110.494 21.1016 110.633 21.1016H111.067C111.206 21.1016 111.31 21.1888 111.397 21.397L112.212 24.0382H109.488L110.303 21.397ZM109.315 29.6328V27.2003H112.385V29.6328C112.385 30.0673 112.594 30.2582 113.062 30.2582H115.682C116.115 30.2582 116.306 30.0673 116.306 29.6328V25.0458C116.248 24.0862 116.019 23.1448 115.63 22.266L114.12 18.3218C114.066 18.1392 113.95 17.9815 113.791 17.8767C113.632 17.7718 113.442 17.7264 113.253 17.7484H108.586C108.395 17.7237 108.201 17.7678 108.039 17.8727C107.877 17.9777 107.757 18.1368 107.701 18.3218L106.192 22.266C105.803 23.1448 105.573 24.0862 105.515 25.0458V29.6328C105.515 30.0673 105.706 30.2582 106.14 30.2582H108.69C109.124 30.2582 109.315 30.0673 109.315 29.6328ZM125.318 30.2582C127.626 30.2582 128.684 29.3548 128.684 27.4089V25.8104C128.684 24.1076 127.99 23.2562 126.498 23.1173C127.192 22.8219 127.522 22.2139 127.522 21.2407V20.4067C127.522 18.5823 126.463 17.7484 124.191 17.7484H118.657C118.223 17.7484 118.032 17.9395 118.032 18.374V29.6328C118.032 30.0673 118.223 30.2582 118.657 30.2582H125.318ZM121.936 20.7021H123.41C123.861 20.7021 124.069 20.928 124.069 21.397V21.8837C124.069 22.3528 123.861 22.5787 123.41 22.5787H121.936V20.7021ZM121.936 25.2544H124.191C124.642 25.2544 124.85 25.4629 124.85 25.9319V26.6094C124.85 27.0786 124.642 27.3045 124.191 27.3045H121.936V25.2544ZM134.73 21.397C134.816 21.1888 134.92 21.1016 135.059 21.1016H135.493C135.632 21.1016 135.736 21.1888 135.823 21.397L136.638 24.0382H133.914L134.73 21.397ZM133.741 29.6328V27.2003H136.812V29.6328C136.812 30.0673 137.02 30.2582 137.488 30.2582H140.108C140.542 30.2582 140.732 30.0673 140.732 29.6328V25.0458C140.674 24.0862 140.445 23.1448 140.056 22.266L138.546 18.3218C138.492 18.1391 138.376 17.9815 138.217 17.8766C138.058 17.7717 137.868 17.7263 137.679 17.7484H133.012C132.821 17.7237 132.627 17.7678 132.465 17.8728C132.303 17.9777 132.183 18.1368 132.127 18.3218L130.618 22.266C130.229 23.1448 130 24.0862 129.941 25.0458V29.6328C129.941 30.0673 130.132 30.2582 130.566 30.2582H133.116C133.55 30.2582 133.741 30.0673 133.741 29.6328ZM148.253 30.2582C150.491 30.2582 151.844 29.1811 151.844 27.2003V25.376C151.844 23.4301 150.768 22.735 149.137 22.4919L146.552 22.1442C146.485 22.1389 146.419 22.1203 146.359 22.0894C146.299 22.0585 146.246 22.016 146.202 21.9643C146.159 21.9125 146.126 21.8527 146.105 21.7881C146.085 21.7236 146.078 21.6556 146.084 21.5882C146.075 21.5222 146.081 21.4551 146.101 21.3915C146.121 21.328 146.154 21.2695 146.199 21.22C146.243 21.1705 146.298 21.1312 146.359 21.1048C146.42 21.0784 146.486 21.0655 146.552 21.0671H150.595C151.028 21.0671 151.219 20.8758 151.219 20.4415V18.374C151.219 17.9395 151.028 17.7484 150.595 17.7484H145.737C143.482 17.7484 142.146 18.8257 142.146 20.8065V22.6307C142.146 24.5767 143.204 25.2717 144.835 25.515L147.437 25.8798C147.732 25.9145 147.888 26.0709 147.888 26.4707C147.896 26.5342 147.889 26.5985 147.87 26.6595C147.851 26.7204 147.818 26.7765 147.776 26.8241C147.733 26.8717 147.681 26.9097 147.623 26.9357C147.564 26.9616 147.501 26.9748 147.437 26.9745H142.77C142.337 26.9745 142.146 27.1657 142.146 27.5999V29.6328C142.146 30.0673 142.337 30.2582 142.77 30.2582H148.253ZM162.001 30.2582C162.435 30.2582 162.626 30.0673 162.626 29.6328V27.5999C162.626 27.1657 162.435 26.9745 162.001 26.9745H157.213V25.4803H160.596C161.03 25.4803 161.22 25.2891 161.22 24.8546V22.9956C161.22 22.5612 161.03 22.3701 160.596 22.3701H157.213V21.0322H162.001C162.435 21.0322 162.626 20.8411 162.626 20.4067V18.374C162.626 17.9395 162.435 17.7484 162.001 17.7484H153.951C153.517 17.7484 153.327 17.9395 153.327 18.374V29.6328C153.327 30.0673 153.517 30.2582 153.951 30.2582H162.001ZM168.185 20.8758H169.487C170.094 20.8758 170.25 21.2234 170.25 21.6925V22.2833C170.25 22.7524 170.094 23.0998 169.487 23.0998H168.185V20.8758ZM167.561 30.2582C167.994 30.2582 168.185 30.0673 168.185 29.6328V26.2273H170.614C171.1 26.2273 171.273 26.4532 171.273 26.9745V29.6328C171.273 30.0673 171.464 30.2582 171.898 30.2582H174.587C175.021 30.2582 175.212 30.0673 175.212 29.6328V25.9495C175.212 24.4899 174.379 23.569 173.112 23.4301C173.841 23.1173 174.084 22.4222 174.084 21.4493V20.6499C174.084 18.9299 173.268 17.7484 170.666 17.7484H164.889C164.455 17.7484 164.265 17.9395 164.265 18.374V29.6328C164.265 30.0673 164.455 30.2582 164.889 30.2582H167.561ZM182.541 30.2582C184.779 30.2582 186.132 29.1811 186.132 27.2003V25.376C186.132 23.4301 185.057 22.735 183.426 22.4919L180.841 22.1442C180.773 22.1389 180.708 22.1203 180.648 22.0894C180.588 22.0585 180.534 22.016 180.491 21.9643C180.447 21.9125 180.414 21.8527 180.394 21.7881C180.374 21.7236 180.366 21.6556 180.372 21.5882C180.364 21.5222 180.37 21.4551 180.39 21.3915C180.409 21.328 180.443 21.2695 180.487 21.22C180.532 21.1705 180.586 21.1312 180.647 21.1048C180.708 21.0784 180.774 21.0655 180.841 21.0671H184.883C185.317 21.0671 185.508 20.8758 185.508 20.4415V18.374C185.508 17.9395 185.317 17.7484 184.883 17.7484H180.026C177.77 17.7484 176.434 18.8257 176.434 20.8065V22.6307C176.434 24.5767 177.492 25.2717 179.123 25.515L181.726 25.8798C182.021 25.9145 182.177 26.0709 182.177 26.4707C182.184 26.5342 182.178 26.5985 182.158 26.6595C182.139 26.7204 182.107 26.7765 182.064 26.8241C182.022 26.8717 181.969 26.9097 181.911 26.9357C181.853 26.9616 181.789 26.9748 181.726 26.9745H177.059C176.625 26.9745 176.434 27.1657 176.434 27.5999V29.6328C176.434 30.0673 176.625 30.2582 177.059 30.2582H182.541Z" fill="#003A69"/>
<path fill-rule="evenodd" clip-rule="evenodd" d="M12.9092 8.04614L15.7816 12.7112C15.8974 12.6714 16.019 12.6512 16.1414 12.6514C16.2397 12.6514 16.3376 12.6645 16.4325 12.6902L17.6262 10.4478C17.4178 10.2669 17.2842 10.0147 17.2514 9.7404C17.2187 9.46614 17.2891 9.1895 17.449 8.96445L15.3626 6.8302L15.0735 6.53463L15.4698 6.41988L20.8155 4.87376L21.0455 4.80725L21.1189 5.03527L22.2743 8.622C22.3215 8.61598 22.3689 8.61296 22.4165 8.61294C22.5661 8.61281 22.7143 8.6431 22.8519 8.70197C22.9896 8.76084 23.1138 8.84707 23.2172 8.95544L25.0913 7.49033L25.5465 4.06291L25.5736 3.85924L25.7783 3.84809L30.0425 3.61981L30.387 3.35036L30.5603 3.21509L30.7144 3.37157L30.9128 3.57304L34.0617 3.40451L34.5913 3.37618L34.2711 3.80017L32.9106 5.60191L34.5421 7.25875L38.3279 5.42569L37.2411 4.00399L37.6331 3.70412L38.7815 5.20615L41.3935 3.94104L41.5358 3.87228L41.6583 3.97414L44.248 6.13604L46.6991 4.57834L46.7941 4.51806L46.903 4.55116L53.2552 6.49367L53.7054 6.63156L53.3363 6.92327L49.6667 9.82447C49.7419 10.0382 49.75 10.2698 49.69 10.4883C49.6299 10.7068 49.5045 10.9016 49.3307 11.0466L50.4562 13.7136L50.5016 13.7127C50.7724 13.7124 51.0339 13.8118 51.2363 13.9919L53.5445 12.2899C53.478 12.1215 53.4536 11.9393 53.4734 11.7593C53.4933 11.5793 53.5568 11.4069 53.6584 11.2571C53.76 11.1073 53.8967 10.9846 54.0565 10.8998C54.2163 10.815 54.3943 10.7706 54.5752 10.7705C54.601 10.7705 54.6266 10.7716 54.6521 10.7734L55.568 7.77344L56.0395 7.91683L55.1238 10.916C55.2595 10.9934 55.3773 11.0986 55.4696 11.2247C55.5618 11.3509 55.6264 11.4951 55.6591 11.648C55.6919 11.8009 55.692 11.959 55.6595 12.112C55.6269 12.2649 55.5625 12.4092 55.4704 12.5355C55.3783 12.6618 55.2606 12.7671 55.125 12.8447C54.9894 12.9222 54.839 12.9702 54.6837 12.9855C54.5283 13.0007 54.3714 12.983 54.2234 12.9333C54.0753 12.8836 53.9394 12.8032 53.8245 12.6973L51.524 14.3935C51.607 14.5918 51.6307 14.8099 51.5923 15.0215C51.5538 15.233 51.4548 15.4288 51.3074 15.5851C51.1599 15.7414 50.9703 15.8514 50.7616 15.9019C50.5529 15.9523 50.334 15.9409 50.1317 15.8692C49.9293 15.7974 49.752 15.6683 49.6215 15.4976C49.491 15.3269 49.4128 15.1219 49.3963 14.9075C49.3799 14.6931 49.426 14.4785 49.529 14.2899C49.6321 14.1012 49.7876 13.9466 49.9767 13.8448L48.8906 11.2708C48.7433 11.3077 48.5901 11.3138 48.4403 11.289C48.2906 11.2641 48.1475 11.2088 48.0199 11.1263L43.1846 14.9491C43.2601 15.126 43.2884 15.3195 43.2668 15.5106C43.2452 15.7017 43.1743 15.8839 43.0612 16.0394C42.9481 16.1949 42.7966 16.3182 42.6216 16.3974C42.4466 16.4766 42.254 16.5089 42.0627 16.4911C41.8715 16.4733 41.6881 16.406 41.5307 16.2959C41.3732 16.1858 41.247 16.0366 41.1644 15.8629C41.0819 15.6892 41.0458 15.497 41.0597 15.3052C41.0736 15.1133 41.1371 14.9284 41.2438 14.7685L37.5269 10.9936L34.0651 13.1937C34.1318 13.3291 34.1702 13.4768 34.178 13.6276C34.1858 13.7784 34.1628 13.9292 34.1104 14.0707C34.058 14.2123 33.9774 14.3417 33.8733 14.451C33.7693 14.5603 33.6441 14.6472 33.5054 14.7064C33.3667 14.7656 33.2174 14.7959 33.0666 14.7953C32.9159 14.7947 32.7668 14.7634 32.6285 14.7031C32.4903 14.6429 32.3657 14.5551 32.2625 14.445C32.1593 14.3349 32.0796 14.2049 32.0283 14.0629L25.4028 15.5771C25.4043 15.6002 25.4052 15.6232 25.4052 15.6467C25.4052 15.9411 25.2884 16.2235 25.0806 16.4317C24.8727 16.6398 24.5907 16.7568 24.2968 16.7568C24.0028 16.7568 23.7208 16.6398 23.513 16.4317C23.3051 16.2235 23.1883 15.9411 23.1883 15.6467L23.1894 15.6002L17.1304 14.2637C17.0577 14.4073 16.9548 14.5333 16.8287 14.633C16.7027 14.7328 16.5564 14.8039 16.4002 14.8414C16.2439 14.8789 16.0814 14.882 15.9239 14.8504C15.7663 14.8188 15.6175 14.7533 15.4878 14.6584C15.358 14.5635 15.2504 14.4415 15.1724 14.3009C15.0944 14.1602 15.0478 14.0042 15.0359 13.8437C15.0241 13.6833 15.0472 13.5221 15.1037 13.3715C15.1601 13.2208 15.2486 13.0843 15.363 12.9713L12.4902 8.30537L12.9092 8.04614ZM16.8671 12.9223C16.9874 13.0264 17.0838 13.1553 17.1499 13.3001C17.2159 13.4449 17.25 13.6023 17.2498 13.7615L17.2497 13.7828L23.3196 15.1218C23.337 15.0895 23.3559 15.0582 23.3764 15.0278L18.9758 10.5263C18.792 10.652 18.5746 10.7191 18.3521 10.7187C18.2537 10.7187 18.1558 10.7057 18.0608 10.68L16.8671 12.9223ZM21.3366 9.97425L19.4223 9.89821C19.3972 9.9913 19.36 10.0807 19.3117 10.1641L23.7355 14.6894C23.8639 14.6135 24.0064 14.5646 24.1543 14.5456L24.9985 8.18911L23.4718 9.38252C23.5176 9.52501 23.5342 9.67531 23.5205 9.82437C23.5069 9.97344 23.4632 10.1182 23.3923 10.2499C23.3213 10.3817 23.2245 10.4977 23.1076 10.591C22.9907 10.6843 22.8562 10.753 22.7122 10.7929C22.5681 10.8329 22.4175 10.8432 22.2693 10.8233C22.1212 10.8035 21.9786 10.7538 21.8501 10.6773C21.7216 10.6009 21.6099 10.4991 21.5216 10.3783C21.4334 10.2575 21.3705 10.1201 21.3366 9.97425ZM19.4417 9.40493L21.3348 9.48003C21.3982 9.19767 21.569 8.95121 21.8111 8.79315L20.7228 5.41443L16.0031 6.77941L17.8179 8.63583C17.9715 8.55125 18.1429 8.50437 18.3182 8.49902C18.4934 8.49368 18.6674 8.53003 18.8259 8.6051C18.9843 8.68016 19.1228 8.79179 19.2298 8.93083C19.3369 9.06987 19.4095 9.23235 19.4417 9.40493ZM28.7261 11.1483L25.1962 14.9981C25.2206 15.0315 25.2429 15.0664 25.263 15.1025L31.9684 13.57C31.9889 13.3733 32.0616 13.1856 32.1788 13.0264C32.2961 12.8671 32.4536 12.7422 32.6353 12.6644C32.8169 12.5867 33.016 12.559 33.2119 12.5841C33.4079 12.6093 33.5935 12.6864 33.7497 12.8076L37.1717 10.6331L34.4393 7.85776L30.252 9.88533C30.2973 10.0857 30.2863 10.2948 30.22 10.4892C30.1538 10.6837 30.0351 10.856 29.8769 10.9869C29.7188 11.1178 29.5275 11.2021 29.3243 11.2307C29.1211 11.2592 28.9141 11.2307 28.7261 11.1483ZM24.8265 14.6714L28.3281 10.8524C28.1642 10.6601 28.0708 10.4175 28.0633 10.1647C28.0558 9.91198 28.1346 9.66423 28.2868 9.46246C28.439 9.26068 28.6554 9.11697 28.9002 9.05509C29.145 8.99321 29.4035 9.01686 29.6331 9.12214L32.2595 5.64407L30.7177 4.07836L30.2229 4.10481L25.5531 7.75532L24.6451 14.5926C24.7078 14.6133 24.7685 14.6397 24.8265 14.6714ZM43.0655 10.1966C43.32 10.1966 43.5668 10.2843 43.7644 10.4449C43.962 10.6055 44.0983 10.8294 44.1506 11.0788C44.2029 11.3283 44.1679 11.5881 44.0514 11.8148C43.935 12.0414 43.7443 12.221 43.5113 12.3235C43.2782 12.4259 43.0171 12.445 42.7717 12.3774C42.5263 12.3098 42.3116 12.1597 42.1637 11.9523C42.0157 11.745 41.9435 11.4929 41.9592 11.2385C41.9748 10.9841 42.0774 10.7429 42.2497 10.5553L40.9309 8.83028L37.9528 10.7229L41.6025 14.4292C41.8033 14.3109 42.0362 14.2589 42.2681 14.2805C42.5001 14.3022 42.7193 14.3965 42.8948 14.5499L47.6743 10.7711C47.5702 10.5995 47.5145 10.403 47.513 10.2022C47.5115 10.0015 47.5643 9.80412 47.6658 9.63102L44.21 6.74646L41.3491 8.56455L42.6564 10.2745C42.7866 10.2229 42.9255 10.1964 43.0655 10.1966ZM39.0877 5.60668L41.0474 8.16994L43.8113 6.41365L41.4654 4.45527L39.0877 5.60668ZM40.6293 8.43582L38.6343 5.82622L34.9081 7.63063L37.5978 10.3623L40.6293 8.43582ZM48.6213 9.08369C48.9137 9.08333 49.1943 9.19905 49.4017 9.40551L52.6617 6.82827L46.8689 5.05679L44.6469 6.46885L48.0041 9.2716C48.1865 9.14876 48.4014 9.08332 48.6213 9.08369ZM30.0246 9.42332L30.0379 9.43981L34.0731 7.48604L32.61 5.99993L30.0246 9.42332ZM31.3756 4.04301L32.5602 5.24621L33.557 3.92617L31.3756 4.04301ZM25.6461 7.05671L29.3631 4.15079L26.008 4.33057L25.6461 7.05671Z" fill="#003A69"/>
<path fill-rule="evenodd" clip-rule="evenodd" d="M50.9148 31.8269C53.3789 32.5419 55.274 34.599 55.274 37.3221V41.0588C56.8697 40.1414 57.8994 39.1308 58.2074 38.0807C58.2246 38.0279 58.2371 37.9738 58.2448 37.9188C58.2522 37.847 58.2528 37.7661 58.2532 37.657L58.2822 29.4432C57.285 30.2422 56.1935 30.9153 55.0322 31.4473L55.0249 31.4401L55.0185 31.4338L55.0174 31.4329L55.0112 31.4269L55.0099 31.4258L55.0039 31.42L55.0025 31.4185L54.9967 31.413L54.9951 31.4114L54.9894 31.4061L54.9875 31.4043L54.982 31.3992L54.9801 31.3972L54.9748 31.3922L54.9724 31.39L54.9675 31.3852V31.3851L54.9648 31.3828L54.9602 31.3784L54.9574 31.3757L54.9528 31.3714L54.9498 31.3686L54.9455 31.3645L54.9423 31.3615L54.9381 31.3578L54.9347 31.3543L54.9307 31.3508L54.9272 31.3474L54.9235 31.3438L54.9194 31.3404L54.916 31.3371L54.9119 31.3333L54.9086 31.3302L54.9043 31.3261L54.9014 31.3233L54.8968 31.319L54.894 31.3165L54.8891 31.3122L54.8866 31.3097L54.8836 31.3068L54.8814 31.3051L54.8791 31.3028L54.8738 31.2981L54.8717 31.296L54.8661 31.291L54.8643 31.2892L54.8585 31.2841L54.8568 31.2823L54.8508 31.277L54.8493 31.2757L54.8431 31.27L54.8418 31.2688L54.8354 31.2631L54.8344 31.2622L54.8277 31.2561L54.8268 31.2553L54.8201 31.2491L54.8194 31.2485L54.8123 31.2421L54.8118 31.2418L54.8046 31.2352L54.8045 31.235L54.7985 31.2297L54.7969 31.2283L54.7895 31.2215L54.7892 31.2213L54.7819 31.2147L54.7813 31.2144L54.7742 31.2081L54.7736 31.2076L54.7667 31.2013L54.7658 31.2005L54.7591 31.1946L54.7579 31.1936L54.7515 31.1879L54.744 31.1813L54.7423 31.1799L54.7364 31.1746L54.7345 31.1729L54.7287 31.1679L54.7266 31.166L54.7211 31.1612L54.7189 31.1593L54.7136 31.1547L54.7121 31.1534L54.7109 31.1523L54.7031 31.1455L54.6983 31.1412L54.6953 31.1386L54.6907 31.1347L54.6873 31.1318L54.6829 31.1281L54.6795 31.125L54.6754 31.1215L54.6716 31.1182L54.6676 31.1149L54.6636 31.1114L54.6601 31.1082L54.6557 31.1046L54.6522 31.1017L54.6477 31.0978L54.6445 31.095L54.6399 31.091L54.6369 31.0885L54.6317 31.0843L54.6214 31.0753L54.6161 31.0708L54.6136 31.0687L54.6079 31.064L54.606 31.0622L54.6 31.0571L54.5983 31.0555L54.5919 31.0505L54.5904 31.0491L54.5825 31.0424L54.5759 31.0371L54.5748 31.0361L54.5678 31.0303L54.5669 31.0294L54.5591 31.023L54.5518 31.0169L54.5514 31.0166L54.5438 31.0101L54.5436 31.01L54.5357 31.0036L54.1303 30.6685L54.2623 30.1592L54.267 30.1409L54.2671 30.1408L54.2711 30.1252L54.2717 30.1228V30.1225L54.2763 30.1047V30.1041L54.2797 30.091L54.2808 30.0863L54.281 30.0858L54.2855 30.0682L54.2856 30.0675L54.2881 30.0569L54.29 30.0499L54.2902 30.0492L54.2944 30.0318L54.2947 30.0307L54.2966 30.0229L54.2989 30.0136L54.2991 30.0124L54.3033 29.9953L54.3036 29.9939L54.3048 29.9887L54.3076 29.977L54.3079 29.9757L54.3119 29.9588L54.3122 29.9571L54.3128 29.9546L54.316 29.9405L54.3166 29.9389L54.3203 29.9222L54.3208 29.9203L54.3245 29.904L54.325 29.9021L54.3286 29.8862V29.8857L54.3291 29.8835L54.3328 29.8673L54.3332 29.8651L54.3362 29.8519L54.3369 29.8491L54.3374 29.8466L54.3408 29.8306L54.3415 29.8283L54.3437 29.8178L54.3449 29.8124L54.3454 29.8097L54.3489 29.794L54.3494 29.7913L54.3511 29.7833L54.3527 29.7757L54.3534 29.7728L54.3566 29.7575L54.3574 29.7542L54.3584 29.749L54.3605 29.739L54.3611 29.7358L54.3642 29.7205L54.3649 29.7173L54.3655 29.7146L54.368 29.7022L54.3687 29.6988L54.3717 29.684L54.3725 29.6803V29.6801L54.3755 29.6656L54.376 29.6616L54.379 29.6472L54.3795 29.6458L54.3799 29.6432L54.3827 29.6287L54.3833 29.6246L54.387 29.606L54.3893 29.5943L54.3898 29.5919L54.3906 29.5875L54.3927 29.5768L54.3932 29.5734L54.3941 29.5688L54.3966 29.5551L54.3975 29.5504L54.399 29.5422L54.4002 29.5366L54.401 29.5317L54.4035 29.5181L54.4044 29.5131L54.4067 29.4996L54.4076 29.4946L54.41 29.4813L54.4109 29.476L54.4115 29.4732L54.4134 29.4628L54.4142 29.4574L54.4165 29.4444L54.4175 29.4387L54.4198 29.4258L54.4207 29.4201L54.4235 29.404L54.4238 29.4013L54.4259 29.3888L54.4269 29.3829L54.429 29.3703L54.4291 29.3694L54.4298 29.3642L54.4319 29.3519L54.433 29.3456L54.4348 29.3348L54.4349 29.3333L54.436 29.3269L54.4378 29.3149L54.4389 29.3082L54.4403 29.3002L54.4436 29.2777L54.4447 29.271L54.4465 29.2593L54.4475 29.2522L54.4493 29.2407L54.4503 29.2334L54.4508 29.2306L54.4548 29.2036L54.4558 29.1962L54.4559 29.196L54.4575 29.185L54.4583 29.1773L54.46 29.1665L54.4626 29.1479L54.4637 29.14L54.4651 29.1292L54.4677 29.1108L54.4685 29.1025L54.4701 29.0921L54.4726 29.0737L54.4736 29.0651L54.4746 29.0569L54.4749 29.055L54.4783 29.0275L54.4791 29.0222L54.4797 29.0179L54.4807 29.0087L54.4818 28.9992L54.4828 28.9901L54.4832 28.9873L54.4841 28.9805L54.4852 28.9712C56.5304 27.9462 57.8513 26.7846 58.2074 25.5705C58.2245 25.5178 58.2371 25.4637 58.2448 25.4088C58.485 23.0825 58.2734 19.4072 58.2822 16.9335C56.5821 18.2459 54.6701 19.2569 52.6292 19.9227C51.9841 20.1515 51.3065 20.3679 50.5962 20.5717L50.4778 20.4941L50.472 20.4904L50.4707 20.4897L50.4093 20.4506L50.4078 20.4499L50.3462 20.4114L50.3447 20.4104L50.2829 20.3725L50.2812 20.3716L50.219 20.3344L50.2174 20.3333L50.1551 20.2967L50.1533 20.2956L50.0906 20.2594L50.0889 20.2584L50.0258 20.2227L50.0239 20.2217L49.9608 20.1867L49.9587 20.1855L49.8953 20.151L49.8932 20.1498L49.8294 20.1159L49.8274 20.1147L49.7633 20.0813L49.7611 20.0801L49.6969 20.0473L49.6946 20.0461L49.6301 20.0139L49.6277 20.0125L49.5631 19.9811L49.5605 19.9797L49.4958 19.9487L49.493 19.9474L49.428 19.9168L49.4252 19.9154L49.3599 19.8856L49.3572 19.8843L49.2917 19.8551L49.2887 19.8535L49.2231 19.8249L49.2199 19.8236L49.1541 19.7953L49.151 19.794L49.0849 19.7664L49.0817 19.7651L49.0154 19.7381L49.0121 19.7367L48.9455 19.7103L48.9421 19.7088L48.8753 19.683L48.8719 19.6815L48.805 19.6563L48.8013 19.6549L48.7343 19.6304L48.7306 19.629L48.6633 19.6048L48.6595 19.6034L48.5922 19.58L48.5882 19.5785L48.5206 19.5558L48.4595 19.5356L48.4488 19.532L48.4447 19.5307L48.3768 19.5088L48.3725 19.5075L48.3045 19.4864L48.3002 19.4851L48.2319 19.4646L48.1591 19.4432L48.1546 19.4419L48.086 19.4226L48.0813 19.4213L48.0126 19.4026L48.0079 19.4012L47.9389 19.3831L47.9341 19.3819L47.865 19.3644L47.8601 19.3631L47.791 19.3462L47.786 19.3448L47.7166 19.3285L47.7114 19.3274L47.642 19.3117L47.6367 19.3105L47.5672 19.2954L47.5619 19.2942L47.4167 19.2648L47.4111 19.2636L47.3413 19.2504L47.3357 19.2492L47.2655 19.2366L47.2598 19.2356L47.1895 19.2235L47.1836 19.2225L47.1135 19.2112L47.1072 19.2102L47.0368 19.1995L47.0307 19.1984L46.9604 19.1882L46.9541 19.1873L46.8836 19.1778L46.8772 19.1769L46.8065 19.168L46.8 19.1673L46.7293 19.1588L46.7227 19.1579L46.6517 19.1504L46.6451 19.1497L46.5741 19.1426L46.5674 19.1419L46.4963 19.1355L46.4894 19.1349L46.4183 19.1291L46.4112 19.1284L46.34 19.1233L46.3329 19.1227L46.2615 19.1182L46.2545 19.1177L46.183 19.1138L46.1756 19.1134L46.1042 19.1101L46.0968 19.1098L46.0253 19.1072L46.0176 19.1068C47.9849 18.75 49.922 18.2425 51.8117 17.5888C55.6914 16.2125 58.1367 14.4704 58.2859 12.6684C58.2881 12.6403 58.2902 12.612 58.2912 12.5838C58.2912 12.555 58.2931 12.5257 58.2931 12.4966C58.2931 9.93377 53.7428 8.08631 51.8117 7.4012C47.4224 5.84392 41.3294 4.88109 34.5734 4.88109C27.8196 4.88109 21.7261 5.84423 17.3359 7.40178C13.3333 8.82169 10.8562 10.631 10.8539 12.4938C10.8539 12.5231 10.8545 12.5522 10.8557 12.5811C10.8557 12.609 10.8588 12.6405 10.8612 12.6684C11.0101 14.4701 13.4563 16.2119 17.3361 17.5884C18.6528 18.0489 19.995 18.4328 21.356 18.7381L21.3529 18.7388L21.297 18.7531L21.2939 18.754L21.2382 18.7684L21.2352 18.7693L21.1795 18.7841L21.1765 18.785L21.1209 18.8003L21.1179 18.8012L21.0627 18.8168L21.0597 18.8176L21.0043 18.8337L21.0014 18.8345L20.9462 18.8509L20.9433 18.8516L20.8883 18.8683L20.8855 18.8692L20.8304 18.8863L20.8277 18.8871L20.7727 18.9045L20.77 18.9054L20.7154 18.9232L20.7127 18.924L20.658 18.9422L20.6553 18.943L20.6009 18.9615L20.5983 18.9622L20.5439 18.9811L20.5415 18.9821L20.4871 19.0013L20.4846 19.002L20.4305 19.0216L20.428 19.0224L20.374 19.0424L20.3715 19.0432L20.3177 19.0634L20.3153 19.0644L20.2615 19.0849L20.2591 19.0858L20.2055 19.1065L20.2031 19.1074L20.1497 19.1287L20.1474 19.1296L20.094 19.1512L20.0919 19.152L20.0385 19.1739L20.0365 19.1748L19.9834 19.1971L19.981 19.1981L19.9283 19.2205L19.9261 19.2216L19.8733 19.2445L19.8711 19.2454L19.8184 19.2687L19.8165 19.2694L19.7639 19.293L19.762 19.2939L19.7095 19.3178L19.7076 19.3188L19.6554 19.343L19.6535 19.3439L19.6013 19.3684L19.5993 19.3693L19.5476 19.3942L19.5457 19.3953L19.4938 19.4205L19.492 19.4213L19.4404 19.4469L19.4387 19.4477L19.3872 19.4737L19.3853 19.4746L19.3342 19.5007L19.3322 19.5017L19.2811 19.5283L19.2793 19.5292L19.2286 19.5561L19.2267 19.557L19.176 19.5841L19.1744 19.585L19.1237 19.6125L19.1221 19.6134L19.0717 19.6413L19.07 19.6422L19.0196 19.6702L19.018 19.671L18.968 19.6996L18.9664 19.7003L18.9165 19.7293L18.915 19.73L18.8652 19.7592L18.8637 19.7601L18.7634 19.8202L18.7618 19.8209L18.7125 19.851L18.711 19.8518L18.6621 19.8822L18.6606 19.883L18.6119 19.9137L18.6105 19.9145L18.5119 19.9776L18.5106 19.9784L18.4623 20.01L18.461 20.0107L18.3637 20.0758L18.3625 20.0765L18.3146 20.109L18.3136 20.1099L18.2659 20.1427L18.2647 20.1433L18.2174 20.1766L18.2162 20.1775L18.1691 20.2109L18.1679 20.2116L18.1209 20.2455L18.12 20.246L18.0732 20.28L18.072 20.2808L18.0255 20.3152L18.0246 20.316L17.978 20.3506L17.977 20.3513L17.9309 20.3863H17.9308L17.9299 20.3869C17.4435 20.2383 16.9731 20.0835 16.5186 19.9223C14.4728 19.2552 12.5566 18.2409 10.8539 16.9237V25.0039C11.0227 26.8046 12.7413 27.9426 14.2008 28.7298L14.2015 28.7407L14.2024 28.7504L14.2031 28.759L14.204 28.7698L14.2056 28.7881L14.2058 28.7915L14.2065 28.7989L14.2081 28.8173L14.209 28.828L14.2095 28.8326L14.2108 28.8465L14.2117 28.857L14.2134 28.8737L14.2136 28.8758L14.2145 28.886L14.2163 28.905L14.2173 28.9148V28.9152L14.2193 28.9343L14.2203 28.9443L14.2216 28.956L14.2223 28.9635L14.2255 28.9928L14.2259 28.9968L14.2264 29.0021L14.2287 29.0217L14.2298 29.0313L14.2305 29.0379L14.232 29.051L14.2331 29.0601L14.2351 29.0789L14.2353 29.0801L14.2363 29.0891L14.2388 29.1093L14.2399 29.1181L14.2402 29.1199L14.2424 29.1384L14.2434 29.1472L14.2452 29.1608L14.2461 29.1675L14.247 29.176L14.2498 29.1966L14.2505 29.2018L14.2509 29.2049L14.2537 29.2257L14.2546 29.234L14.2559 29.2428L14.2577 29.2548L14.2585 29.2628L14.2615 29.2836V29.2839L14.2627 29.2917L14.2657 29.3129L14.2667 29.3207L14.2673 29.3246L14.2698 29.342L14.271 29.3494L14.2732 29.3654L14.2741 29.371L14.2753 29.3783L14.2786 29.4002L14.2795 29.4062V29.4071L14.283 29.4291L14.2839 29.4361L14.2858 29.4469L14.2875 29.458L14.2887 29.4649L14.2922 29.4871V29.4877L14.2932 29.4937L14.2968 29.5159L14.2978 29.5225L14.299 29.5286L14.3015 29.545L14.3027 29.5511L14.3057 29.5692L14.3066 29.574L14.3076 29.5799L14.3115 29.6028L14.3125 29.6087L14.3127 29.6093L14.3128 29.6099L14.3166 29.6317L14.3175 29.6375L14.32 29.6506L14.3218 29.6607L14.3229 29.666L14.3272 29.6895L14.3273 29.6911L14.3279 29.6948L14.3324 29.7184L14.3334 29.7236L14.3349 29.7318L14.3379 29.7472L14.3389 29.7523L14.3426 29.7723L14.3434 29.776L14.3444 29.7808L14.3491 29.8048L14.3498 29.8096L14.3506 29.8128L14.3548 29.8336L14.3555 29.8381L14.3586 29.8534L14.3605 29.8624L14.3613 29.8667L14.3665 29.8911L14.3669 29.8937L14.3672 29.8952L14.3724 29.9199L14.3731 29.9239L14.3754 29.9343L14.3784 29.9487L14.3792 29.9524L14.3841 29.9747L14.3846 29.9773L14.3855 29.981L14.3908 30.0061L14.3915 30.0095L14.3928 30.015L14.397 30.0348L14.3979 30.038L14.4017 30.0553L14.4035 30.0634L14.4041 30.0666L14.41 30.0921L14.4108 30.0949L14.4109 30.0955L14.4167 30.1207L14.4171 30.1234L14.4201 30.1359L14.4232 30.1492L14.424 30.1519L14.4297 30.176L14.4301 30.1777L14.4306 30.1803L14.437 30.2064L14.4375 30.2086L14.4393 30.216L14.4438 30.2349L14.4444 30.2371L14.4491 30.2563L14.4509 30.2635L14.4512 30.2653L14.4581 30.2919L14.4583 30.2937L14.4591 30.2964L14.4652 30.3204L14.4656 30.3219L14.4693 30.3364L14.4726 30.3489L14.4729 30.3503L14.4797 30.3763L14.4798 30.3772L14.4802 30.3786L14.4874 30.4056L14.4876 30.4068L14.4902 30.4165L14.495 30.4341L14.4951 30.435L14.5009 30.4564L14.5025 30.4625L14.5027 30.4631L14.5104 30.4908L14.5105 30.4914L14.5119 30.4962L14.5181 30.519L14.5182 30.5195L14.5228 30.536L14.526 30.5475L14.5261 30.5477L14.5341 30.5757L14.686 31.1091L14.2043 31.4887C13.0058 30.9471 11.8802 30.2566 10.8539 29.4334V37.5602C11.0121 39.0184 12.2931 40.1677 13.8013 41.0408C13.8241 39.9593 13.8602 38.5556 13.8785 38.1071C14.0002 35.2214 16.0581 33.0516 18.7091 32.2822C17.7301 31.067 17.1935 29.5542 17.1877 27.9928C17.1819 26.4314 17.7072 24.9146 18.6771 23.6922C19.647 22.4698 21.0037 21.6146 22.5237 21.2675C24.0438 20.9203 25.6365 21.102 27.0397 21.7825C27.6267 20.1717 28.7424 18.8082 30.204 17.915C31.6656 17.0218 33.3866 16.6519 35.0854 16.8659C36.7843 17.0798 38.3603 17.8649 39.5556 19.0926C40.7509 20.3204 41.4947 21.9181 41.6654 23.6243C42.7734 22.4806 44.2791 21.8087 45.8692 21.7484C47.4592 21.6881 49.0113 22.2439 50.2026 23.3004C51.394 24.3569 52.1328 25.8326 52.2654 27.4207C52.398 29.0087 51.9143 30.5869 50.9148 31.8269ZM53.3182 42.0183C52.5767 42.3326 51.7646 42.631 50.8893 42.9105C49.0764 43.4781 47.2272 43.9216 45.3543 44.2381V35.8512C45.3603 34.7073 45.0705 33.5813 44.5131 32.5828C44.4998 32.3601 44.441 32.1424 44.3402 31.9434C44.2394 31.7444 44.0988 31.5683 43.9272 31.426C43.167 30.9505 42.583 30.2389 42.2642 29.3999C41.9455 28.5608 41.9096 27.6404 42.162 26.779C42.4144 25.9177 42.9412 25.1626 43.662 24.6291C44.3829 24.0956 45.2582 23.8128 46.1545 23.824C47.0507 23.8352 47.9187 24.1398 48.6261 24.6912C49.3334 25.2425 49.8412 26.0105 50.072 26.8779C50.3028 27.7453 50.244 28.6646 49.9045 29.4954C49.5649 30.3262 48.9634 31.0229 48.1916 31.4794C47.7443 31.7445 47.3142 33.4063 48.2705 33.5171L49.547 33.6653C51.5415 33.8967 53.1462 35.3116 53.1976 37.3221L53.3182 42.0183ZM42.816 44.6177C42.0352 44.7163 41.2361 44.801 40.4189 44.8718C40.3386 42.1697 40.1878 39.4878 39.9667 36.6293V44.9093C38.2339 45.0468 36.4289 45.1192 34.5734 45.1192C32.5214 45.1192 30.5308 45.0303 28.6307 44.8629V36.6293C28.411 39.4702 28.2606 42.1366 28.18 44.8217C27.2531 44.7332 26.3499 44.6265 25.4702 44.5016V35.8512C25.4663 35.1288 25.6522 34.418 26.0094 33.7903L26.0237 33.7655L26.0579 33.7073L26.0698 33.6875L26.1205 33.6066L26.1266 33.5975L26.1712 33.5293L26.1878 33.505L26.1943 33.4951L26.2362 33.435L26.2394 33.4307L26.2984 33.3501L26.3037 33.3434L26.3626 33.2669L26.3646 33.264L26.3683 33.2594L26.423 33.1919L26.4411 33.1701L26.4976 33.1036L26.498 33.1029L26.567 33.0256L26.5685 33.024L26.6328 32.9551L26.6438 32.9435L26.7102 32.8754L26.7123 32.8735L26.7814 32.8056L26.7935 32.794L26.8642 32.7283L26.8707 32.7223C26.9181 32.6791 26.9664 32.6371 27.0158 32.5956L27.0281 32.5852C27.0792 32.5426 27.1318 32.5008 27.1851 32.4601L27.1935 32.4538L27.2743 32.3935V32.3934C27.3289 32.3534 27.3847 32.3147 27.4412 32.277L27.4495 32.2714L27.4593 32.265C27.5431 32.2094 27.6286 32.1563 27.7159 32.1054L27.7233 32.101L27.7329 32.0959L27.81 32.0521L27.8229 32.045L27.913 31.9964L27.9155 31.9949L28.0002 31.9517L28.022 31.9407C28.1102 31.8968 28.2 31.8552 28.2913 31.8159L28.3224 31.8025L28.3322 31.7983L28.4037 31.7688L28.4092 31.7666L28.4208 31.762L28.5031 31.7298L28.5248 31.7215L28.5986 31.6942L28.6158 31.6878L28.6214 31.6859L28.7167 31.6526L28.7293 31.6483L28.8086 31.6224L28.8331 31.6146C28.8973 31.5946 28.9622 31.5754 29.0273 31.5573L29.0522 31.5505L29.1344 31.5288L29.147 31.5255L29.15 31.5246L29.1624 31.5217C29.2311 31.5043 29.3003 31.4882 29.37 31.4733L29.379 31.4713L29.457 31.4554L29.4812 31.4507L29.5022 31.4468L29.5711 31.4342L29.5932 31.4301L29.6144 31.4264L29.6936 31.4136L29.7057 31.4115L29.7343 31.4073L29.8003 31.398L29.8336 31.3934L29.9331 31.3808L31.4283 31.2072C32.6854 31.0613 32.2057 29.0969 31.4832 28.6435C31.2799 28.516 31.0859 28.3743 30.9026 28.2192L30.8551 28.1784L30.852 28.1756L30.8018 28.1313L30.7965 28.1267L30.7808 28.1123L30.7403 28.0755L30.7387 28.074L30.7033 28.0409L30.6818 28.0207L30.6549 27.9947L30.6258 27.9664L30.6071 27.948L30.5703 27.9112L30.5599 27.9006L30.5159 27.8551L30.5134 27.8526L30.4676 27.8039L30.4626 27.7982L30.4224 27.7546L30.4222 27.7544L30.3912 27.7198L30.3777 27.7047L30.358 27.682L30.3529 27.6759L30.3136 27.6301L30.3072 27.6228L30.2908 27.6031L30.2571 27.5626L30.2481 27.5516L30.2081 27.5017L30.2061 27.4992L30.1649 27.4465L30.16 27.4401L30.1243 27.3932L30.1129 27.3777L30.0846 27.3392L30.0667 27.3144L30.0622 27.3082L30.0263 27.2575L30.0177 27.2452L29.9818 27.193L29.9771 27.186L29.9692 27.1743L29.9338 27.1207L29.9323 27.1183L29.896 27.0617L29.8914 27.0545L29.8606 27.0047L29.8502 26.9877L29.8413 26.9727L29.8152 26.929L29.8099 26.9201L29.7918 26.8889L29.7708 26.8521L29.7585 26.8303L29.7325 26.7833L29.726 26.7714L29.6952 26.7138L29.6943 26.7118L29.6632 26.6519L29.6592 26.6435L29.6331 26.5913L29.6242 26.5729L29.6037 26.5303L29.5902 26.5016L29.5751 26.4688L29.5573 26.4297L29.5549 26.424L29.532 26.3717L29.5256 26.3569L29.5204 26.3449L29.4949 26.2839L29.4942 26.2822L29.469 26.219L29.4509 26.1721L29.4444 26.1553L29.437 26.1357L29.4208 26.0915L29.4098 26.0607L29.406 26.0499L29.3852 25.9893L29.383 25.9828L29.3588 25.9093L29.3549 25.8972L29.3352 25.8329L29.3347 25.8315L29.3154 25.7656L29.3126 25.7558L29.2969 25.6993L29.2913 25.6783L29.2793 25.6326L29.2759 25.6183L29.2653 25.5768L29.2626 25.5655L29.2523 25.5217L29.2502 25.5128L29.2368 25.4531L29.2345 25.4427L29.232 25.4304L29.218 25.3633L29.2179 25.3624L29.2048 25.2941L29.2029 25.2833L29.1927 25.2253L29.1917 25.2193L29.1848 25.177L29.1814 25.1562L29.1764 25.1222L29.1712 25.0869L29.1649 25.0412L29.1639 25.0327C29.1573 24.9812 29.1513 24.9294 29.1461 24.8774L29.146 24.877L29.1396 24.8065L29.1386 24.795L29.1341 24.7356L29.1338 24.7296L29.1304 24.6764L29.1292 24.6554L29.127 24.6139L29.1244 24.546V24.5455L29.1227 24.4788L29.1223 24.4619L29.1221 24.4499L29.1217 24.3777C29.1217 24.3374 29.1223 24.2977 29.1232 24.2579L29.1233 24.2479L29.1235 24.2431C29.1244 24.2033 29.126 24.1636 29.1279 24.1242L29.1282 24.119L29.1287 24.1093L29.1353 24.006L29.1363 23.9913V23.9906L29.1374 23.9766L29.1413 23.9327L29.1426 23.918L29.1439 23.9033L29.1452 23.8888L29.1467 23.874L29.1497 23.8448L29.1513 23.8303L29.1562 23.7866L29.1578 23.7721L29.1598 23.7575L29.1633 23.7286L29.1651 23.714L29.1672 23.6995L29.1691 23.6852L29.1733 23.6563L29.1753 23.6419L29.1774 23.6273L29.1819 23.5987L29.1841 23.5843L29.1864 23.5699L29.1887 23.5558L29.191 23.5414L29.1935 23.527L29.196 23.5127L29.2035 23.4698L29.2061 23.4557L29.2088 23.4415C29.3652 22.6154 29.7258 21.8417 30.2578 21.1912C30.7898 20.5408 31.4762 20.0343 32.2541 19.7181C33.032 19.4019 33.8767 19.286 34.7109 19.3812C35.5451 19.4763 36.3421 19.7794 37.0291 20.2627C37.7161 20.746 38.2711 21.3941 38.6435 22.1477C39.0158 22.9013 39.1935 23.7364 39.1604 24.5766C39.1272 25.4168 38.8843 26.2352 38.4538 26.957C38.0233 27.6789 37.4189 28.2811 36.696 28.7087C36.1495 29.033 35.6236 31.0641 36.7926 31.1995L38.3532 31.3808C39.1253 31.4671 39.8718 31.7092 40.5478 32.0926L40.5814 32.1122L40.6389 32.1462L40.6753 32.1686L40.6768 32.1695L40.7091 32.1894L40.7413 32.2096L40.7469 32.213L40.7733 32.2301L40.8229 32.2624L40.8367 32.2715V32.2716L40.8682 32.2927L40.8994 32.3141L40.9252 32.3317L40.9305 32.3356L40.9613 32.3573L40.9919 32.3792L40.9945 32.3812L41.0225 32.4014L41.0526 32.424L41.0828 32.4464L41.0973 32.4572L41.1126 32.469L41.1422 32.4922L41.1717 32.5154L41.1811 32.5227L41.201 32.5389L41.23 32.5624L41.2358 32.5672L41.2843 32.6074L41.2875 32.6102L41.3159 32.6346L41.3434 32.6582L41.3443 32.6591L41.3722 32.6836L41.4 32.7085L41.4052 32.7133L41.4276 32.7336L41.4549 32.7589L41.4821 32.7844L41.4826 32.7848L41.509 32.8099L41.5356 32.8359L41.562 32.8619L41.5883 32.8882L41.6144 32.9146L41.64 32.9412L41.6671 32.9698L41.7134 33.0195L41.716 33.0223L41.7189 33.0253L41.7408 33.0497L41.7654 33.0773L41.7737 33.0871L41.8025 33.1199L41.8139 33.1331L41.8377 33.1613L41.856 33.1831L41.8613 33.1897L41.8669 33.1965L41.9102 33.2499L41.9291 33.274L41.9757 33.3344L41.9852 33.3469L41.9978 33.3638L42.0392 33.4204L42.0591 33.4484L42.0626 33.4535L42.0836 33.4836L42.1047 33.514L42.1065 33.5167L42.1094 33.5213L42.1603 33.598L42.1638 33.6037L42.1655 33.6064L42.2169 33.6888L42.2191 33.6922L42.2239 33.7C42.6155 34.3487 42.8204 35.0932 42.816 35.8512V44.6177ZM22.932 44.0794C21.2119 43.7571 19.5149 43.3216 17.852 42.7757C17.3734 42.6157 16.7942 42.4138 16.1763 42.1685V38.3788C16.1763 36.1471 18.0138 34.5787 20.2265 34.3219L21.5834 34.1644C22.7243 34.032 22.2891 32.249 21.6332 31.8376C21.1203 31.5167 20.6763 31.0969 20.327 30.6025C19.9777 30.1081 19.7302 29.549 19.5988 28.9579C19.4675 28.3667 19.4549 27.7552 19.5619 27.1592C19.6688 26.5631 19.8932 25.9943 20.2218 25.4859C20.5505 24.9775 20.9768 24.5397 21.4761 24.198C21.9754 23.8563 22.5376 23.6176 23.1299 23.4957C23.7223 23.3738 24.3329 23.3711 24.9263 23.4879C25.5197 23.6047 26.0839 23.8386 26.5861 24.176C26.5843 24.2431 26.5834 24.3103 26.5834 24.3777C26.5828 26.1086 27.175 27.7872 28.2611 29.1335C25.2486 30.0078 22.932 32.5224 22.932 35.8512V44.0794ZM60.7662 12.4938V12.5036C60.7662 12.5363 60.7654 12.5689 60.7646 12.6016V12.605L60.7644 12.6081V12.6114L60.7641 12.6147V12.6179L60.7639 12.6212L60.7623 12.6668L60.7621 12.67L60.762 12.6733L60.7619 12.6764L60.7617 12.6796L60.7616 12.6831V12.6864L60.7614 12.6894L60.7612 12.6927L60.761 12.6961L60.7608 12.6992L60.7607 12.7025V12.7036L60.7171 25.0039H60.7614C60.7673 25.0734 60.767 25.1432 60.7607 25.2126L60.7167 37.657C60.7194 37.8284 60.7133 37.9998 60.6985 38.1705C60.6763 38.3762 60.6348 38.5793 60.5744 38.7772C59.7956 41.4318 56.4922 43.7093 51.6331 45.2615C47.0909 46.7125 41.1086 47.5959 34.5734 47.5959C27.8232 47.5959 21.6624 46.6538 17.0695 45.1172C12.1368 43.4665 8.90764 41.041 8.44575 38.2205L8.38086 37.6012V12.4966C8.38086 8.58372 13.423 6.16684 16.5149 5.06989C21.1577 3.42269 27.5448 2.4043 34.5734 2.4043C41.6043 2.4043 47.9908 3.42253 52.6327 5.06947C57.6568 6.85179 60.7641 9.46705 60.7662 12.4938Z" fill="#003A69"/>
</svg>
