<svg width="585" height="673" viewBox="0 0 585 673" fill="none" xmlns="http://www.w3.org/2000/svg">
<circle cx="292.5" cy="292.5" r="292" stroke="#FDBF0D"/>
<g filter="url(#filter0_d_814_14645)">
<path d="M73 548C73 546.343 74.3431 545 76 545H508.035C509.692 545 511.035 546.343 511.035 548V630C511.035 631.657 509.692 633 508.035 633H76C74.3431 633 73 631.657 73 630V548Z" fill="#FBFEFF" shape-rendering="crispEdges"/>
<g clip-path="url(#clip0_814_14645)">
<path d="M113.084 606.799H115.839V595.885L120.106 605.399C120.609 606.551 121.298 606.958 122.65 606.958C124.001 606.958 124.664 606.551 125.167 605.399L129.434 595.885V606.799H132.19V595.903C132.19 594.84 131.766 594.326 130.891 594.061C128.797 593.405 127.392 593.973 126.756 595.39L122.57 604.78L118.516 595.389C117.906 593.973 116.475 593.405 114.382 594.06C113.507 594.326 113.083 594.84 113.083 595.903V606.799H113.084ZM134.482 597.915H137.237V603.928C137.211 604.254 137.341 605.021 138.851 605.045C139.621 605.057 144.796 605.045 144.844 605.045V597.885H147.606C147.619 597.885 147.603 607.649 147.603 607.689C147.618 610.098 144.624 610.62 143.243 610.661H134.541V608.801C134.556 608.801 143.237 608.803 143.259 608.801C145.033 608.613 144.823 607.729 144.823 607.432V606.707H138.966C136.241 606.682 134.505 605.489 134.482 604.117C134.481 603.991 134.542 597.975 134.482 597.915Z" fill="#707070"/>
<path d="M149.73 606.799H157.654C158.582 606.799 159.484 606.604 160.199 606.268C161.391 605.719 161.974 604.975 161.974 604V601.98C161.974 601.183 161.312 600.438 160.013 599.943C159.324 599.677 158.475 599.536 157.654 599.536H154.314C153.201 599.536 152.671 599.2 152.539 598.456C152.513 598.367 152.513 598.296 152.513 598.207V596.949C152.513 596.879 152.513 596.807 152.539 596.719C152.671 596.152 152.963 595.993 153.944 595.904L154.209 595.886H162.08V594.045H154.342C153.229 594.045 152.646 594.115 152.116 594.275C150.473 594.789 149.757 595.603 149.757 597.021V598.633C149.757 599.873 151.162 600.936 153.52 601.184C153.786 601.201 154.05 601.22 154.315 601.22H157.177C157.283 601.22 157.389 601.22 157.469 601.237C158.344 601.307 158.714 601.467 158.98 601.786C159.139 601.945 159.191 602.105 159.191 602.281V603.894C159.191 604.088 159.059 604.337 158.794 604.549C158.556 604.762 158.158 604.904 157.628 604.939L157.336 604.957H149.73V606.799ZM179.167 603.593C179.167 605.488 180.572 606.551 183.407 606.764C183.672 606.781 183.937 606.799 184.202 606.799H191.384V604.957H184.149C182.533 604.957 181.923 604.549 181.923 603.574V594.043H179.168V603.593H179.167ZM163.733 603.688V597.119C163.733 595.451 164.901 594.438 167.212 594.119C167.45 594.083 167.717 594.065 167.955 594.065H173.187C173.452 594.065 173.691 594.083 173.956 594.119C176.266 594.438 177.436 595.45 177.436 597.119V603.688C177.436 605.043 176.939 605.767 175.795 606.239L178.511 608.697H175.31L173.114 606.708L170.903 606.849H167.955C167.45 606.849 166.92 606.778 166.335 606.618C164.583 606.139 163.733 605.215 163.733 603.688ZM166.707 603.529C166.707 603.617 166.733 603.707 166.76 603.813C166.919 604.577 167.637 605.003 168.725 605.003H171.228L168.929 602.921H172.129L174.135 604.737C174.505 604.538 174.748 604.237 174.833 603.849C174.859 603.76 174.859 603.671 174.859 603.582V597.28C174.859 597.21 174.859 597.12 174.833 597.031C174.673 596.321 173.956 595.913 172.894 595.913H168.724C167.503 595.913 166.706 596.446 166.706 597.28V603.529H166.707Z" fill="#CDCDCD"/>
<path d="M193.808 590.986C192.115 590.94 190.821 591.098 189.714 591.566C189.399 591.699 188.898 591.702 188.847 592.097C189.019 592.279 189.046 592.55 189.184 592.774C189.448 593.202 189.894 593.777 190.292 594.078C190.726 594.406 191.174 594.759 191.641 595.044C192.469 595.551 193.395 595.841 194.194 596.348C194.664 596.648 195.131 597.025 195.591 597.363C195.818 597.529 195.97 597.79 196.266 597.894V597.846C196.111 597.648 196.07 597.377 195.928 597.169L195.302 596.541C194.689 595.726 193.912 595.011 193.085 594.416C192.427 593.942 190.952 593.301 190.677 592.532L190.629 592.484C191.096 592.431 191.643 592.261 192.074 592.145C192.798 591.95 193.445 592.001 194.193 591.807L195.205 591.516V591.324C194.827 590.935 194.557 590.42 194.145 590.068C193.067 589.147 191.889 588.227 190.677 587.459C190.005 587.033 189.174 586.757 188.461 586.396C188.222 586.275 187.8 586.212 187.641 586.01C187.266 585.531 187.063 584.925 186.774 584.367C186.17 583.2 185.576 581.925 185.04 580.696C184.675 579.858 184.436 579.032 183.981 578.281C181.793 574.674 179.439 572.497 175.791 570.358C175.015 569.902 174.081 569.723 173.094 569.489L171.504 569.392C171.181 569.257 170.845 568.86 170.541 568.667C169.332 567.902 166.233 566.237 165.338 568.426C164.773 569.808 166.183 571.156 166.687 571.857C167.04 572.348 167.494 572.898 167.747 573.45C167.913 573.814 167.941 574.178 168.084 574.562C168.434 575.508 168.739 576.538 169.192 577.411C169.42 577.854 169.673 578.32 169.963 578.716C170.14 578.958 170.444 579.066 170.492 579.44C170.195 579.857 170.177 580.506 170.01 581.034C169.257 583.415 169.541 586.374 170.637 588.136C170.973 588.678 171.764 589.837 172.852 589.392C173.804 589.003 173.592 587.798 173.865 586.735C173.926 586.495 173.888 586.317 174.009 586.155V586.204L174.876 587.943C175.518 588.98 176.657 590.062 177.622 590.793C178.122 591.172 178.517 591.828 179.164 592.049V592H179.116C178.99 591.804 178.795 591.724 178.634 591.566C178.257 591.195 177.837 590.735 177.526 590.31C176.648 589.115 175.872 587.806 175.165 586.445C174.828 585.795 174.535 585.078 174.25 584.416C174.14 584.161 174.142 583.775 173.914 583.644C173.601 584.128 173.143 584.52 172.901 585.093C172.516 586.007 172.467 587.124 172.324 588.281L172.227 588.328C171.556 588.166 171.32 587.473 171.071 586.879C170.44 585.377 170.323 582.957 170.878 581.228C171.022 580.78 171.67 579.37 171.407 578.957C171.282 578.544 170.868 578.306 170.637 577.99C170.351 577.6 170.064 577.088 169.867 576.637C169.35 575.466 169.109 574.151 168.567 572.966C168.306 572.4 167.868 571.827 167.507 571.324C167.107 570.766 166.66 570.355 166.35 569.681C166.24 569.442 166.09 569.057 166.253 568.811C166.305 568.645 166.38 568.576 166.543 568.521C166.822 568.305 167.601 568.593 167.892 568.714C168.664 569.037 169.309 569.343 169.964 569.777C170.278 569.987 170.595 570.39 170.975 570.502H171.409C172.087 570.658 172.847 570.55 173.48 570.743C174.601 571.084 175.604 571.615 176.515 572.192C179.292 573.951 181.561 576.453 183.115 579.439C183.364 579.92 183.473 580.378 183.692 580.888C184.136 581.916 184.696 582.974 185.137 583.98C185.578 584.983 186.008 585.995 186.631 586.83C186.959 587.269 188.224 587.504 188.799 587.748C189.202 587.919 189.862 588.097 190.244 588.327C190.973 588.768 191.68 589.294 192.363 589.777C192.705 590.02 193.756 590.55 193.808 590.986ZM172.276 572.581C171.923 572.574 171.672 572.62 171.408 572.678V572.726H171.456C171.625 573.074 171.922 573.297 172.131 573.596L172.613 574.61L172.661 574.562C172.959 574.352 173.095 574.015 173.094 573.499C172.974 573.373 172.956 573.215 172.853 573.065C172.716 572.863 172.449 572.75 172.276 572.581Z" fill="#707070"/>
</g>
<g clip-path="url(#clip1_814_14645)">
<path d="M294.879 579.936L288.552 582.056L283.047 584.55L281.507 584.967C281.115 585.35 280.704 585.738 280.259 586.13C279.771 586.562 279.317 586.955 278.967 587.24C278.58 587.554 278.006 588.143 277.715 588.516C277.279 589.075 276.935 589.669 276.787 590.126C276.524 590.95 276.653 591.785 277.16 592.555C277.81 593.537 279.106 594.538 280.617 595.221C281.388 595.569 282.684 596.016 283.659 596.266C285.28 596.688 288.418 597.145 290.144 597.213C290.493 597.228 290.962 597.228 290.981 597.213C291.019 597.189 291.287 596.664 291.598 596.011C292.66 593.787 293.425 591.701 293.841 589.92C294.09 588.84 294.286 587.402 294.415 585.698C294.448 585.222 294.463 583.627 294.434 583.087C294.391 582.204 294.314 581.487 294.195 580.785C294.176 580.682 294.171 580.589 294.181 580.584C294.2 580.569 294.257 580.549 295.037 580.319L294.879 579.936V579.936H294.879V579.936ZM293.435 580.805C293.492 580.805 293.645 582.311 293.683 583.264C293.693 583.465 293.688 583.598 293.679 583.598C293.64 583.598 292.87 583.131 292.32 582.778C291.842 582.469 290.933 581.85 290.79 581.732C290.742 581.698 290.747 581.693 291.139 581.556C291.804 581.325 293.382 580.805 293.435 580.805ZM290.211 581.894C290.254 581.894 290.364 581.958 290.627 582.125C291.612 582.758 292.952 583.524 293.526 583.779C293.702 583.858 293.721 583.828 293.315 584.113C292.445 584.722 291.359 585.32 290.029 585.924C289.795 586.032 289.599 586.115 289.594 586.115C289.585 586.115 289.613 585.993 289.652 585.846C289.972 584.623 290.154 583.386 290.163 582.395C290.168 581.904 290.168 581.904 290.211 581.889C290.202 581.894 290.206 581.894 290.211 581.894ZM289.546 582.154C289.575 582.184 289.556 583.283 289.518 583.583C289.432 584.299 289.298 584.967 289.078 585.718C289.025 585.899 288.977 586.052 288.968 586.061C288.949 586.086 288.293 585.428 288.078 585.173C287.705 584.731 287.413 584.29 287.198 583.858C287.088 583.637 286.916 583.205 286.93 583.19C287.007 583.136 289.527 582.135 289.546 582.154ZM286.419 583.416C286.423 583.416 286.428 583.416 286.433 583.421C286.443 583.431 286.476 583.509 286.505 583.597C286.658 584.025 287.002 584.653 287.299 585.055C287.624 585.497 288.05 585.968 288.403 586.277C288.518 586.376 288.623 586.469 288.638 586.484C288.666 586.513 288.676 586.508 287.896 586.812C286.993 587.166 286.007 587.519 284.879 587.892C284.609 587.981 284.34 588.071 284.071 588.162C284.027 588.177 284.042 588.152 284.166 587.951C284.726 587.053 285.577 585.291 286.055 584.044C286.137 583.828 286.218 583.612 286.232 583.563C286.251 583.494 286.275 583.47 286.337 583.435C286.371 583.426 286.404 583.416 286.419 583.416ZM285.462 583.823C285.477 583.833 285.233 584.358 284.994 584.839C284.53 585.767 284.023 586.68 283.344 587.789C283.229 587.981 283.119 588.157 283.104 588.177C283.081 588.211 283.071 588.202 282.994 588.049C282.832 587.721 282.698 587.298 282.626 586.911C282.554 586.528 282.569 585.86 282.65 585.448C282.712 585.144 282.707 585.149 282.851 585.075C283.463 584.756 285.443 583.804 285.462 583.823ZM293.712 584.167V584.373C293.712 585.468 293.597 586.97 293.43 588.064C293.401 588.256 293.377 588.413 293.372 588.418C293.372 588.418 293.234 588.378 293.071 588.329C292.354 588.098 291.574 587.76 290.871 587.362C290.407 587.102 289.733 586.675 289.752 586.655C289.757 586.651 289.958 586.543 290.192 586.415C291.129 585.914 292.029 585.374 292.808 584.839C293.1 584.638 293.54 584.314 293.636 584.226L293.712 584.167ZM281.851 585.62C281.87 585.62 281.866 585.659 281.837 585.836C281.818 585.963 281.794 586.199 281.784 586.361C281.746 587.077 281.861 587.608 282.205 588.334C282.301 588.535 282.378 588.702 282.373 588.707C282.339 588.737 279.173 589.689 278.178 589.969C277.882 590.052 277.624 590.126 277.604 590.13C277.571 590.14 277.566 590.135 277.581 590.052C277.691 589.33 278.226 588.388 278.972 587.593C279.47 587.063 279.867 586.754 280.546 586.356C281.034 586.071 281.784 585.644 281.842 585.625C281.842 585.62 281.847 585.62 281.851 585.62ZM289.312 586.989C289.317 586.984 289.432 587.048 289.57 587.131C290.594 587.74 292.019 588.305 293.234 588.594L293.344 588.619L293.191 588.707C292.555 589.07 290.465 589.964 288.327 590.783C288.016 590.901 287.71 591.019 287.652 591.043C287.595 591.068 287.542 591.083 287.542 591.078C287.542 591.073 287.629 590.901 287.739 590.69C288.336 589.541 288.939 588.143 289.245 587.171C289.283 587.077 289.307 586.994 289.312 586.989ZM288.552 587.244C288.557 587.249 288.518 587.352 288.47 587.47C288.054 588.506 287.509 589.635 286.811 590.901C286.634 591.225 286.486 591.485 286.481 591.485C286.476 591.485 286.333 591.397 286.16 591.289C285.146 590.651 284.247 589.865 283.659 589.105L283.573 588.997L284.008 588.874C285.567 588.437 286.892 587.966 288.207 587.387C288.394 587.308 288.547 587.244 288.552 587.244ZM293.277 588.938C293.277 588.938 293.282 588.943 293.277 588.938C293.282 589.051 293.038 590.062 292.837 590.793C292.669 591.407 292.526 591.888 292.263 592.737C292.148 593.11 292.048 593.419 292.043 593.419C292.038 593.419 292.009 593.414 291.981 593.404C290.56 593.139 289.288 592.771 288.093 592.28C287.758 592.143 287.28 591.922 287.251 591.897C287.241 591.888 287.528 591.75 287.892 591.588C290.068 590.611 292.325 589.502 293.1 589.026C293.191 588.967 293.262 588.938 293.277 588.938ZM282.368 589.321C282.377 589.33 281.77 590.229 280.919 591.451C280.622 591.878 280.278 592.379 280.149 592.565C280.02 592.752 279.824 593.046 279.714 593.223L279.513 593.542L279.297 593.355C279.044 593.139 278.604 592.678 278.408 592.423C277.997 591.898 277.719 591.343 277.609 590.837C277.557 590.602 277.557 590.484 277.604 590.469C277.676 590.45 278.953 590.14 280.149 589.856C280.814 589.699 281.584 589.512 281.861 589.443C282.138 589.375 282.363 589.321 282.368 589.321ZM282.98 589.561L283.133 589.738C283.822 590.528 284.525 591.112 285.376 591.623C285.529 591.711 285.644 591.79 285.634 591.795C285.601 591.819 282.679 592.884 281.325 593.365C280.565 593.64 279.938 593.861 279.934 593.861C279.929 593.861 279.886 593.831 279.838 593.797L279.752 593.733L279.891 593.527C280.34 592.86 280.905 592.128 282.134 590.607L282.98 589.561ZM286.797 592.364C286.801 592.359 287.012 592.437 287.27 592.536C287.892 592.776 288.384 592.928 289.044 593.1C289.857 593.311 291.034 593.517 291.727 593.576C291.833 593.586 291.89 593.596 291.871 593.611C291.837 593.63 291.134 593.871 290.618 594.038C289.795 594.303 287.284 595.063 285.237 595.667C284.86 595.78 284.534 595.873 284.515 595.878C284.467 595.888 284.31 595.844 284.31 595.824C284.31 595.814 284.424 595.662 284.563 595.495C285.252 594.651 285.936 593.709 286.505 592.815C286.663 592.57 286.797 592.369 286.797 592.364ZM285.955 592.388C285.96 592.393 285.62 592.953 285.027 593.915C284.773 594.322 284.491 594.784 284.391 594.946C284.295 595.103 284.152 595.348 284.07 595.486L283.932 595.736L283.86 595.716C283.688 595.667 282.478 595.23 282.157 595.098C281.76 594.936 281.349 594.739 281.043 594.573C280.661 594.362 280.182 594.047 280.221 594.038C280.23 594.033 280.885 593.851 281.674 593.63C283.769 593.046 284.931 592.707 285.692 592.462C285.83 592.418 285.95 592.383 285.955 592.388ZM291.909 593.822H291.914C291.933 593.871 291.158 596.079 290.876 596.776C290.814 596.933 290.79 596.973 290.756 596.968C290.675 596.963 289.551 596.801 288.867 596.698C287.677 596.511 285.677 596.153 285.175 596.035L285.06 596.011L285.773 595.844C287.303 595.49 288.04 595.299 288.786 595.063C289.728 594.769 290.661 594.401 291.603 593.949C291.751 593.88 291.876 593.826 291.909 593.822Z" fill="url(#paint0_linear_814_14645)"/>
<path d="M288.356 564.798C288.25 564.784 286.553 565.412 285.457 565.868C283.98 566.487 282.832 567.076 282.124 567.586C281.861 567.778 281.531 568.116 281.478 568.249C281.459 568.298 281.45 568.357 281.45 568.416L282.091 569.039L283.616 569.54L287.246 570.207L291.397 570.939L291.44 570.571C291.426 570.571 291.416 570.566 291.402 570.566L290.857 570.477L290.747 570.276C290.183 569.255 289.561 567.989 289.197 567.135C288.915 566.472 288.647 565.706 288.499 565.157C288.418 564.823 288.408 564.803 288.356 564.798V564.798H288.356V564.798ZM288.279 565.049H288.284C288.289 565.054 288.308 565.191 288.327 565.353C288.408 566.04 288.557 566.703 288.791 567.419C288.968 567.959 288.968 567.93 288.762 567.866C288.274 567.729 286.089 567.341 284.506 567.115C284.252 567.081 284.037 567.046 284.037 567.042C284.018 567.022 285.18 566.399 285.692 566.153C286.347 565.844 288.145 565.073 288.279 565.049ZM283.669 567.248L283.855 567.311C284.869 567.665 287.418 568.166 288.824 568.283C288.982 568.298 289.116 568.313 289.121 568.313C289.126 568.318 288.992 568.391 288.819 568.475C288.14 568.823 287.394 569.25 286.878 569.579C286.725 569.677 286.586 569.756 286.567 569.756C286.548 569.756 286.447 569.736 286.342 569.721L286.151 569.692L285.673 569.211C284.831 568.372 284.171 567.724 283.918 567.478L283.669 567.248ZM283.478 567.4L284.152 568.264C284.52 568.74 284.893 569.206 284.974 569.309C285.056 569.412 285.123 569.496 285.118 569.501C285.099 569.515 284.142 569.324 283.635 569.206C283.114 569.083 282.899 569.024 282.578 568.921L282.315 568.833V568.764C282.32 568.435 282.727 567.945 283.415 567.444L283.478 567.4ZM289.207 568.578C289.226 568.578 289.25 568.622 289.307 568.755C289.47 569.123 289.977 570.114 290.101 570.306C290.14 570.369 290.206 570.374 289.532 570.261C287.911 569.991 287.39 569.903 287.39 569.893C287.39 569.888 287.437 569.854 287.5 569.82C288.002 569.535 288.509 569.172 288.958 568.784C289.068 568.691 289.169 568.602 289.188 568.588C289.193 568.578 289.202 568.573 289.207 568.578Z" fill="url(#paint1_linear_814_14645)"/>
<path d="M281.512 568.18C281.512 568.18 281.406 568.352 281.507 568.608C281.569 568.765 281.751 568.956 281.956 569.152C281.956 569.152 284.085 571.283 284.343 571.587C285.519 572.981 286.031 574.355 286.079 576.25C286.108 577.467 285.883 578.537 285.323 579.779C284.329 582.007 282.229 584.466 278.991 587.196L279.465 587.034C279.771 586.798 280.187 586.548 281.163 585.998C283.415 584.731 285.95 583.568 289.058 582.371C293.535 580.643 300.895 578.62 305.085 577.963L305.52 577.894L305.453 577.786C305.07 577.177 304.807 576.8 304.491 576.397C303.573 575.229 302.459 574.282 301.096 573.496C299.221 572.421 296.796 571.582 293.726 570.959C293.147 570.841 291.875 570.615 290.842 570.453C288.652 570.105 287.236 569.864 285.677 569.589C285.118 569.491 284.281 569.344 283.726 569.221C283.439 569.157 282.889 569.025 282.459 568.873C282.114 568.735 281.617 568.598 281.512 568.18ZM282.746 569.408C282.75 569.403 282.827 569.432 282.927 569.466C283.109 569.53 283.343 569.604 283.621 569.682C283.831 569.742 284.041 569.799 284.252 569.854C284.539 569.928 284.778 569.997 284.783 569.997C284.816 570.031 285.299 571.616 285.462 572.225C285.524 572.456 285.572 572.652 285.567 572.652C285.562 572.657 285.51 572.573 285.448 572.461C284.888 571.449 284.003 570.424 282.98 569.599C282.846 569.501 282.746 569.412 282.746 569.408ZM285.099 570.075C285.122 570.075 285.228 570.09 285.357 570.119C286.17 570.306 287.628 570.59 288.561 570.752C288.719 570.777 288.843 570.806 288.843 570.816C288.843 570.826 288.786 570.86 288.714 570.9C288.556 570.983 287.92 571.371 287.71 571.518C287.179 571.881 286.701 572.274 286.356 572.627C286.218 572.77 286.098 572.888 286.098 572.888C286.098 572.888 286.069 572.804 286.045 572.701C285.873 572.019 285.515 571.008 285.189 570.296C285.137 570.183 285.094 570.08 285.094 570.07C285.094 570.08 285.094 570.075 285.099 570.075ZM289.24 570.885C289.269 570.895 289.317 571.062 289.412 571.43C289.589 572.142 289.671 572.937 289.642 573.678C289.632 573.884 289.623 574.075 289.613 574.1L289.599 574.149L289.35 574.066C288.838 573.899 288.006 573.648 287.294 573.442C286.887 573.329 286.557 573.226 286.557 573.216C286.557 573.187 287.15 572.578 287.404 572.348C287.887 571.911 289.197 570.87 289.24 570.885ZM289.57 570.934C289.585 570.919 291.55 571.268 292.444 571.444C293.109 571.577 294.075 571.783 294.133 571.808C294.161 571.818 294.061 571.876 293.74 572.024C292.478 572.608 291.541 573.133 290.608 573.771C290.364 573.938 290.158 574.075 290.154 574.075C290.149 574.075 290.144 573.933 290.144 573.761C290.144 572.829 289.962 571.886 289.628 571.091C289.594 571.013 289.565 570.939 289.57 570.934ZM294.654 571.965C294.668 571.98 294.606 572.377 294.549 572.613C294.377 573.344 293.913 574.429 293.344 575.45C293.243 575.631 293.152 575.779 293.143 575.784C293.133 575.788 293.004 575.715 292.856 575.626C292.301 575.293 291.67 574.979 290.981 574.684C290.79 574.601 290.622 574.532 290.618 574.522C290.584 574.493 292.124 573.447 292.937 572.946C293.583 572.544 294.635 571.945 294.654 571.965ZM295.017 572.024C295.06 572.024 295.931 572.269 296.385 572.407C297.509 572.75 298.8 573.236 299.642 573.629L299.991 573.791L299.747 573.85C297.691 574.336 295.931 574.895 294.233 575.602C294.094 575.661 293.97 575.71 293.961 575.71C293.951 575.71 293.999 575.597 294.061 575.46C294.573 574.345 294.903 573.182 294.984 572.191C294.989 572.097 295.003 572.024 295.017 572.024ZM286.352 574.066C286.366 574.051 287.031 574.213 287.389 574.316C287.935 574.473 289.092 574.87 289.092 574.9C289.092 574.905 288.963 575.018 288.81 575.155C288.183 575.69 287.581 576.255 286.858 576.971C286.643 577.182 286.462 577.354 286.452 577.354C286.442 577.354 286.438 577.325 286.442 577.285C286.552 576.461 286.529 575.401 286.375 574.326C286.361 574.188 286.347 574.07 286.352 574.066ZM300.321 574.08C300.331 574.09 300.015 574.601 299.814 574.89C299.527 575.312 299.106 575.872 298.155 577.099C297.653 577.747 297.088 578.478 296.902 578.724C296.71 578.969 296.553 579.175 296.548 579.175C296.543 579.175 296.481 579.087 296.414 578.979C295.878 578.154 295.237 577.433 294.477 576.785C294.333 576.662 294.176 576.53 294.123 576.49C294.071 576.451 294.027 576.412 294.027 576.407C294.027 576.392 294.84 576.034 295.457 575.779C296.538 575.327 298.011 574.787 299.116 574.439C299.695 574.252 300.312 574.07 300.321 574.08ZM300.689 574.178C300.709 574.174 300.823 574.232 300.962 574.316C302.124 574.998 303.262 575.877 304.162 576.78C304.415 577.035 305.042 577.703 305.032 577.708C305.032 577.708 304.812 577.727 304.554 577.747C302.54 577.904 299.963 578.341 297.485 578.954C297.318 578.993 297.17 579.028 297.16 579.028C297.151 579.028 297.337 578.836 297.571 578.606C299.025 577.168 299.69 576.26 300.474 574.64C300.584 574.399 300.68 574.193 300.689 574.178C300.685 574.178 300.685 574.178 300.689 574.178ZM290.039 575.298C290.106 575.312 290.728 575.612 291.196 575.852C291.627 576.073 292.272 576.427 292.306 576.456C292.311 576.461 292.081 576.584 291.799 576.726C290.9 577.187 290.13 577.624 289.326 578.125C289.097 578.267 288.905 578.385 288.901 578.385C288.882 578.385 288.886 578.365 289.015 578.125C289.446 577.32 289.79 576.358 289.986 575.42C290.005 575.347 290.025 575.298 290.039 575.298ZM289.417 575.415C289.431 575.43 289.269 576.034 289.168 576.363C288.972 576.986 288.642 577.766 288.322 578.355C288.245 578.493 288.131 578.694 288.068 578.807L287.949 579.003L287.681 578.738C287.37 578.429 287.117 578.238 286.792 578.066C286.662 577.997 286.562 577.938 286.562 577.928C286.562 577.889 287.38 577.128 288.006 576.579C288.456 576.181 289.403 575.401 289.417 575.415ZM293.219 577.02L293.454 577.177C293.989 577.536 294.62 578.012 295.104 578.429C295.376 578.66 295.902 579.146 296.007 579.264L296.065 579.327L295.677 579.44C293.487 580.064 291.794 580.618 289.819 581.364C289.599 581.448 289.412 581.516 289.398 581.516C289.369 581.516 289.345 581.541 289.838 581.075C291.101 579.882 292.22 578.567 293.052 577.285L293.219 577.02ZM292.22 577.276C292.229 577.285 291.574 578.233 291.182 578.768C290.713 579.406 289.881 580.476 289.307 581.173C289.068 581.462 288.862 581.703 288.853 581.708C288.838 581.713 288.834 581.639 288.834 581.526C288.834 580.932 288.685 580.299 288.427 579.759C288.317 579.533 288.298 579.479 288.322 579.455C288.413 579.371 289.805 578.557 290.684 578.071C291.278 577.747 292.205 577.266 292.22 577.276ZM286.175 578.797C286.189 578.797 286.299 578.856 286.423 578.925C286.729 579.097 287.002 579.288 287.246 579.494C287.255 579.504 287.131 579.607 286.969 579.73C286.514 580.064 285.825 580.599 285.424 580.927C285.003 581.271 284.989 581.281 285.036 581.207C285.352 580.712 285.51 580.432 285.677 580.073C285.825 579.754 285.974 579.376 286.079 579.048C286.117 578.905 286.165 578.797 286.175 578.797ZM287.786 580.093C287.81 580.088 287.839 580.132 287.968 580.329C288.241 580.746 288.451 581.305 288.504 581.757L288.513 581.855L287.858 582.115C286.686 582.582 285.606 583.043 284.874 583.387C284.668 583.485 284.309 583.661 284.075 583.779C283.841 583.902 283.649 583.995 283.649 583.99C283.649 583.985 283.798 583.873 283.979 583.735C285.409 582.67 286.648 581.502 287.576 580.334C287.676 580.211 287.767 580.098 287.777 580.093L287.786 580.093ZM287.045 580.28C287.064 580.299 286.519 580.932 286.146 581.32C285.223 582.287 284.309 583.043 283.176 583.779C283.033 583.873 282.903 583.956 282.889 583.966C282.856 583.985 282.899 583.936 283.396 583.382C283.712 583.033 283.951 582.739 284.223 582.375C284.405 582.135 284.439 582.101 284.702 581.909C285.405 581.389 287.026 580.26 287.045 580.28Z" fill="url(#paint2_radial_814_14645)"/>
<path d="M266.335 600.603C266.247 600.603 266.159 600.612 266.071 600.612C264.289 600.709 263.088 601.514 262.385 603.086C261.784 604.508 261.849 606.366 262.392 607.796C263.022 609.193 264.041 609.931 265.741 610.209C266.101 610.27 266.342 610.473 267.039 611.308L267.896 612.339H269.451L268.417 611.269C267.846 610.682 267.383 610.171 267.383 610.127C267.383 610.082 267.602 609.983 267.867 609.901C268.739 609.63 269.464 608.938 269.97 607.878C270.381 607.026 270.439 606.763 270.498 605.704C270.652 602.551 269.032 600.58 266.335 600.602L266.335 600.603ZM267.699 608.848C266.942 609.224 265.844 609.299 265.127 609.029C264.385 608.75 263.668 607.96 263.345 607.065C262.986 606.087 263.037 604.283 263.447 603.47C264.107 602.176 264.98 601.581 266.255 601.581C268.146 601.581 269.222 602.769 269.362 605.004C269.473 606.869 268.864 608.268 267.699 608.848L267.699 608.848ZM294.56 603.296C293.907 603.296 293.408 603.567 293.072 604.101L292.808 604.524V603.425H291.679V610.015H292.807V607.909C292.807 605.983 292.831 605.758 293.093 605.23C293.454 604.508 294.076 604.147 294.677 604.32L295.081 604.44V603.298H294.56V603.296ZM287.928 603.236C287.707 603.236 287.472 603.266 287.239 603.319C285.728 603.724 284.877 605.208 284.929 606.735C284.929 608.013 285.171 608.652 285.772 609.323C287.003 610.36 288.117 610.442 289.62 609.886C289.876 609.774 290.155 609.645 290.155 609.645V608.608L289.62 608.892C288.404 609.436 287.488 609.436 286.754 608.796C286.286 608.307 286.08 607.72 285.985 607.051H290.536V606.162C290.536 604.351 289.474 603.207 287.927 603.236H287.928ZM286.087 606.126C286.087 606.126 286.255 604.996 286.879 604.552C287.179 604.335 287.524 604.23 287.861 604.23C288.199 604.23 288.536 604.342 288.814 604.56C289.386 605.011 289.481 606.117 289.481 606.117H286.087V606.126H286.087ZM258.874 604.937C257.65 604.176 257.107 603.628 257.174 602.981C257.364 601.191 259.519 601.438 260.712 602.116L260.721 600.911C260.721 600.911 260.061 600.618 259.115 600.603C257.665 600.58 256.727 601.068 256.287 602.062C255.641 603.528 256.213 604.634 258.279 605.868C259.439 606.561 259.952 607.162 259.952 607.817C259.952 609.172 258.361 609.645 256.719 608.795C256.381 608.622 256.095 608.478 256.08 608.478C256.021 608.862 256.052 609.781 256.052 609.781C256.052 609.781 256.556 609.998 257.312 610.148C259.188 610.532 260.896 609.629 261.057 608.162C261.197 606.786 260.712 606.064 258.874 604.936L258.874 604.937ZM304.55 603.221C304.33 603.221 304.096 603.252 303.852 603.304C302.344 603.71 301.494 605.193 301.552 606.72C301.552 607.997 301.793 608.63 302.394 609.299C303.625 610.337 304.739 610.421 306.249 609.864C306.505 609.752 306.783 609.624 306.783 609.624V608.585L306.249 608.872C305.03 609.413 304.114 609.413 303.382 608.773C302.912 608.285 302.708 607.705 302.613 607.028H307.156V606.14C307.156 604.337 306.094 603.192 304.547 603.222L304.55 603.221ZM302.709 606.11C302.709 606.11 302.879 604.982 303.502 604.53C303.801 604.312 304.146 604.206 304.483 604.206C304.819 604.206 305.158 604.319 305.436 604.538C306.007 604.989 306.103 606.103 306.103 606.103H302.71L302.709 606.11ZM282.019 604.952C280.795 604.193 280.254 603.642 280.32 602.995C280.51 601.204 282.665 601.453 283.858 602.13L283.867 600.926C283.867 600.926 283.207 600.633 282.261 600.619C280.811 600.596 279.873 601.085 279.432 602.078C278.787 603.545 279.367 604.651 281.426 605.884C282.584 606.576 283.097 607.17 283.097 607.825C283.097 609.18 281.507 609.66 279.865 608.803C279.529 608.63 279.243 608.488 279.226 608.488C279.167 608.872 279.198 609.79 279.198 609.79C279.198 609.79 279.696 610 280.45 610.158C282.328 610.542 284.036 609.64 284.196 608.174C284.336 606.804 283.852 606.082 282.019 604.953V604.952H282.019ZM311.182 603.281C310.53 603.281 310.025 603.553 309.695 604.087L309.431 604.508V603.41H308.302V609.999H309.43V607.893C309.43 605.967 309.453 605.741 309.716 605.215C310.077 604.493 310.699 604.132 311.3 604.305L311.703 604.426V603.281H311.182V603.281ZM273.043 604.914V600.716H271.905V610.014H276.69V608.916H273.043V604.914H273.043ZM299.361 606.222L298.423 608.728L297.521 606.209L296.605 603.417H295.44C296.194 605.614 297.015 607.848 297.843 610.014C298.202 610.022 298.562 610.014 298.921 610.014L300.188 606.75L301.478 603.418H300.364C300.364 603.418 299.872 604.741 299.36 606.223L299.361 606.222ZM275.665 598.183C275.848 598.183 276.001 598.122 276.127 597.993C276.252 597.865 276.317 597.715 276.317 597.527C276.317 597.339 276.252 597.182 276.127 597.061C276.001 596.941 275.856 596.88 275.673 596.88C275.488 596.88 275.335 596.941 275.211 597.068C275.085 597.196 275.028 597.353 275.028 597.534C275.028 597.724 275.087 597.881 275.211 598C275.329 598.121 275.482 598.181 275.665 598.181V598.183ZM275.262 597.113C275.371 597.001 275.504 596.949 275.673 596.949C275.833 596.949 275.966 597.001 276.077 597.113C276.186 597.225 276.245 597.362 276.245 597.527C276.245 597.693 276.186 597.836 276.077 597.948C275.966 598.06 275.833 598.114 275.673 598.114C275.511 598.114 275.379 598.062 275.27 597.948C275.161 597.836 275.102 597.693 275.102 597.527C275.102 597.362 275.152 597.225 275.262 597.113ZM275.533 597.588H275.607C275.659 597.588 275.71 597.639 275.754 597.738L275.842 597.941H275.981L275.872 597.715C275.827 597.625 275.784 597.572 275.732 597.557C275.797 597.542 275.848 597.519 275.885 597.474C275.922 597.436 275.936 597.383 275.936 597.323C275.936 597.254 275.915 597.203 275.87 597.165C275.82 597.122 275.739 597.098 275.635 597.098H275.401V597.941H275.519V597.588L275.533 597.588ZM275.533 597.196H275.636C275.709 597.196 275.762 597.211 275.79 597.234C275.818 597.256 275.826 597.286 275.826 597.339C275.826 597.437 275.767 597.482 275.657 597.482H275.531V597.196H275.533ZM256.734 597.512C256.734 597.219 256.726 597.001 256.719 596.872H256.726C256.755 597.024 256.791 597.137 256.821 597.212L257.913 599.717H258.097L259.189 597.19C259.219 597.121 259.248 597.017 259.284 596.873H259.293C259.271 597.124 259.263 597.341 259.263 597.514V599.725H259.637V596.439H259.168L258.164 598.724C258.127 598.815 258.075 598.951 258.01 599.13H257.995C257.973 599.041 257.922 598.906 257.849 598.74L256.867 596.431H256.368V599.717H256.728V597.514L256.734 597.512ZM260.457 597.519H260.78V599.566H260.457V597.519ZM260.618 596.768C260.685 596.768 260.742 596.745 260.786 596.699C260.831 596.654 260.86 596.596 260.86 596.527C260.86 596.459 260.838 596.399 260.787 596.354C260.742 596.308 260.684 596.285 260.617 596.285C260.552 596.285 260.493 596.308 260.449 596.354C260.405 596.399 260.375 596.459 260.375 596.527C260.375 596.602 260.398 596.654 260.449 596.699C260.5 596.745 260.552 596.768 260.617 596.768H260.618ZM263.081 599.61V599.25C262.904 599.385 262.714 599.453 262.518 599.453C262.282 599.453 262.092 599.37 261.952 599.211C261.813 599.054 261.739 598.836 261.739 598.564C261.739 598.279 261.813 598.053 261.966 597.881C262.113 597.715 262.304 597.632 262.538 597.632C262.729 597.632 262.912 597.693 263.081 597.814V597.43C262.927 597.347 262.751 597.309 262.553 597.309C262.186 597.309 261.901 597.43 261.687 597.663C261.475 597.896 261.366 598.212 261.366 598.594C261.366 598.934 261.461 599.22 261.659 599.438C261.865 599.662 262.128 599.776 262.451 599.776C262.7 599.769 262.904 599.716 263.081 599.61ZM264.004 598.519C264.004 598.249 264.063 598.031 264.173 597.881C264.275 597.745 264.4 597.677 264.547 597.677C264.671 597.677 264.759 597.701 264.824 597.753V597.362C264.774 597.339 264.7 597.331 264.605 597.331C264.473 597.331 264.356 597.377 264.252 597.461C264.143 597.55 264.056 597.685 264.005 597.858H263.996V597.377H263.631V599.723H263.997V598.519H264.004ZM266.108 599.77C266.453 599.77 266.73 599.656 266.936 599.43C267.141 599.206 267.244 598.904 267.244 598.528C267.244 598.144 267.15 597.851 266.958 597.632C266.768 597.414 266.504 597.309 266.16 597.309C265.815 597.309 265.538 597.414 265.332 597.618C265.111 597.842 264.995 598.159 264.995 598.565C264.995 598.919 265.09 599.212 265.288 599.43C265.493 599.656 265.765 599.769 266.108 599.769V599.77ZM265.587 597.858C265.727 597.707 265.91 597.632 266.137 597.632C266.372 597.632 266.549 597.707 266.68 597.858C266.812 598.016 266.877 598.241 266.877 598.543C266.877 598.829 266.819 599.054 266.694 599.205C266.57 599.363 266.387 599.446 266.144 599.446C265.909 599.446 265.727 599.363 265.587 599.205C265.449 599.046 265.382 598.829 265.382 598.543C265.368 598.258 265.441 598.025 265.587 597.858ZM268.848 599.566C268.988 599.438 269.062 599.281 269.062 599.084C269.062 598.912 269.003 598.768 268.894 598.655C268.805 598.565 268.667 598.483 268.468 598.4C268.291 598.324 268.182 598.257 268.123 598.204C268.064 598.144 268.028 598.069 268.028 597.963C268.028 597.865 268.065 597.79 268.137 597.73C268.211 597.67 268.305 597.64 268.432 597.64C268.629 597.64 268.798 597.694 268.953 597.807V597.431C268.805 597.355 268.644 597.319 268.461 597.319C268.226 597.319 268.027 597.385 267.881 597.513C267.727 597.641 267.654 597.807 267.654 598.002C267.654 598.174 267.704 598.317 267.8 598.423C267.881 598.512 268.019 598.604 268.21 598.686C268.394 598.769 268.518 598.844 268.584 598.904C268.65 598.964 268.679 599.039 268.679 599.128C268.679 599.347 268.533 599.46 268.247 599.46C268.027 599.46 267.83 599.386 267.653 599.236V599.641C267.813 599.74 268.004 599.785 268.216 599.785C268.488 599.77 268.7 599.702 268.847 599.566L268.848 599.566ZM270.593 597.309C270.249 597.309 269.971 597.414 269.765 597.618C269.547 597.842 269.429 598.159 269.429 598.565C269.429 598.919 269.524 599.212 269.722 599.43C269.928 599.656 270.198 599.769 270.543 599.769C270.896 599.769 271.165 599.655 271.371 599.429C271.577 599.205 271.679 598.903 271.679 598.527C271.679 598.143 271.583 597.85 271.393 597.632C271.195 597.413 270.931 597.308 270.595 597.308L270.593 597.309ZM271.304 598.543C271.304 598.829 271.246 599.054 271.121 599.205C270.997 599.363 270.813 599.447 270.571 599.447C270.336 599.447 270.154 599.363 270.014 599.205C269.875 599.046 269.809 598.829 269.809 598.543C269.809 598.241 269.882 598.008 270.029 597.851C270.168 597.701 270.351 597.625 270.579 597.625C270.806 597.625 270.988 597.7 271.12 597.851C271.238 598.016 271.304 598.241 271.304 598.543H271.304ZM272.295 599.717H272.66V597.685H273.196V597.369H272.66V597.007C272.66 596.678 272.784 596.512 273.042 596.512C273.128 596.512 273.217 596.534 273.282 596.572V596.233C273.217 596.203 273.128 596.196 273.018 596.196C272.821 596.196 272.659 596.257 272.527 596.384C272.373 596.534 272.292 596.729 272.292 596.993V597.378H271.905V597.694H272.292V599.718L272.295 599.717ZM273.796 599.076C273.796 599.535 273.994 599.769 274.397 599.769C274.544 599.769 274.654 599.745 274.742 599.692V599.369C274.675 599.421 274.595 599.445 274.507 599.445C274.382 599.445 274.295 599.415 274.244 599.346C274.192 599.279 274.162 599.165 274.162 599.008V597.684H274.742V597.368H274.162V596.677C274.036 596.722 273.913 596.76 273.796 596.797V597.368H273.401V597.684H273.796V599.076L273.796 599.076ZM313.132 603.402C313.008 603.281 312.861 603.221 312.679 603.221C312.494 603.221 312.341 603.281 312.216 603.41C312.092 603.537 312.033 603.695 312.033 603.876C312.033 604.064 312.092 604.221 312.215 604.342C312.34 604.463 312.493 604.523 312.678 604.523C312.86 604.523 313.014 604.463 313.14 604.335C313.263 604.206 313.329 604.056 313.329 603.869C313.322 603.68 313.256 603.522 313.132 603.402L313.132 603.402ZM313.074 604.29C312.964 604.402 312.831 604.454 312.67 604.454C312.51 604.454 312.378 604.402 312.267 604.29C312.157 604.176 312.099 604.034 312.099 603.867C312.099 603.704 312.149 603.567 312.26 603.453C312.369 603.341 312.501 603.29 312.67 603.29C312.83 603.29 312.963 603.341 313.074 603.453C313.183 603.567 313.242 603.704 313.242 603.867C313.242 604.042 313.191 604.176 313.074 604.29ZM312.744 603.906C312.81 603.891 312.862 603.861 312.898 603.824C312.935 603.785 312.948 603.732 312.948 603.672C312.948 603.604 312.927 603.551 312.883 603.514C312.832 603.471 312.751 603.447 312.648 603.447H312.414V604.289H312.532V603.936H312.605C312.655 603.936 312.706 603.987 312.751 604.086L312.838 604.288H312.978L312.869 604.062C312.831 603.964 312.787 603.919 312.743 603.904L312.744 603.906ZM312.663 603.83H312.537V603.546H312.641C312.714 603.546 312.765 603.56 312.795 603.583C312.824 603.605 312.831 603.635 312.831 603.688C312.831 603.786 312.772 603.831 312.663 603.831L312.663 603.83ZM292.215 597.272H292.317V596.429H292.589V596.324H291.943V596.429H292.215V597.272H292.215ZM292.837 596.639C292.837 596.557 292.837 596.489 292.831 596.452C292.837 596.496 292.853 596.527 292.859 596.549L293.175 597.272H293.225L293.541 596.542C293.549 596.52 293.556 596.49 293.57 596.452C293.564 596.527 293.564 596.587 293.564 596.633V597.271H293.673V596.324H293.541L293.255 596.978C293.248 597.001 293.226 597.047 293.211 597.099H293.203C293.197 597.068 293.182 597.038 293.161 596.986L292.875 596.324H292.727V597.273H292.831V596.64L292.837 596.639Z" fill="#707070"/>
</g>
<g clip-path="url(#clip2_814_14645)">
<path d="M470.941 575C470.941 572.239 468.703 570 465.941 570H378.128C375.367 570 373.128 572.239 373.128 575V602.825C373.128 605.587 375.367 607.825 378.128 607.825H465.941C468.703 607.825 470.941 605.587 470.941 602.825V575Z" fill="#CDCDCD"/>
<path d="M457.047 585.444C457.12 585.444 457.192 585.444 457.234 585.365C457.244 585.331 457.255 585.298 457.255 585.264C457.255 585.196 457.224 585.139 457.172 585.106C457.12 585.083 457.068 585.083 456.954 585.083H456.902V585.433H457.047V585.444ZM456.954 584.891C457.109 584.891 457.182 584.891 457.244 584.925C457.452 584.993 457.472 585.196 457.472 585.264C457.472 585.275 457.472 585.32 457.462 585.365C457.452 585.411 457.431 585.501 457.317 585.58C457.296 585.591 457.296 585.591 457.265 585.603L457.524 586.122H457.275L457.047 585.648H456.902V586.122H456.674V584.891H456.954ZM457.047 586.631C457.607 586.631 458.053 586.134 458.053 585.535C458.053 584.925 457.607 584.439 457.047 584.439C456.498 584.439 456.052 584.925 456.052 585.535C456.052 586.134 456.498 586.631 457.047 586.631ZM456.259 585.535C456.259 585.06 456.612 584.665 457.047 584.665C457.493 584.665 457.846 585.06 457.846 585.535C457.846 585.998 457.483 586.393 457.047 586.393C456.622 586.393 456.259 585.998 456.259 585.535ZM449.269 592.505C447.942 592.505 446.832 591.534 446.49 590.212H453.832L454.849 588.495H446.48C446.812 587.173 447.942 586.19 449.259 586.19H454.32L455.326 584.473H449.145C446.667 584.473 444.665 586.653 444.665 589.342C444.665 592.031 446.667 594.211 449.145 594.211H454.455L455.461 592.494H449.259L449.269 592.505ZM428.228 594.222C425.76 594.222 423.758 592.042 423.758 589.353C423.758 586.665 425.76 584.484 428.228 584.484H434.409L433.392 586.201H428.332C426.735 586.201 425.438 587.614 425.438 589.353C425.438 591.093 426.735 592.505 428.332 592.505H434.533L433.517 594.222H428.207H428.228ZM395.561 592.505C397.158 592.505 398.465 591.093 398.465 589.353C398.465 587.614 397.169 586.201 395.561 586.201H390.594C388.997 586.201 387.701 587.614 387.701 589.353C387.701 591.093 388.997 592.505 390.594 592.505H395.561ZM390.48 594.222C388.001 594.222 386 592.042 386 589.353C386 586.665 388.001 584.484 390.48 584.484H395.676C398.144 584.484 400.145 586.665 400.145 589.353C400.145 592.042 398.144 594.222 395.676 594.222H390.48ZM408.587 591.071C410.267 591.071 411.615 589.591 411.615 587.772C411.615 585.953 410.267 584.473 408.587 584.473H401.058V594.222H402.779V586.19H408.473C409.261 586.19 409.914 586.902 409.914 587.772C409.914 588.642 409.261 589.342 408.473 589.342H403.619L408.742 594.222H411.241L407.788 591.071H408.566H408.587ZM437.043 592.505V584.484H435.332V593.296C435.332 593.545 435.415 593.771 435.581 593.951C435.747 594.121 435.975 594.234 436.213 594.234H444.064L445.08 592.517H437.053L437.043 592.505ZM415.991 590.788H420.585L418.158 586.529L413.699 594.234H411.677L417.09 584.993C417.329 584.62 417.723 584.394 418.158 584.394C418.573 584.394 418.967 584.608 419.206 584.97L424.64 594.234H422.607L421.653 592.517H417.007L415.991 590.799V590.788Z" fill="#707070"/>
</g>
<path d="M73.5 548C73.5 546.619 74.6193 545.5 76 545.5H508.035C509.416 545.5 510.535 546.619 510.535 548V630C510.535 631.381 509.416 632.5 508.035 632.5H76C74.6193 632.5 73.5 631.381 73.5 630V548Z" stroke="#FFC100" shape-rendering="crispEdges"/>
</g>
<defs>
<filter id="filter0_d_814_14645" x="53" y="545" width="478.035" height="128" filterUnits="userSpaceOnUse" color-interpolation-filters="sRGB">
<feFlood flood-opacity="0" result="BackgroundImageFix"/>
<feColorMatrix in="SourceAlpha" type="matrix" values="0 0 0 0 0 0 0 0 0 0 0 0 0 0 0 0 0 0 127 0" result="hardAlpha"/>
<feOffset dy="20"/>
<feGaussianBlur stdDeviation="10"/>
<feComposite in2="hardAlpha" operator="out"/>
<feColorMatrix type="matrix" values="0 0 0 0 0.156863 0 0 0 0 0.192157 0 0 0 0 0.219608 0 0 0 0.04 0"/>
<feBlend mode="normal" in2="BackgroundImageFix" result="effect1_dropShadow_814_14645"/>
<feBlend mode="normal" in="SourceGraphic" in2="effect1_dropShadow_814_14645" result="shape"/>
</filter>
<linearGradient id="paint0_linear_814_14645" x1="281.414" y1="594.017" x2="283.732" y2="592.682" gradientUnits="userSpaceOnUse">
<stop stop-color="#909CA9"/>
<stop offset="1" stop-color="#EDEDEE"/>
</linearGradient>
<linearGradient id="paint1_linear_814_14645" x1="281.466" y1="567.859" x2="283.307" y2="567.859" gradientUnits="userSpaceOnUse">
<stop stop-color="#939FAB"/>
<stop offset="1" stop-color="#DCDEE1"/>
</linearGradient>
<radialGradient id="paint2_radial_814_14645" cx="0" cy="0" r="1" gradientUnits="userSpaceOnUse" gradientTransform="translate(290.756 576.524) rotate(-171.236) scale(2.37487 4.87021)">
<stop stop-color="#707070"/>
<stop offset="1" stop-color="#CDCDCD"/>
</radialGradient>
<clipPath id="clip0_814_14645">
<rect width="83.0352" height="43.2122" fill="white" transform="translate(113 567.394)"/>
</clipPath>
<clipPath id="clip1_814_14645">
<rect width="57" height="48" fill="white" transform="translate(256.035 565)"/>
</clipPath>
<clipPath id="clip2_814_14645">
<rect width="98" height="38" fill="white" transform="translate(373.035 570)"/>
</clipPath>
</defs>
</svg>
