<svg  height="40px"  viewBox="0 0 199 50" fill="none" xmlns="http://www.w3.org/2000/svg">
<path d="M25.6817 8.58307e-06H34.6594L30.1706 7.77601L25.6817 15.5515L21.193 7.77601L16.7031 8.58307e-06H25.6817Z" fill="#A1A1A1"/>
<path d="M46.5728 35.3397L42.0757 43.1119L37.5936 35.3314L33.1104 27.5526L42.089 27.561L51.0676 27.5704L46.5728 35.3397Z" fill="#A1A1A1"/>
<path d="M13.7572 35.3397L9.26121 43.1119L4.7786 35.3314L0.295898 27.5526L9.27512 27.561L18.2532 27.5704L13.7572 35.3397Z" fill="#A1A1A1"/>
<path d="M2.98438 10.6853H19.7906L25.6819 21.0542L31.7591 10.6853H48.3801L40.1862 24.8776L28.4397 24.8133L34.2994 35.0733L25.6819 50L17.0762 35.0939L22.9902 24.9315L11.2288 24.9642L2.98438 10.6853Z" fill="#A1A1A1"/>
<path d="M70.6721 10.607V39.9343H66.845V10.607H70.6721ZM80.0987 10.607V13.7895H57.4385V10.607H80.0987Z" fill="#A1A1A1"/>
<path d="M84.4495 10.607H94.1581C96.3604 10.607 98.2202 10.9427 99.7376 11.6141C101.268 12.2855 102.43 13.2792 103.222 14.5952C104.028 15.8977 104.431 17.5024 104.431 19.4092C104.431 20.752 104.156 21.9807 103.605 23.0953C103.068 24.1964 102.289 25.1364 101.268 25.9152C100.261 26.6806 99.0528 27.2513 97.6428 27.6273L96.5551 28.0503H87.4306L87.3903 24.8879H94.279C95.6755 24.8879 96.8371 24.6462 97.7636 24.1628C98.6902 23.666 99.3885 23.0013 99.8585 22.1687C100.328 21.3362 100.563 20.4163 100.563 19.4092C100.563 18.2812 100.342 17.2942 99.8987 16.4483C99.4556 15.6023 98.7573 14.951 97.8039 14.4944C96.8639 14.0245 95.6487 13.7895 94.1581 13.7895H88.337V39.9343H84.4495V10.607ZM101.591 39.9343L94.4603 26.6403L98.5089 26.6202L105.74 39.6926V39.9343H101.591Z" fill="#A1A1A1"/>
<path d="M132.449 24.3441V26.1972C132.449 28.3994 132.174 30.3734 131.623 32.1191C131.073 33.8648 130.28 35.3486 129.246 36.5706C128.212 37.7925 126.97 38.7258 125.52 39.3704C124.083 40.0149 122.472 40.3372 120.686 40.3372C118.953 40.3372 117.362 40.0149 115.912 39.3704C114.475 38.7258 113.226 37.7925 112.165 36.5706C111.118 35.3486 110.306 33.8648 109.728 32.1191C109.151 30.3734 108.862 28.3994 108.862 26.1972V24.3441C108.862 22.1419 109.144 20.1746 109.708 18.4424C110.286 16.6967 111.098 15.2129 112.145 13.9909C113.193 12.7555 114.435 11.8155 115.872 11.1709C117.322 10.5264 118.913 10.2041 120.645 10.2041C122.431 10.2041 124.043 10.5264 125.48 11.1709C126.93 11.8155 128.172 12.7555 129.206 13.9909C130.253 15.2129 131.052 16.6967 131.603 18.4424C132.167 20.1746 132.449 22.1419 132.449 24.3441ZM128.602 26.1972V24.3038C128.602 22.5581 128.42 21.0139 128.058 19.671C127.709 18.3282 127.192 17.2002 126.507 16.2871C125.822 15.374 124.983 14.6824 123.989 14.2124C123.009 13.7425 121.894 13.5075 120.645 13.5075C119.437 13.5075 118.343 13.7425 117.362 14.2124C116.395 14.6824 115.563 15.374 114.865 16.2871C114.18 17.2002 113.649 18.3282 113.273 19.671C112.897 21.0139 112.709 22.5581 112.709 24.3038V26.1972C112.709 27.9563 112.897 29.514 113.273 30.8702C113.649 32.2131 114.186 33.3478 114.885 34.2743C115.596 35.1874 116.436 35.879 117.403 36.349C118.383 36.819 119.477 37.054 120.686 37.054C121.948 37.054 123.069 36.819 124.05 36.349C125.03 35.879 125.856 35.1874 126.527 34.2743C127.212 33.3478 127.729 32.2131 128.078 30.8702C128.427 29.514 128.602 27.9563 128.602 26.1972Z" fill="#A1A1A1"/>
<path d="M142.44 10.607V39.9343H138.552V10.607H142.44Z" fill="#A1A1A1"/>
<path d="M153.397 10.607V39.9343H149.51V10.607H153.397ZM171.102 10.607L158.916 24.2837L152.068 31.3939L151.423 27.2446L156.58 21.5644L166.429 10.607H171.102ZM167.356 39.9343L156.499 25.6332L158.815 22.5514L171.989 39.9343H167.356Z" fill="#A1A1A1"/>
<path d="M186.27 13.2053L176.561 39.9343H172.593L183.772 10.607H186.33L186.27 13.2053ZM194.407 39.9343L184.678 13.2053L184.618 10.607H187.176L198.395 39.9343H194.407ZM193.904 29.0776V32.2601H177.427V29.0776H193.904Z" fill="#A1A1A1"/>
</svg>
