<svg height="40px"  viewBox="0 0 40 50" fill="none" xmlns="http://www.w3.org/2000/svg">
<path d="M2.72933 44.8439V49.9961H0.592773V39.1162H2.72933V43.0582C3.24178 42.6009 3.85279 42.3723 4.5584 42.3723C5.52419 42.3723 6.26133 42.664 6.76985 43.2474C7.27836 43.8308 7.53065 44.5049 7.53065 45.2696V49.9961H5.3941V45.8018C5.3941 45.2933 5.26796 44.8991 5.01173 44.6192C4.7555 44.3393 4.37313 44.1935 3.86067 44.1777C3.42311 44.2092 3.04468 44.4339 2.72933 44.8439Z" fill="#A1A1A1"/>
<path d="M8.40967 46.1841C8.40967 45.0646 8.76445 44.1501 9.47795 43.4405C10.1914 42.727 11.106 42.3723 12.2216 42.3723C13.3371 42.3723 14.228 42.727 14.8903 43.4405C15.5525 44.154 15.8797 45.0686 15.8797 46.1841V46.9449H10.6172C10.6684 47.351 10.8458 47.6703 11.1493 47.8989C11.4529 48.1275 11.8116 48.2419 12.2176 48.2419C12.9311 48.2419 13.5658 48.0369 14.1255 47.6308L15.3436 48.8489C14.7838 49.6097 13.7432 49.9921 12.2176 49.9921C11.0981 49.9921 10.1836 49.6373 9.474 48.9238C8.76444 48.2182 8.40967 47.3037 8.40967 46.1841ZM13.2898 44.4694C12.9863 44.2407 12.6276 44.1264 12.2216 44.1264C11.8155 44.1264 11.4608 44.2407 11.1533 44.4694C10.8498 44.698 10.696 45.0173 10.696 45.4233H13.7471C13.7471 45.0173 13.5934 44.698 13.2898 44.4694Z" fill="#A1A1A1"/>
<path d="M17.2475 43.2868C18.2133 42.6758 19.3328 42.3723 20.6021 42.3723C21.5167 42.3723 22.242 42.6245 22.7741 43.1331C23.3063 43.6416 23.5744 44.4024 23.5744 45.4194V49.9921H21.4378V49.3811C20.8189 49.7871 20.2592 49.9921 19.7625 49.9921C18.7454 49.9921 17.9846 49.7753 17.4761 49.3456C16.9676 48.912 16.7153 48.3168 16.7153 47.552C16.7153 46.8425 16.9558 46.2039 17.4367 45.648C17.9176 45.0883 18.6942 44.8084 19.7664 44.8084C20.2592 44.8084 20.8189 44.9621 21.4418 45.2657V45.037C21.4299 44.4773 21.0239 44.1737 20.2237 44.1225C19.3091 44.1225 18.5957 44.2762 18.0871 44.5798L17.2475 43.2868ZM21.4378 47.7097V46.8464C21.2328 46.4561 20.7519 46.259 19.9911 46.259C19.0766 46.3615 18.5917 46.7163 18.5405 47.3273C18.5917 47.9304 19.0726 48.2616 19.9911 48.3089C20.7519 48.3128 21.2368 48.1118 21.4378 47.7097Z" fill="#A1A1A1"/>
<path d="M26.5858 39.1201H24.4492V50H26.5858V39.1201Z" fill="#A1A1A1"/>
<path d="M34.9075 44.8439V49.9961H32.771V39.1162H34.9075V43.0582C35.42 42.6009 36.031 42.3723 36.7366 42.3723C37.7024 42.3723 38.4396 42.664 38.9481 43.2474C39.4566 43.8308 39.7089 44.5049 39.7089 45.2696V49.9961H37.5723V45.8018C37.5723 45.2933 37.4462 44.8991 37.1899 44.6192C36.9377 44.3393 36.5513 44.1935 36.0389 44.1777C35.6013 44.2092 35.2229 44.4339 34.9075 44.8439Z" fill="#A1A1A1"/>
<path d="M31.6592 48.2064C31.3911 48.2064 31.1704 48.1236 31.0009 47.9581C30.8314 47.7925 30.7446 47.5087 30.7446 47.0987V44.1028H31.8878V42.3802H30.7446V40.0859H28.6002V42.3802H27.457V44.1028H28.6002V47.4062C28.6002 48.167 28.8525 48.7898 29.361 49.2747C29.8695 49.7595 30.5554 50 31.4187 50C31.5843 50 31.742 49.9842 31.8918 49.9566V48.1788C31.7853 48.1946 31.7065 48.2064 31.6592 48.2064Z" fill="#A1A1A1"/>
<path d="M30.0985 0C28.5611 0 27.1065 0.358719 25.8135 0.993377V0.0197096L20.3105 0V27.3455C22.2145 27.3297 24.0594 27.0617 25.8135 26.5807V18.5076C27.1065 19.1422 28.5611 19.5009 30.0985 19.5009C35.4832 19.5009 39.847 15.1372 39.847 9.75244C39.847 4.36771 35.4832 0 30.0985 0ZM30.0985 14.6129C27.414 14.6129 25.2341 12.4369 25.2341 9.7485C25.2341 7.06008 27.41 4.88411 30.0985 4.88411C32.783 4.88411 34.9629 7.06008 34.9629 9.7485C34.9629 12.4369 32.7869 14.6129 30.0985 14.6129Z" fill="#A1A1A1"/>
<path d="M39.8507 28.9656C39.8507 30.3374 38.739 31.4491 37.3672 31.4491C35.9954 31.4491 34.8838 30.3374 34.8838 28.9656C34.8838 27.5938 35.9954 26.4822 37.3672 26.4822C38.739 26.4822 39.8507 27.5938 39.8507 28.9656Z" fill="#A1A1A1"/>
<path d="M20.117 32.2729C14.1095 32.2729 8.56707 30.2507 4.13234 26.8527L0.62793 30.3571C5.97719 34.6342 12.7534 37.1965 20.117 37.1965C25.5294 37.1965 30.6185 35.8128 35.0611 33.3806L31.4029 29.7225C27.9813 31.3545 24.1536 32.2729 20.117 32.2729Z" fill="#A1A1A1"/>
<path d="M6.6001 13.5406C6.4779 13.3869 6.37146 13.2292 6.27686 13.0558C6.36358 13.2253 6.47395 13.3869 6.6001 13.5406Z" fill="#FFB71B"/>
<path d="M7.86933 14.5301C7.84568 14.5183 7.81809 14.5065 7.79443 14.4946C7.81809 14.5065 7.84568 14.5183 7.86933 14.5301Z" fill="#FFB71B"/>
<path d="M6.69459 13.659C6.70641 13.6747 6.72218 13.6865 6.73795 13.7023C6.7143 13.6747 6.69064 13.6511 6.66699 13.6235C6.67488 13.6314 6.68276 13.6471 6.69459 13.659Z" fill="#FFB71B"/>
<path d="M8.00732 14.5892C8.37787 14.743 8.76813 14.8376 9.16232 14.8415C9.62748 14.8691 10.0887 14.7745 10.5144 14.5932C10.1281 14.7469 9.70632 14.8336 9.26087 14.8336C8.81937 14.8297 8.39364 14.743 8.00732 14.5892Z" fill="#FFB71B"/>
<path d="M12.6669 0.0197144V11.6722C12.6472 11.9008 12.5999 12.1255 12.5328 12.3423C12.2451 13.3672 11.4922 14.199 10.5146 14.5893C10.0888 14.7745 9.62761 14.8691 9.16246 14.8376C8.7722 14.8337 8.37801 14.743 8.00746 14.5853C7.96016 14.5656 7.91679 14.5459 7.87343 14.5262C7.84978 14.5144 7.82219 14.5025 7.79854 14.4907C7.39646 14.2975 7.03774 14.0255 6.74209 13.6984C6.72632 13.6826 6.71449 13.6708 6.69873 13.655C6.6869 13.6432 6.67902 13.6314 6.67113 13.6195C6.64748 13.5919 6.62777 13.5643 6.60412 13.5367C6.47797 13.383 6.37154 13.2253 6.28088 13.0519C6.01676 12.571 5.86697 12.0151 5.86697 11.4278C5.86697 11.3923 5.87091 11.3568 5.87091 11.3214C5.85909 11.1321 5.8512 10.939 5.8512 10.7301V0.0197144H0.395508V12.0979C0.395508 14.0453 1.04593 15.7679 2.34284 17.2619C3.63975 18.7559 5.52402 19.501 7.99169 19.501C9.79712 19.501 11.3542 18.9175 12.6669 17.7468V19.5207H18.1226V0.0197144H12.6669Z" fill="#A1A1A1"/>
</svg>
