<svg xmlns="http://www.w3.org/2000/svg">
    <defs>
        <symbol id="icon-checked" viewBox="0 0 24 24"><path d="M0 11.522l1.578-1.626 7.734 4.619 13.335-12.526 1.353 1.354-14 18.646z"/></symbol>
        <symbol id="icon-instagram"  viewBox="0 0 31 30"><path d="M15.4324 2.70375C19.4374 2.70375 19.9124 2.71875 21.4949 2.79125C25.5599 2.97625 27.4586 4.905 27.6436 8.94C27.7161 10.5212 27.7299 10.9963 27.7299 15.0013C27.7299 19.0075 27.7149 19.4813 27.6436 21.0625C27.4574 25.0938 25.5636 27.0262 21.4949 27.2112C19.9124 27.2837 19.4399 27.2988 15.4324 27.2988C11.4274 27.2988 10.9524 27.2837 9.37112 27.2112C5.29612 27.025 3.40737 25.0875 3.22237 21.0613C3.14987 19.48 3.13487 19.0062 3.13487 15C3.13487 10.995 3.15112 10.5213 3.22237 8.93875C3.40862 4.905 5.30237 2.975 9.37112 2.79C10.9536 2.71875 11.4274 2.70375 15.4324 2.70375V2.70375ZM15.4324 0C11.3586 0 10.8486 0.0175 9.24862 0.09C3.80112 0.34 0.773623 3.3625 0.523623 8.815C0.449873 10.4163 0.432373 10.9262 0.432373 15C0.432373 19.0738 0.449873 19.585 0.522373 21.185C0.772373 26.6325 3.79487 29.66 9.24737 29.91C10.8486 29.9825 11.3586 30 15.4324 30C19.5061 30 20.0174 29.9825 21.6174 29.91C27.0599 29.66 30.0949 26.6375 30.3411 21.185C30.4149 19.585 30.4324 19.0738 30.4324 15C30.4324 10.9262 30.4149 10.4162 30.3424 8.81625C30.0974 3.37375 27.0711 0.34125 21.6186 0.09125C20.0174 0.0175 19.5061 0 15.4324 0V0ZM15.4324 7.2975C11.1786 7.2975 7.72987 10.7462 7.72987 15C7.72987 19.2538 11.1786 22.7038 15.4324 22.7038C19.6861 22.7038 23.1349 19.255 23.1349 15C23.1349 10.7462 19.6861 7.2975 15.4324 7.2975ZM15.4324 20C12.6711 20 10.4324 17.7625 10.4324 15C10.4324 12.2387 12.6711 10 15.4324 10C18.1936 10 20.4324 12.2387 20.4324 15C20.4324 17.7625 18.1936 20 15.4324 20ZM23.4399 5.19375C22.4449 5.19375 21.6386 6 21.6386 6.99375C21.6386 7.9875 22.4449 8.79375 23.4399 8.79375C24.4336 8.79375 25.2386 7.9875 25.2386 6.99375C25.2386 6 24.4336 5.19375 23.4399 5.19375Z" fill="white"/></symbol>
        <symbol id="icon-linkedin"  viewBox="0 0 33 30"><g clip-path="url(#clip0_713_17408)"><rect x="1.93909" y="0.810242" width="28.3784" height="28.3784" rx="5" stroke="white" stroke-width="2"/><path d="M25.8139 23.2765H22.2666V16.6501C22.2666 12.6677 17.5369 12.9692 17.5369 16.6501V23.2765H13.9896V10.2697H17.5369V12.3567C19.1888 9.29893 25.8139 9.07308 25.8139 15.2844V23.2765Z" fill="white"/><path d="M11.6247 23.2765H8.07744V10.2697H11.6247V23.2765Z" fill="white"/><path d="M9.85109 8.77038C8.70886 8.77038 7.78184 7.83626 7.78184 6.68457C7.78184 5.53288 8.70886 4.59876 9.85109 4.59876C10.9933 4.59876 11.9203 5.53288 11.9203 6.68457C11.9203 7.83626 10.9945 8.77038 9.85109 8.77038Z" fill="white"/></g><defs><clipPath id="clip0_713_17408"><path d="M0 4C0 1.79086 1.79086 0 4 0H28.4324C30.6416 0 32.4324 1.79086 32.4324 4V26C32.4324 28.2091 30.6416 30 28.4324 30H4C1.79086 30 0 28.2091 0 26V4Z" fill="white"/></clipPath></defs></symbol>
        <symbol  viewBox="0 0 24 25"><g clip-path="url(#clip0_567_7563)"><path d="M12 5.442C13.827 6.547 15.474 7.042 17 7.275V15.035C17 16.641 16.585 16.97 12 19.795V5.442ZM21 3.5V15.035C21 19.638 17.797 20.839 12 24.5C6.203 20.839 3 19.638 3 15.035V3.5C6.516 3.5 8.629 3.366 12 0.5C15.371 3.366 17.484 3.5 21 3.5ZM19 5.46C16.554 5.336 14.5 4.849 12 3.044C9.5 4.849 7.446 5.336 5 5.46V15.035C5 18.077 6.69 18.865 12 22.142C17.313 18.861 19 18.077 19 15.035V5.46Z" fill="#none"/></g><defs><clipPath id="clip0_567_7563"><rect width="24" height="24" fill="none" transform="translate(0 0.5)"/></clipPath></defs></symbol>
        <symbol  id="icon-arrow" viewBox="0 0 13 15"><path d="M12.7071 8.20711C13.0976 7.81658 13.0976 7.18342 12.7071 6.79289L6.34315 0.428933C5.95262 0.0384083 5.31946 0.0384083 4.92893 0.428933C4.53841 0.819457 4.53841 1.45262 4.92893 1.84315L10.5858 7.5L4.92893 13.1569C4.53841 13.5474 4.53841 14.1805 4.92893 14.5711C5.31946 14.9616 5.95262 14.9616 6.34315 14.5711L12.7071 8.20711ZM-8.74228e-08 8.5L12 8.5L12 6.5L8.74228e-08 6.5L-8.74228e-08 8.5Z"/>
        <!-- servicos -->
        <symbol id="icon-seguranca"  viewBox="0 0 17 23"><path d="M8.4 4.57135C10.1052 5.59347 11.6424 6.05135 13.0667 6.26687V13.4449C13.0667 14.9304 12.6793 15.2347 8.4 17.8479V4.57135ZM16.8 2.775V13.4449C16.8 17.7026 13.8105 18.8136 8.4 22.2C2.98947 18.8136 0 17.7026 0 13.4449V2.775C3.2816 2.775 5.25373 2.65105 8.4 0C11.5463 2.65105 13.5184 2.775 16.8 2.775ZM14.9333 4.588C12.6504 4.4733 10.7333 4.02282 8.4 2.3532C6.06667 4.02282 4.1496 4.4733 1.86667 4.588V13.4449C1.86667 16.2587 3.444 16.9876 8.4 20.0188C13.3588 16.9839 14.9333 16.2587 14.9333 13.4449V4.588Z"/>
            <symbol id="icon-prevencao_ataques" viewBox="0 0 32 32"><g clip-path="url(#clip0_906_6603)"><path d="M24 11.9999V7.99992C22.6667 7.99992 19.5893 7.74925 17.992 10.9546L12.368 22.2359C11.0147 24.9506 8.24267 26.6666 5.208 26.6666H0V23.9999H5.208C7.23067 23.9999 9.07867 22.8559 9.98133 21.0453L15.6053 9.76392C17.4133 6.13592 20.504 5.33325 24 5.33325V1.33325L32 6.66659L24 11.9999V11.9999ZM11.3827 13.7653L12.872 10.7759C11.2253 7.47059 9.00667 5.33325 5.208 5.33325H0V7.99992H5.208C9.03733 7.99992 10.0667 11.1239 11.3827 13.7653V13.7653ZM32 25.3333L24 19.9999V23.9999C18.96 23.9999 18.6413 22.3493 16.592 18.2373L15.1013 21.2253C16.4627 23.9573 17.9013 26.6666 24 26.6666V30.6666L32 25.3333Z"/></g><defs><clipPath id="clip0_906_6603"><rect width="32" height="32"/></clipPath></defs></symbol>
            <symbol id="icon-controle_acesso" viewBox="0 0 32 32" ><path d="M15.9277 27.1333C18.485 27.1333 21.6783 25.9667 23.869 25.0093C24.2037 24.8627 24.5943 24.9507 24.837 25.228C25.081 25.5053 25.1223 25.9093 24.9423 26.2307L24.9383 26.2373C24.8463 26.4013 24.705 26.528 24.537 26.6027C22.2077 27.6213 18.7877 28.8613 15.9263 28.8613H15.8277C12.821 28.832 9.37301 27.5027 7.18101 26.4933C7.02234 26.42 6.88767 26.2973 6.79967 26.1427L6.79301 26.132C6.60767 25.8067 6.64901 25.3973 6.89567 25.1173C7.14234 24.8373 7.53834 24.7547 7.87567 24.908C9.95967 25.8667 13.1517 27.1053 15.845 27.1333H15.9277V27.1333ZM15.917 23.912C11.3997 23.912 10.137 20.752 6.24901 21.364C6.00101 21.4027 5.78501 21.5507 5.65567 21.7667C5.52501 21.984 5.49701 22.2493 5.57567 22.4893L5.57834 22.4973C5.71301 22.8947 6.10501 23.136 6.50901 23.0693C9.70634 22.5533 10.7997 25.6387 15.917 25.6387C20.049 25.6387 23.461 22.8093 25.3503 22.8093C25.7263 22.8093 26.0983 22.592 26.2143 22.2133L26.2183 22.2C26.2983 21.9493 26.2583 21.6773 26.1103 21.4613C25.9637 21.2467 25.7237 21.104 25.4677 21.104C22.4023 21.1053 20.6757 23.912 15.917 23.912V23.912ZM15.9303 15.572C16.3997 15.572 16.7797 15.1853 16.7797 14.708V11.1653C16.7797 10.688 16.3997 10.3013 15.9303 10.3013C15.4623 10.3013 15.0823 10.688 15.0823 11.1653V14.708C15.0823 15.1853 15.4637 15.572 15.9303 15.572ZM11.6997 14.908V10.8293C11.6997 8.46 13.5917 6.53333 15.917 6.53333C18.2423 6.53333 20.1343 8.46 20.1343 10.8293V14.908C20.1343 17.2773 18.2423 19.204 15.917 19.204C13.5917 19.204 11.6997 17.2773 11.6997 14.908V14.908ZM13.3957 14.908C13.3957 16.3267 14.525 17.476 15.9183 17.476C17.3103 17.476 18.4397 16.3267 18.4397 14.908V10.8293C18.4397 9.41067 17.3103 8.26133 15.9183 8.26133C14.525 8.26133 13.3957 9.41067 13.3957 10.8293V14.908V14.908ZM12.5037 29.8133C12.0863 29.708 11.657 29.9373 11.505 30.348C11.3557 30.7587 11.5277 31.2187 11.9103 31.42L11.9903 31.4613C13.241 31.784 14.5557 32 15.8357 32C17.1597 32 18.5357 31.776 19.8543 31.4413L19.9317 31.4027C20.3157 31.204 20.493 30.7427 20.3437 30.332C20.1943 29.92 19.7637 29.688 19.345 29.7933C18.1823 30.0827 16.9823 30.2747 15.837 30.2747C14.709 30.2733 13.557 30.08 12.5037 29.8133V29.8133ZM15.917 22.472C14.329 22.472 13.097 21.8387 12.1063 21.332C11.3757 20.9573 10.745 20.6333 10.157 20.6333C9.68767 20.6333 9.30767 20.2467 9.30767 19.7693C9.30767 19.292 9.68767 18.9053 10.157 18.9053C11.149 18.9053 12.0223 19.3547 12.869 19.7893C13.7863 20.26 14.7317 20.7453 15.917 20.7453C17.457 20.7453 18.333 20.2347 19.177 19.7413C19.8797 19.3307 20.6077 18.9067 21.5663 18.9067C22.0357 18.9067 22.4157 19.2933 22.4157 19.7707C22.4157 20.248 22.0357 20.6347 21.5663 20.6347C21.0583 20.6347 20.6237 20.8893 20.021 21.2413C19.0823 21.788 17.9117 22.472 15.917 22.472ZM22.4543 17.4787C21.985 17.4787 21.6063 17.092 21.6063 16.6147V10.5493C21.6063 7.44 18.969 4.90933 15.917 4.90933C12.9157 4.90933 10.2277 7.576 10.2277 10.7307V16.6147C10.2277 17.092 9.84767 17.4787 9.37967 17.4787C8.91034 17.4787 8.53034 17.092 8.53034 16.6147V10.7307C8.53034 8.76 9.27967 6.88267 10.6397 5.444C12.0183 3.98533 13.9917 3.18133 15.9157 3.18133C19.9037 3.18133 23.2997 6.48667 23.2997 10.5493V16.6147C23.3023 17.092 22.9223 17.4787 22.4543 17.4787ZM26.6663 18.6667V11.4027C26.6663 4.796 22.045 0 15.8917 0C12.6863 0 9.85301 1.14133 7.98634 3.30133C6.25034 5.31067 5.33301 8.044 5.33301 11.2053V18.6667C5.33301 19.144 5.71301 19.5307 6.18101 19.5307C6.65034 19.5307 7.03034 19.144 7.03034 18.6667V11.2053C7.03034 5.448 10.601 1.728 15.8917 1.728C21.0637 1.728 24.9703 5.79733 24.9703 11.4027V18.6667C24.9703 19.144 25.3503 19.5307 25.8197 19.5307C26.2863 19.5307 26.6663 19.144 26.6663 18.6667V18.6667Z"/></symbol>
            <symbol id="icon-laudos_segurança" viewBox="0 0 32 32"><path d="M18.2294 25.116L15.7667 26.6693C15.668 25.708 15.2894 24.8147 14.6654 24.072C14.04 23.3293 6.51203 14.2373 4.6347 11.8347C4.00936 11.0333 3.86803 10.1733 4.24136 9.412C4.5987 8.68 5.36403 8.188 6.14803 8.188C7.37336 8.188 8.02536 9.06133 8.21336 9.808C8.4267 10.6627 8.1667 11.4493 7.3827 12.0547L9.1547 14.22L17.272 9.59067L19.6174 12.3053C20.3694 11.7627 21.208 11.332 22.1134 11.052C21.1414 9.932 20.244 8.89867 19.64 8.21067C21.456 6.79333 21.9587 4.268 20.7894 2.27467C19.9654 0.870668 18.444 1.06789e-06 16.8187 1.06789e-06C15.2347 1.06789e-06 15.7614 -0.0213324 4.06536 5.96667C2.42003 6.75467 1.33203 8.34933 1.33203 10.236C1.33203 11.396 1.7427 12.5773 2.51736 13.552C4.42003 15.944 12.5987 25.7987 12.672 25.8947C13.1667 26.552 13.2414 27.3867 12.872 28.1253C12.5027 28.8653 11.7894 29.3067 10.9667 29.3067C9.74136 29.3067 9.08936 28.4333 8.90136 27.6853C8.69336 26.8467 8.91736 26.0747 9.7067 25.48L8.00403 23.42C6.90803 24.3067 6.30136 25.4147 6.16803 26.676C5.8587 29.616 8.20136 32 10.9854 32C11.78 32 12.7334 31.764 13.44 31.32L20.4494 26.8987C19.6134 26.4307 18.8654 25.8253 18.2294 25.116V25.116ZM16.0254 2.86933C16.276 2.75333 16.556 2.69067 16.8374 2.69067C17.5467 2.69067 18.1667 3.06533 18.4947 3.69333C18.9107 4.488 18.796 5.652 17.764 6.24267L10.968 10.0933C10.9 8.64134 10.196 7.31867 9.02803 6.45067L16.0254 2.86933ZM24.6654 13.3333C21.3507 13.3333 18.6654 16.02 18.6654 19.3333C18.6654 22.6467 21.3507 25.3333 24.6654 25.3333C27.9774 25.3333 30.6654 22.6467 30.6654 19.3333C30.6654 16.02 27.9774 13.3333 24.6654 13.3333ZM24.04 21.9787L21.7894 19.796L22.716 18.8667L24.0387 20.12L26.8587 17.228L27.788 18.156L24.04 21.9787V21.9787Z"/></symbol>

        <symbol id="icon-plataforma" viewBox="0 0 38 30"><path d="M5.87581 3.43372H7.33415L5.87581 6.30212H4.41748L5.87581 3.43372Z"/><path d="M8.79134 3.43372H10.2497L8.79134 6.30212H7.33301L8.79134 3.43372Z"/><path d="M13.1667 3.43372H11.7083L10.25 6.30212H11.7083L13.1667 3.43372Z"/><path d="M14.6248 3.43372H16.0832L14.6248 6.30212H13.1665L14.6248 3.43372Z"/><path d="M19.0002 3.43372H17.5418L16.0835 6.30212H17.5418L19.0002 3.43372Z"/><path d="M33.5837 4.86792C33.5837 5.66 32.9307 6.30212 32.1253 6.30212C31.3199 6.30212 30.667 5.66 30.667 4.86792C30.667 4.07583 31.3199 3.43372 32.1253 3.43372C32.9307 3.43372 33.5837 4.07583 33.5837 4.86792Z"/><path fill-rule="evenodd" clip-rule="evenodd" d="M0 0H38V9.5H0V0ZM1.5 8V1.5H36.5V8H1.5Z"/><path d="M5.87581 13.7598H7.33415L5.87581 16.6282H4.41748L5.87581 13.7598Z"/><path d="M10.2497 13.7598H8.79134L7.33301 16.6282H8.79134L10.2497 13.7598Z"/><path d="M11.7083 13.7598H13.1667L11.7083 16.6282H10.25L11.7083 13.7598Z"/><path d="M16.0832 13.7598H14.6248L13.1665 16.6282H14.6248L16.0832 13.7598Z"/><path d="M17.5418 13.7598H19.0002L17.5418 16.6282H16.0835L17.5418 13.7598Z"/><path d="M32.1253 16.6282C32.9307 16.6282 33.5837 15.9861 33.5837 15.194C33.5837 14.4019 32.9307 13.7598 32.1253 13.7598C31.3199 13.7598 30.667 14.4019 30.667 15.194C30.667 15.9861 31.3199 16.6282 32.1253 16.6282Z"/><path fill-rule="evenodd" clip-rule="evenodd" d="M0 11H38V19.5H0V11ZM1.5 18V12.5H36.5V18H1.5Z"/><path d="M7.33415 24.0861H5.87581L4.41748 26.9545H5.87581L7.33415 24.0861Z"/><path d="M8.79134 24.0861H10.2497L8.79134 26.9545H7.33301L8.79134 24.0861Z"/><path d="M13.1667 24.0861H11.7083L10.25 26.9545H11.7083L13.1667 24.0861Z"/><path d="M14.6248 24.0861H16.0832L14.6248 26.9545H13.1665L14.6248 24.0861Z"/><path d="M19.0002 24.0861H17.5418L16.0835 26.9545H17.5418L19.0002 24.0861Z"/><path d="M33.5837 25.5203C33.5837 26.3123 32.9307 26.9545 32.1253 26.9545C31.3199 26.9545 30.667 26.3123 30.667 25.5203C30.667 24.7282 31.3199 24.0861 32.1253 24.0861C32.9307 24.0861 33.5837 24.7282 33.5837 25.5203Z"/><path fill-rule="evenodd" clip-rule="evenodd" d="M0 30H38V21H0V30ZM36.5 22.5V28.5H1.5V22.5H36.5Z"/></symbol>
        <symbol id="icon-tercerizacao" fill="none" viewBox="0 0 24 25"><path d="M6.95916 17.5674C6.87027 16.9452 6.95916 15.6474 8.02583 15.4341C9.35916 15.1674 11.4925 14.9007 10.9592 13.3007C10.4258 11.7007 8.82583 7.43408 12.2925 7.43408C15.0658 7.43408 14.1592 11.3452 13.3592 13.3007C13.2703 13.8341 13.7858 15.0074 16.5592 15.4341C17.4362 15.569 17.3592 17.3007 17.3592 17.5674"  stroke-width="1.8"/><path d="M1.62009 17.3415C1.55189 16.8641 1.62009 15.8685 2.43842 15.7048C3.46132 15.5003 5.09798 15.2957 4.68882 14.0682C4.27965 12.8407 3.05216 9.56738 5.71172 9.56738C7.83937 9.56738 7.1438 12.5679 6.53005 14.0682" stroke-width="1.8"/><path d="M22.5962 17.3415C22.6644 16.8641 22.5962 15.8685 21.7779 15.7048C20.755 15.5003 19.1183 15.2957 19.5275 14.0682C19.9367 12.8407 21.1641 9.56738 18.5046 9.56738C16.3769 9.56738 17.0725 12.5679 17.6863 14.0682" stroke-width="1.8"/></symbol>
        <symbol id="icon-peformance"  viewBox="0 0 24 25"><path d="M22.1556 2.2359C21.8046 2.2121 21.4612 2.2002 21.1237 2.2002C13.8137 2.2002 9.65126 7.77365 8.13741 12.2582L12.1554 16.2762C16.7692 14.6238 22.1998 10.6152 22.1998 3.3834C22.1998 3.0094 22.1854 2.6269 22.1556 2.2359ZM12.5702 14.2872L10.1196 11.8366C11.1575 9.4065 14.107 4.2334 20.4888 3.91465C20.2754 8.8234 17.0539 12.3568 12.5702 14.2872ZM17.2205 15.5945C16.7556 15.9115 16.294 16.198 15.8367 16.4538C15.6778 17.2112 15.274 18.0195 14.6884 18.708C14.6867 18.2184 14.5507 17.7254 14.3118 17.2307C13.8911 17.422 13.4907 17.586 13.1099 17.7305C13.6709 19.1832 13.0997 20.2559 12.3322 21.2614C13.4338 21.1781 14.5898 20.6392 15.501 19.7272C16.4827 18.7454 17.1729 17.3276 17.2205 15.5945ZM7.17351 10.0958C6.68135 9.85784 6.18921 9.72354 5.70131 9.72099C6.38386 9.14214 7.18371 8.74094 7.93341 8.57774C8.20031 8.10854 8.50036 7.6453 8.81656 7.18969C7.08341 7.23644 5.66476 7.92665 4.68215 8.90925C3.7718 9.81959 3.23205 10.9773 3.14875 12.078C4.15515 11.3096 5.22786 10.7384 6.68051 11.3011C6.82756 10.9008 6.99161 10.4987 7.17351 10.0958ZM13.7508 10.6594C13.4185 10.327 13.4185 9.78984 13.7508 9.4575C14.0832 9.12514 14.6204 9.12514 14.9527 9.4575C15.2851 9.7907 15.2851 10.3279 14.9527 10.6602C14.6204 10.9926 14.0823 10.9917 13.7508 10.6594ZM17.9575 6.45105C17.2945 5.78805 16.2175 5.78805 15.5537 6.45105C14.8898 7.11489 14.8898 8.1927 15.5537 8.85569C16.2175 9.51955 17.2945 9.51955 17.9583 8.85569C18.6213 8.1927 18.6213 7.11575 17.9575 6.45105ZM16.3357 8.0754C16.1036 7.84335 16.1036 7.4651 16.3357 7.23389C16.566 7.00184 16.9451 7.00184 17.1772 7.23389C17.4084 7.4651 17.4075 7.84335 17.1772 8.0754C16.9443 8.3066 16.5669 8.3066 16.3357 8.0754ZM10.6007 17.1279C9.33251 20.3664 5.66816 22.4047 1.7998 22.6002C1.98595 18.9545 4.05825 15.2256 7.44381 13.9701L8.12806 14.6552C4.44671 16.997 4.173 19.1993 4.1628 20.244C5.24061 20.2312 7.60871 19.9516 9.9241 16.4496L10.6007 17.1279Z"/></symbol>
        <symbol id="icon-desenvolvimento" viewBox="0 0 24 25"><path d="M23.3 11.497V13.5038L13.8832 18.15V16.0501L21.0777 12.4999L13.8832 8.94133V6.84985L23.3 11.497V11.497ZM0.699707 11.497V13.5038L10.1165 18.15V16.0501L2.92207 12.4999L10.1165 8.94133V6.84985L0.699707 11.497V11.497Z"/></symbol>
    </defs>
</svg>