<svg width="84" height="44" viewBox="0 0 84 44" fill="none" xmlns="http://www.w3.org/2000/svg">
<g clip-path="url(#clip0_567_7550)">
<path d="M0.0836786 39.7987H2.83944V28.8851L7.1059 38.3994C7.60903 39.5511 8.29797 39.9581 9.64968 39.9581C11.0014 39.9581 11.6642 39.5511 12.1673 38.3994L16.4338 28.8851V39.7987H19.1895V28.9032C19.1895 27.8403 18.7656 27.3257 17.8908 27.0606C15.7971 26.4054 14.3924 26.9725 13.7565 28.3899L9.56985 37.7799L5.51604 28.3893C4.90626 26.9725 3.47538 26.4054 1.38173 27.06C0.506971 27.3257 0.0830078 27.8397 0.0830078 28.9026V39.7987H0.0836786ZM21.4817 30.9147H24.2368V36.9275C24.2113 37.2538 24.3415 38.0207 25.8508 38.0449C26.621 38.057 31.7957 38.0449 31.844 38.0449V30.8851H34.6058C34.6186 30.8851 34.6031 40.649 34.6031 40.6894C34.6179 43.0978 31.624 43.6205 30.2434 43.6608H21.5414V41.8014C21.5562 41.8014 30.2374 41.8034 30.2589 41.8007C32.0332 41.613 31.8232 40.7291 31.8226 40.4317V39.7065H25.9656C23.2407 39.6817 21.5046 38.4889 21.4824 37.1165C21.4811 36.9907 21.5421 30.9752 21.4817 30.9147Z" fill="#707070"/>
<path d="M36.7305 39.7988H44.6543C45.582 39.7988 46.4836 39.6044 47.1987 39.268C48.3908 38.719 48.9737 37.975 48.9737 36.9996V34.98C48.9737 34.1829 48.3116 33.4381 47.0129 32.943C46.324 32.6766 45.4754 32.536 44.6536 32.536H41.3142C40.2013 32.536 39.6714 32.1997 39.5392 31.4556C39.5131 31.3668 39.5131 31.2962 39.5131 31.2074V29.9494C39.5131 29.8788 39.5131 29.8074 39.5392 29.7193C39.6714 29.1522 39.9632 28.9928 40.9439 28.904L41.2089 28.8865H49.0797V27.0446H41.3417C40.2288 27.0446 39.6459 27.1152 39.1159 27.2746C37.4731 27.7886 36.7566 28.6033 36.7566 30.0207V31.6326C36.7566 32.8731 38.162 33.936 40.52 34.1842C40.7856 34.201 41.0499 34.2199 41.3149 34.2199H44.1773C44.2833 34.2199 44.3893 34.2199 44.4691 34.2367C45.3439 34.3073 45.7142 34.4674 45.9798 34.7856C46.1388 34.9451 46.1912 35.1052 46.1912 35.2814V36.8939C46.1912 37.0884 46.059 37.3366 45.794 37.5492C45.5559 37.7618 45.1581 37.9037 44.6281 37.9394L44.3363 37.9569H36.7305V39.7988ZM66.1671 36.5926C66.1671 38.4876 67.5718 39.5505 70.4067 39.7638C70.6717 39.7813 70.9366 39.7988 71.2016 39.7988H78.3835V37.9569H71.1493C69.5326 37.9569 68.9235 37.5492 68.9235 36.5744V27.0432H66.1677V36.5926H66.1671ZM50.7327 36.6881V30.1189C50.7327 28.4506 51.9012 27.4381 54.2116 27.1186C54.4504 27.0829 54.7167 27.0654 54.9548 27.0654H60.1866C60.4523 27.0654 60.6911 27.0829 60.9561 27.1186C63.2664 27.4381 64.4357 28.4499 64.4357 30.1189V36.6881C64.4357 38.043 63.9392 38.7668 62.7955 39.2391L65.511 41.6965H62.3105L60.1142 39.708L57.9031 39.8486H54.9548C54.4504 39.8486 53.9198 39.7779 53.3355 39.6178C51.5826 39.1388 50.7327 38.2152 50.7327 36.6881ZM53.7071 36.5287C53.7071 36.6175 53.7333 36.7069 53.7601 36.8132C53.9191 37.5768 54.6369 38.0026 55.725 38.0026H58.2285L55.9289 35.9205H59.1294L61.1345 37.7369C61.5048 37.5384 61.7477 37.237 61.8328 36.8489C61.859 36.7601 61.859 36.6713 61.859 36.5825V30.2804C61.859 30.2097 61.859 30.1203 61.8328 30.0315C61.6732 29.3211 60.9561 28.9134 59.8942 28.9134H55.7243C54.5034 28.9134 53.7064 29.4462 53.7064 30.2804V36.5287H53.7071Z" fill="#CDCDCD"/>
<path d="M80.8084 23.9863C79.1146 23.9399 77.8205 24.098 76.7137 24.5656C76.3991 24.6988 75.898 24.7021 75.847 25.097C76.0194 25.2793 76.0462 25.5504 76.1837 25.7738C76.448 26.2023 76.8941 26.7768 77.2919 27.0775C77.726 27.4065 78.1741 27.759 78.641 28.0442C79.4694 28.5515 80.3952 28.8407 81.1941 29.348C81.6644 29.648 82.1313 30.0247 82.5908 30.3631C82.8182 30.5293 82.9698 30.7896 83.2657 30.8939V30.8461C83.1107 30.6483 83.0704 30.3766 82.9282 30.1694L82.3017 29.541C81.6892 28.7257 80.9124 28.0106 80.0853 27.4159C79.4265 26.9416 77.952 26.3005 77.677 25.5316L77.6287 25.4838C78.0956 25.4307 78.643 25.2612 79.0737 25.1454C79.7981 24.9504 80.4455 25.0008 81.1935 24.8071L82.2051 24.5164V24.324C81.8274 23.9352 81.5571 23.4199 81.1452 23.0681C80.0671 22.1471 78.8892 21.2268 77.677 20.4586C77.0048 20.0334 76.1737 19.7569 75.4606 19.3963C75.2218 19.2746 74.8005 19.212 74.6415 19.0095C74.2665 18.5312 74.0632 17.9251 73.7741 17.3674C73.1704 16.2002 72.576 14.9247 72.04 13.6956C71.6751 12.8581 71.4363 12.032 70.9808 11.2806C68.7932 7.67407 66.4386 5.49712 62.7913 3.35785C62.0152 2.90242 61.0807 2.72347 60.0939 2.48869L58.5041 2.39182C58.1814 2.2566 57.8446 1.85969 57.5408 1.66729C56.3319 0.901732 53.2327 -0.763267 52.3378 1.42646C51.773 2.80824 53.1831 4.15638 53.6868 4.85669C54.0404 5.34778 54.4939 5.89807 54.7468 6.45038C54.9131 6.81365 54.9413 7.17759 55.0842 7.56172C55.4337 8.50757 55.7389 9.53752 56.1917 10.4114C56.4205 10.854 56.6734 11.3202 56.9625 11.7158C57.1396 11.958 57.4442 12.0656 57.4918 12.4403C57.1946 12.8574 57.1772 13.5059 57.0101 14.034C56.2575 16.4148 56.5412 19.3741 57.6367 21.136C57.9728 21.6775 58.7643 22.8373 59.8524 22.392C60.8043 22.0031 60.5924 20.7983 60.8647 19.7347C60.9264 19.4945 60.8882 19.3169 61.0089 19.1555V19.2039L61.8763 20.9429C62.5183 21.9796 63.6567 23.062 64.622 23.7933C65.1224 24.172 65.5169 24.8279 66.1636 25.0492V25.0001H66.1159C65.9898 24.8044 65.7946 24.7236 65.6336 24.5656C65.2566 24.1949 64.8373 23.7347 64.5261 23.3096C63.648 22.1148 62.8725 20.8064 62.1654 19.4448C61.828 18.7949 61.5349 18.0778 61.2504 17.4158C61.1404 17.1609 61.1418 16.7747 60.9137 16.6435C60.6011 17.1279 60.1429 17.5201 59.9014 18.0926C59.5163 19.0075 59.4667 20.1235 59.3238 21.2806L59.2272 21.3284C58.5557 21.1663 58.3203 20.4734 58.0707 19.8793C57.4401 18.3771 57.3227 15.9573 57.8782 14.2278C58.0217 13.7797 58.6704 12.3704 58.4075 11.9566C58.282 11.5443 57.8681 11.3061 57.6374 10.9899C57.3509 10.6004 57.0645 10.0878 56.8666 9.63708C56.35 8.46587 56.1092 7.15069 55.5665 5.96602C55.3062 5.39958 54.8675 4.82709 54.5066 4.32389C54.1075 3.76553 53.66 3.35517 53.3501 2.68109C53.2401 2.4416 53.0905 2.05747 53.2535 1.81126C53.3052 1.64509 53.3796 1.5758 53.5433 1.52131C53.8224 1.30537 54.6005 1.59329 54.8917 1.71439C55.6645 2.03662 56.3091 2.34271 56.9638 2.77729C57.2778 2.98651 57.5951 3.39015 57.9755 3.50182H58.4088C59.087 3.65789 59.8471 3.54958 60.4803 3.74265C61.6006 4.0844 62.6042 4.61518 63.5151 5.19238C66.2917 6.95089 68.5611 9.45343 70.1147 12.439C70.3643 12.92 70.473 13.3781 70.6923 13.888C71.1364 14.916 71.6959 15.9742 72.1373 16.9799C72.578 17.9829 73.008 18.9954 73.6312 19.8302C73.9586 20.2689 75.2238 20.5043 75.7987 20.7478C76.2018 20.9187 76.8619 21.097 77.2436 21.327C77.9728 21.7684 78.6799 22.2938 79.3634 22.7768C79.7049 23.0203 80.7561 23.5497 80.8084 23.9863ZM59.2755 5.58121C58.9227 5.57449 58.6724 5.62023 58.4081 5.67809V5.72585H58.4564C58.6248 6.07365 58.922 6.297 59.1306 6.59569L59.6129 7.61016L59.6606 7.56239C59.9591 7.35183 60.0953 7.0148 60.0939 6.49949C59.9738 6.37301 59.9564 6.21492 59.8531 6.06491C59.7162 5.86309 59.4493 5.75007 59.2755 5.58121Z" fill="#707070"/>
</g>
<defs>
<clipPath id="clip0_567_7550">
<rect width="83.0352" height="43.2122" fill="white" transform="translate(0 0.393799)"/>
</clipPath>
</defs>
</svg>
